<svg width="100" height="28" viewBox="0 0 100 28" fill="none" xmlns="http://www.w3.org/2000/svg">
<path d="M49.1083 0.0147403L38.6915 27.9817H44.3662L46.5813 21.9836H58.0866L60.3024 27.9817H66.0936L55.6385 0.0147403H49.1083ZM52.2954 6.36366L56.2598 17.1146H48.3693L52.2954 6.36366Z" fill="#0B074E"/>
<path d="M67.9622 27.9823H73.6757V0.0153299H67.9622V27.9823Z" fill="#0B074E"/>
<path d="M89.2724 12.8299H83.8702V4.88374H89.2724C92.6149 4.88374 94.3258 6.32475 94.3258 8.85713C94.3258 11.35 92.6155 12.8299 89.2724 12.8299ZM89.5831 0.0147403H78.156V27.9817H83.8702V17.6983H89.5831C95.9962 17.6983 99.9999 14.6212 99.9999 8.85654C99.9999 3.05241 95.9962 0.0147403 89.5831 0.0147403Z" fill="#0B074E"/>
<path d="M25.9865 16.1919L0.894889 26.6268L28.3135 20.1499L25.9865 16.1919Z" fill="#0B074E"/>
<path d="M2.16692 24.7094L23.6549 12.2256L21.4591 8.49098L2.16692 24.7094Z" fill="#0B074E"/>
<path d="M16.4669 0L3.32833 22.2949L18.9686 4.25463L16.4669 0Z" fill="#0B074E"/>
<path d="M0 27.9923L0.00470685 28H32.9268L30.4657 24.0366L0 27.9923Z" fill="#0B074E"/>
</svg>
