<?xml version="1.0" encoding="utf-8"?>
<!-- Generator: Adobe Illustrator 23.1.1, SVG Export Plug-In . SVG Version: 6.00 Build 0)  -->
<svg version="1.1" id="Layer_1" xmlns="http://www.w3.org/2000/svg" xmlns:xlink="http://www.w3.org/1999/xlink" x="0px" y="0px"
	 viewBox="0 0 1000 432" style="enable-background:new 0 0 1000 432;" xml:space="preserve">
<style type="text/css">
	.st0{fill:#797D82;}
	.st1{fill:none;}
	.st2{fill:#CD163F;}
	.st3{fill:#00437B;}
	.st4{fill:#C7C9C8;}
</style>
<g>
	<g>
		<g>
			<path class="st0" d="M649.98,123.17c0.14-0.41,0.34-0.68,0.81-0.68h4.39c0.47,0,0.75,0.27,0.88,0.68l15.74,44.58
				c0.14,0.41-0.07,0.68-0.47,0.68h-4.73c-0.47,0-0.74-0.2-0.88-0.68l-3.51-10h-18.57l-3.51,10c-0.21,0.48-0.48,0.68-0.88,0.68
				h-4.73c-0.41,0-0.61-0.27-0.48-0.68L649.98,123.17z M660.25,152.21l-7.23-20.87h-0.14l-7.29,20.87H660.25z"/>
			<path class="st0" d="M720.3,168.42c-0.41,0-0.68-0.27-0.68-0.68v-18.91c0-5.2-2.37-8.24-7.23-8.24c-4.32,0-7.43,3.11-7.43,7.9
				v19.25c0,0.41-0.27,0.68-0.68,0.68h-4.32c-0.41,0-0.68-0.27-0.68-0.68v-18.91c0-5.2-2.36-8.24-7.23-8.24
				c-4.39,0-7.43,3.11-7.43,7.9v19.25c0,0.41-0.27,0.68-0.68,0.68h-4.32c-0.41,0-0.68-0.27-0.68-0.68v-31
				c0-0.41,0.27-0.68,0.68-0.68h4.32c0.41,0,0.68,0.27,0.68,0.68v2.97h0.07c1.55-2.5,4.66-4.39,9.05-4.39
				c4.39,0,7.63,1.82,9.46,5.07h0.07c2.23-3.11,5.54-5.07,10.47-5.07c7.5,0,11.55,4.8,11.55,12.16v20.26c0,0.41-0.27,0.68-0.68,0.68
				H720.3z"/>
			<path class="st0" d="M735.16,160.38c-0.68-2.09-1.08-4.46-1.08-8.17c0-3.71,0.34-6.22,1.01-8.17c1.82-5.61,6.55-8.71,12.7-8.71
				c6.22,0,10.88,3.17,12.7,8.71c0.68,2.09,1.01,4.32,1.01,9.25c0,0.41-0.27,0.68-0.75,0.68H740.3c-0.27,0-0.41,0.14-0.41,0.41
				c0,1.76,0.2,2.84,0.54,3.92c1.28,3.71,4.19,5.61,8.17,5.61c3.85,0,6.55-1.55,8.31-3.58c0.34-0.34,0.68-0.4,1.01-0.13l2.77,2.5
				c0.34,0.27,0.34,0.61,0.07,0.95c-2.57,3.24-6.96,5.54-12.63,5.54C741.58,169.17,736.92,165.99,735.16,160.38 M755.29,149.44
				c0.27,0,0.41-0.14,0.41-0.41c0-1.49-0.14-2.63-0.47-3.65c-1.08-3.24-3.78-5.07-7.43-5.07c-3.65,0-6.35,1.82-7.43,5.07
				c-0.34,1.01-0.48,2.16-0.48,3.65c0,0.27,0.14,0.41,0.41,0.41H755.29z"/>
			<path class="st0" d="M771.3,168.42c-0.4,0-0.67-0.27-0.67-0.68v-31c0-0.41,0.27-0.68,0.67-0.68h4.32c0.41,0,0.67,0.27,0.67,0.68
				v3.31h0.07c1.42-2.77,4.26-4.73,8.58-4.73c2.57,0,5,0.94,6.62,2.43c0.34,0.34,0.4,0.61,0.13,0.94l-2.5,3.31
				c-0.27,0.34-0.61,0.41-0.94,0.14c-1.49-0.94-3.11-1.55-5-1.55c-4.93,0-6.96,3.85-6.96,9.46v17.7c0,0.41-0.27,0.68-0.67,0.68
				H771.3z"/>
			<path class="st0" d="M798.86,128.77c-0.41,0-0.68-0.27-0.68-0.68v-4.93c0-0.41,0.27-0.68,0.68-0.68h4.59
				c0.41,0,0.68,0.27,0.68,0.68v4.93c0,0.41-0.27,0.68-0.68,0.68H798.86z M798.99,168.42c-0.4,0-0.68-0.27-0.68-0.68v-31
				c0-0.41,0.27-0.68,0.68-0.68h4.32c0.41,0,0.68,0.27,0.68,0.68v31c0,0.41-0.27,0.68-0.68,0.68H798.99z"/>
			<path class="st0" d="M814.12,144.04c1.82-5.61,6.55-8.71,12.77-8.71c4.93,0,8.71,2.09,11.08,5.47c0.2,0.34,0.2,0.61-0.2,0.94
				l-2.97,2.43c-0.34,0.27-0.67,0.27-0.94-0.07c-1.89-2.36-3.72-3.51-6.96-3.51c-3.51,0-6.15,1.69-7.23,5.07
				c-0.54,1.69-0.74,3.71-0.74,6.55c0,2.9,0.2,4.93,0.74,6.62c1.08,3.38,3.71,5.07,7.23,5.07c3.24,0,5.07-1.15,6.96-3.51
				c0.27-0.34,0.61-0.34,0.94-0.07l2.97,2.43c0.41,0.34,0.41,0.61,0.2,0.94c-2.36,3.38-6.15,5.47-11.08,5.47
				c-6.21,0-10.94-3.11-12.77-8.71c-0.61-1.96-1.01-4.59-1.01-8.24C813.11,148.63,813.52,146,814.12,144.04"/>
			<path class="st0" d="M865.73,168.42c-0.41,0-0.67-0.27-0.67-0.68v-2.84h-0.07c-1.49,2.43-4.66,4.25-9.59,4.25
				c-6.15,0-10.88-3.17-10.88-9.73c0-6.82,4.73-10,12.63-10h7.36c0.27,0,0.4-0.14,0.4-0.41v-2.36c0-4.46-1.76-6.35-7.77-6.35
				c-3.65,0-5.94,0.95-7.84,2.3c-0.34,0.27-0.74,0.27-0.95-0.07l-1.82-3.11c-0.2-0.4-0.14-0.68,0.13-0.94
				c2.43-1.89,6.22-3.17,11.01-3.17c9.19,0,12.7,3.04,12.7,11.01v21.41c0,0.41-0.27,0.68-0.67,0.68H865.73z M864.92,157.95v-3.58
				c0-0.27-0.13-0.4-0.4-0.4h-6.49c-5.61,0-8.04,1.62-8.04,5.27c0,3.31,2.43,5.07,6.75,5.07
				C861.81,164.3,864.92,161.94,864.92,157.95"/>
			<path class="st0" d="M902.21,168.42c-0.4,0-0.67-0.27-0.67-0.68v-18.91c0-5.2-2.37-8.24-7.23-8.24c-4.39,0-7.43,3.11-7.43,7.9
				v19.25c0,0.41-0.27,0.68-0.67,0.68h-4.32c-0.41,0-0.68-0.27-0.68-0.68v-31c0-0.41,0.27-0.68,0.68-0.68h4.32
				c0.4,0,0.67,0.27,0.67,0.68v2.97h0.07c1.55-2.5,4.66-4.39,9.05-4.39c7.02,0,11.21,4.8,11.21,12.16v20.26
				c0,0.41-0.27,0.68-0.67,0.68H902.21z"/>
		</g>
		<g>
			<path class="st0" d="M636.77,238.8c-0.41,0-0.68-0.27-0.68-0.68v-44.58c0-0.41,0.27-0.68,0.68-0.68h16.35
				c8.85,0,14.59,5.4,14.59,13.71c0,8.31-5.74,13.71-14.59,13.71h-10.61c-0.27,0-0.41,0.14-0.41,0.41v17.43
				c0,0.41-0.27,0.68-0.68,0.68H636.77z M661.76,206.58c0-5-3.31-8.1-8.98-8.1h-10.27c-0.27,0-0.41,0.14-0.41,0.41v15.4
				c0,0.27,0.14,0.41,0.41,0.41h10.27C658.45,214.68,661.76,211.58,661.76,206.58"/>
			<path class="st0" d="M674.66,230.76c-0.68-2.09-1.08-4.46-1.08-8.17c0-3.72,0.34-6.22,1.01-8.17c1.83-5.61,6.55-8.71,12.7-8.71
				c6.22,0,10.88,3.17,12.7,8.71c0.68,2.09,1.01,4.32,1.01,9.25c0,0.41-0.27,0.68-0.75,0.68H679.8c-0.27,0-0.41,0.14-0.41,0.41
				c0,1.76,0.2,2.84,0.54,3.92c1.28,3.71,4.19,5.61,8.18,5.61c3.85,0,6.55-1.55,8.31-3.58c0.34-0.34,0.68-0.41,1.01-0.14l2.77,2.5
				c0.34,0.27,0.34,0.61,0.07,0.95c-2.57,3.24-6.96,5.54-12.63,5.54C681.08,239.54,676.42,236.37,674.66,230.76 M694.79,219.82
				c0.27,0,0.4-0.14,0.4-0.41c0-1.49-0.13-2.63-0.47-3.65c-1.08-3.24-3.78-5.07-7.43-5.07c-3.65,0-6.35,1.82-7.43,5.07
				c-0.34,1.01-0.47,2.16-0.47,3.65c0,0.27,0.14,0.41,0.41,0.41H694.79z"/>
			<path class="st0" d="M719.52,239.13c-6.28,0-8.71-2.84-8.71-9.19v-18.51c0-0.27-0.14-0.41-0.41-0.41h-2.7
				c-0.41,0-0.68-0.27-0.68-0.68v-3.24c0-0.41,0.27-0.68,0.68-0.68h2.7c0.27,0,0.41-0.14,0.41-0.41v-9.12
				c0-0.41,0.27-0.68,0.67-0.68h4.32c0.41,0,0.68,0.27,0.68,0.68v9.12c0,0.27,0.14,0.41,0.41,0.41h5.13c0.41,0,0.68,0.27,0.68,0.68
				v3.24c0,0.41-0.27,0.68-0.68,0.68h-5.13c-0.27,0-0.41,0.14-0.41,0.41v18.31c0,3.24,1.22,4.12,4.12,4.12h1.42
				c0.41,0,0.68,0.27,0.68,0.67v3.92c0,0.41-0.27,0.68-0.68,0.68H719.52z"/>
			<path class="st0" d="M732.15,238.8c-0.41,0-0.68-0.27-0.68-0.68v-31c0-0.41,0.27-0.68,0.68-0.68h4.32c0.41,0,0.68,0.27,0.68,0.68
				v3.31h0.07c1.42-2.77,4.26-4.73,8.58-4.73c2.57,0,5,0.94,6.62,2.43c0.34,0.34,0.4,0.61,0.13,0.95l-2.5,3.31
				c-0.27,0.34-0.61,0.41-0.95,0.14c-1.49-0.95-3.11-1.55-5-1.55c-4.93,0-6.96,3.85-6.96,9.46v17.7c0,0.41-0.27,0.68-0.68,0.68
				H732.15z"/>
			<path class="st0" d="M757.07,230.83c-0.74-2.23-1.08-4.46-1.08-8.24c0-3.72,0.34-5.95,1.08-8.17c1.76-5.54,6.48-8.71,12.76-8.71
				c6.28,0,11.01,3.17,12.77,8.71c0.74,2.23,1.08,4.46,1.08,8.17c0,3.78-0.34,6.01-1.08,8.24c-1.76,5.47-6.49,8.71-12.77,8.71
				C763.56,239.54,758.83,236.3,757.07,230.83 M777.14,229.21c0.54-1.76,0.74-3.51,0.74-6.62c0-3.11-0.2-4.8-0.74-6.55
				c-1.08-3.24-3.71-5.07-7.3-5.07c-3.58,0-6.21,1.82-7.29,5.07c-0.54,1.76-0.74,3.45-0.74,6.55c0,3.11,0.2,4.86,0.74,6.62
				c1.08,3.24,3.71,5.07,7.29,5.07C773.42,234.27,776.05,232.45,777.14,229.21"/>
			<path class="st0" d="M800.58,239.13c-5.67,0-7.9-2.7-7.9-8.51v-37.08c0-0.4,0.27-0.68,0.68-0.68h4.32c0.4,0,0.67,0.27,0.67,0.68
				v36.75c0,2.7,1.01,3.58,3.24,3.58h1.28c0.41,0,0.68,0.27,0.68,0.67v3.92c0,0.41-0.27,0.68-0.68,0.68H800.58z"/>
			<path class="st0" d="M810.64,230.76c-0.68-2.09-1.08-4.46-1.08-8.17c0-3.72,0.34-6.22,1.01-8.17c1.83-5.61,6.55-8.71,12.7-8.71
				c6.21,0,10.88,3.17,12.7,8.71c0.68,2.09,1.01,4.32,1.01,9.25c0,0.41-0.27,0.68-0.74,0.68h-20.47c-0.27,0-0.41,0.14-0.41,0.41
				c0,1.76,0.2,2.84,0.54,3.92c1.28,3.71,4.19,5.61,8.17,5.61c3.85,0,6.55-1.55,8.31-3.58c0.34-0.34,0.67-0.41,1.01-0.14l2.77,2.5
				c0.34,0.27,0.34,0.61,0.07,0.95c-2.57,3.24-6.96,5.54-12.63,5.54C817.06,239.54,812.4,236.37,810.64,230.76 M830.77,219.82
				c0.27,0,0.41-0.14,0.41-0.41c0-1.49-0.14-2.63-0.47-3.65c-1.08-3.24-3.78-5.07-7.43-5.07c-3.65,0-6.35,1.82-7.43,5.07
				c-0.34,1.01-0.48,2.16-0.48,3.65c0,0.27,0.14,0.41,0.41,0.41H830.77z"/>
			<path class="st0" d="M866.44,238.8c-0.41,0-0.68-0.27-0.68-0.68v-3.04h-0.07c-1.69,2.7-4.66,4.46-8.85,4.46
				c-7.09,0-11.21-4.86-11.21-12.23v-20.2c0-0.41,0.27-0.68,0.68-0.68h4.32c0.41,0,0.68,0.27,0.68,0.68v18.85
				c0,5.27,2.36,8.31,7.16,8.31c4.39,0,7.3-3.11,7.3-7.97v-19.18c0-0.41,0.27-0.68,0.68-0.68h4.32c0.41,0,0.68,0.27,0.68,0.68v31
				c0,0.41-0.27,0.68-0.68,0.68H866.44z"/>
			<path class="st0" d="M923.85,238.8c-0.41,0-0.68-0.27-0.68-0.68v-18.91c0-5.2-2.37-8.24-7.23-8.24c-4.32,0-7.43,3.11-7.43,7.9
				v19.25c0,0.41-0.27,0.68-0.68,0.68h-4.32c-0.41,0-0.68-0.27-0.68-0.68v-18.91c0-5.2-2.36-8.24-7.23-8.24
				c-4.39,0-7.43,3.11-7.43,7.9v19.25c0,0.41-0.27,0.68-0.68,0.68h-4.32c-0.41,0-0.68-0.27-0.68-0.68v-31
				c0-0.41,0.27-0.68,0.68-0.68h4.32c0.41,0,0.68,0.27,0.68,0.68v2.97h0.07c1.55-2.5,4.66-4.39,9.05-4.39
				c4.39,0,7.63,1.82,9.46,5.07h0.07c2.23-3.11,5.54-5.07,10.47-5.07c7.5,0,11.55,4.8,11.55,12.16v20.26c0,0.41-0.27,0.68-0.68,0.68
				H923.85z"/>
		</g>
		<g>
			<path class="st0" d="M636.77,311.17h4.66c0.41,0,0.68-0.27,0.68-0.68v-44.58c0-0.41-0.27-0.68-0.68-0.68h-4.66
				c-0.4,0-0.67,0.27-0.67,0.68v44.58C636.09,310.9,636.36,311.17,636.77,311.17"/>
			<path class="st0" d="M654,311.17h4.32c0.41,0,0.68-0.27,0.68-0.68v-19.25c0-4.79,3.04-7.9,7.43-7.9c4.87,0,7.23,3.04,7.23,8.24
				v18.91c0,0.41,0.27,0.68,0.68,0.68h4.32c0.41,0,0.68-0.27,0.68-0.68v-20.26c0-7.36-4.19-12.16-11.21-12.16
				c-4.39,0-7.5,1.89-9.05,4.39h-0.07v-2.97c0-0.41-0.27-0.68-0.68-0.68H654c-0.41,0-0.68,0.27-0.68,0.68v31
				C653.32,310.9,653.59,311.17,654,311.17"/>
			<path class="st0" d="M701.21,311.92c8.44,0,13.04-4.25,13.04-10.61c0-5.2-3.18-8.51-9.73-9.12l-3.38-0.34
				c-4.8-0.47-6.35-1.82-6.35-4.39c0-2.63,2.09-4.46,6.14-4.46c3.31,0,6.62,1.28,8.71,2.64c0.34,0.2,0.68,0.2,0.95-0.14l2.29-2.9
				c0.21-0.34,0.21-0.74-0.13-0.94c-2.7-2.03-6.75-3.58-11.48-3.58c-7.63,0-12.02,3.72-12.02,9.86c0,5.27,3.31,8.44,9.66,9.12
				l3.44,0.34c5.07,0.54,6.28,1.96,6.28,4.53c0,2.9-2.36,4.93-7.09,4.93c-3.92,0-7.56-1.62-10-3.71c-0.27-0.27-0.68-0.27-0.94,0
				l-2.77,2.97c-0.27,0.27-0.27,0.68,0,0.94C690.47,309.35,694.93,311.92,701.21,311.92"/>
			<path class="st0" d="M720.73,283.41h2.7c0.27,0,0.41,0.13,0.41,0.41v18.51c0,6.35,2.43,9.19,8.71,9.19h2.5
				c0.41,0,0.68-0.27,0.68-0.68v-3.92c0-0.41-0.27-0.68-0.68-0.68h-1.42c-2.9,0-4.12-0.88-4.12-4.12v-18.3
				c0-0.27,0.13-0.41,0.41-0.41h5.13c0.41,0,0.68-0.27,0.68-0.68v-3.24c0-0.41-0.27-0.68-0.68-0.68h-5.13
				c-0.27,0-0.41-0.14-0.41-0.4v-9.12c0-0.41-0.27-0.68-0.68-0.68h-4.32c-0.41,0-0.68,0.27-0.68,0.68v9.12c0,0.27-0.14,0.4-0.41,0.4
				h-2.7c-0.41,0-0.68,0.27-0.68,0.68v3.24C720.05,283.14,720.32,283.41,720.73,283.41"/>
			<path class="st0" d="M749.51,278.82h-4.32c-0.41,0-0.68,0.27-0.68,0.68v31c0,0.41,0.27,0.68,0.68,0.68h4.32
				c0.4,0,0.68-0.27,0.68-0.68v-31C750.18,279.09,749.91,278.82,749.51,278.82"/>
			<path class="st0" d="M745.05,271.52h4.59c0.4,0,0.68-0.27,0.68-0.68v-4.93c0-0.41-0.27-0.68-0.68-0.68h-4.59
				c-0.41,0-0.68,0.27-0.68,0.68v4.93C744.37,271.25,744.64,271.52,745.05,271.52"/>
			<path class="st0" d="M758.83,283.41h2.7c0.27,0,0.41,0.13,0.41,0.41v18.51c0,6.35,2.43,9.19,8.71,9.19h2.5
				c0.4,0,0.67-0.27,0.67-0.68v-3.92c0-0.41-0.27-0.68-0.67-0.68h-1.42c-2.91,0-4.12-0.88-4.12-4.12v-18.3
				c0-0.27,0.13-0.41,0.4-0.41h5.14c0.4,0,0.67-0.27,0.67-0.68v-3.24c0-0.41-0.27-0.68-0.67-0.68h-5.14c-0.27,0-0.4-0.14-0.4-0.4
				v-9.12c0-0.41-0.27-0.68-0.68-0.68h-4.32c-0.4,0-0.67,0.27-0.67,0.68v9.12c0,0.27-0.14,0.4-0.41,0.4h-2.7
				c-0.41,0-0.68,0.27-0.68,0.68v3.24C758.15,283.14,758.42,283.41,758.83,283.41"/>
			<path class="st0" d="M793.34,311.92c4.19,0,7.16-1.76,8.85-4.46h0.07v3.04c0,0.4,0.27,0.67,0.68,0.67h4.32
				c0.4,0,0.67-0.27,0.67-0.67v-31c0-0.41-0.27-0.68-0.67-0.68h-4.32c-0.41,0-0.68,0.27-0.68,0.68v19.18c0,4.86-2.9,7.97-7.29,7.97
				c-4.8,0-7.16-3.04-7.16-8.31v-18.84c0-0.41-0.27-0.68-0.68-0.68h-4.32c-0.41,0-0.68,0.27-0.68,0.68v20.19
				C782.13,307.05,786.25,311.92,793.34,311.92"/>
			<path class="st0" d="M816.58,283.41h2.7c0.27,0,0.41,0.13,0.41,0.41v18.51c0,6.35,2.43,9.19,8.71,9.19h2.5
				c0.41,0,0.68-0.27,0.68-0.68v-3.92c0-0.41-0.27-0.68-0.68-0.68h-1.42c-2.9,0-4.12-0.88-4.12-4.12v-18.3
				c0-0.27,0.14-0.41,0.41-0.41h5.13c0.41,0,0.68-0.27,0.68-0.68v-3.24c0-0.41-0.27-0.68-0.68-0.68h-5.13
				c-0.27,0-0.41-0.14-0.41-0.4v-9.12c0-0.41-0.27-0.68-0.68-0.68h-4.32c-0.4,0-0.68,0.27-0.68,0.68v9.12c0,0.27-0.14,0.4-0.41,0.4
				h-2.7c-0.4,0-0.68,0.27-0.68,0.68v3.24C815.9,283.14,816.17,283.41,816.58,283.41"/>
			<path class="st0" d="M844.61,296.72h20.46c0.47,0,0.75-0.27,0.75-0.68c0-4.93-0.34-7.16-1.01-9.25
				c-1.82-5.54-6.48-8.71-12.7-8.71c-6.15,0-10.88,3.11-12.7,8.71c-0.68,1.96-1.01,4.46-1.01,8.17c0,3.71,0.4,6.08,1.08,8.17
				c1.76,5.61,6.42,8.78,12.97,8.78c5.67,0,10.06-2.3,12.63-5.54c0.27-0.34,0.27-0.68-0.07-0.94l-2.77-2.5
				c-0.34-0.27-0.68-0.2-1.01,0.14c-1.76,2.03-4.46,3.58-8.31,3.58c-3.98,0-6.89-1.89-8.18-5.61c-0.34-1.08-0.54-2.16-0.54-3.92
				C844.21,296.85,844.34,296.72,844.61,296.72 M844.68,288.14c1.08-3.24,3.78-5.07,7.43-5.07c3.65,0,6.35,1.82,7.43,5.07
				c0.34,1.01,0.47,2.16,0.47,3.65c0,0.27-0.14,0.41-0.41,0.41h-14.99c-0.27,0-0.41-0.14-0.41-0.41
				C844.21,290.3,844.34,289.15,844.68,288.14"/>
		</g>
	</g>
	<rect x="567.2" y="103.1" class="st0" width="2.44" height="225.76"/>
	<g>
		<g>
			<path class="st1" d="M378.95,159.42h-51.15c-0.87,0-1.58,0.71-1.58,1.58v29.02c0,0.87,0.71,1.58,1.58,1.58h50.68
				c8.37,0,15.7-6.2,16.49-14.54C395.86,167.5,388.33,159.42,378.95,159.42z"/>
			<path class="st2" d="M97.74,275.84l-26.59,53.53c11.08-3.92,61.75-20.4,75.44-24.38l37.76-76.24c0.14-0.29,0.36-0.51,0.6-0.66
				c-31.58,13.24-59.28,29.21-81.38,43.83C101.61,273.22,99.67,274.53,97.74,275.84z"/>
			<path class="st3" d="M232.51,192.75l-43.92-88.35c-1.17-2.34-4.5-2.34-5.66,0l-69.59,140.07c25.63-15.48,51.57-28.3,77.37-38.2
				C204.68,200.89,218.63,196.4,232.51,192.75z"/>
			<path class="st2" d="M446.07,304.75c19.35,5.57,38.25,12.21,56.65,19.83v-62.4c-18.41-14.25-37.3-26.25-56.65-35.98V304.75z"/>
			<path class="st3" d="M502.72,239.61V105.94c0-1.75-1.42-3.16-3.16-3.16h-50.33c-1.74,0-3.16,1.41-3.16,3.16v38.87
				c0,0.67-0.91,0.88-1.2,0.28c-11.81-25.07-37.7-42.31-67.15-42.31h-105c-1.75,0-3.16,1.41-3.16,3.16v155.98
				c0,1.33-1.8,1.76-2.39,0.56l-26.45-53.2c-19.44,4.93-37.99,11.37-55.37,18.64c0.68-0.18,1.47,0.09,1.83,0.82l30.11,60.91
				c25.96-3.85,52.65-5.85,79.68-5.85c9.81,0,19.56,0.28,29.25,0.8v-34.77c0-0.87,0.71-1.58,1.58-1.58h51.15
				c29.15,0,54.34-17.24,65.93-42.06c0.16-0.35,0.53-0.42,0.82-0.3v-0.01C465.16,214.98,484.17,226.25,502.72,239.61z
				 M394.96,177.06c-0.79,8.34-8.12,14.54-16.49,14.54h-50.68c-0.87,0-1.58-0.71-1.58-1.58V161c0-0.87,0.71-1.58,1.58-1.58h51.15
				C388.33,159.42,395.86,167.5,394.96,177.06z"/>
			<path class="st4" d="M232.51,192.75c-13.88,3.65-27.83,8.15-41.81,13.51c-25.8,9.9-51.74,22.73-77.37,38.2l-15.59,31.38
				c1.92-1.31,3.86-2.62,5.84-3.92c22.09-14.62,49.8-30.58,81.38-43.83c0.12-0.07,0.26-0.13,0.39-0.17
				c17.38-7.27,35.93-13.71,55.37-18.64L232.51,192.75z"/>
			<path class="st4" d="M445.69,205.88v0.01c0.21,0.09,0.38,0.29,0.38,0.57v19.74c19.35,9.73,38.24,21.73,56.65,35.98v-22.56
				C484.17,226.25,465.16,214.98,445.69,205.88z"/>
		</g>
		<g>
			<path class="st0" d="M511.29,319.68v0.81h-1.57v4.09h-0.97v-4.09h-1.57v-0.81H511.29z M516.58,324.57l-0.18-2.88
				c-0.02-0.38-0.02-0.85-0.04-1.37h-0.05c-0.13,0.43-0.27,1.01-0.41,1.46l-0.88,2.72h-1.01l-0.88-2.79
				c-0.09-0.38-0.23-0.96-0.34-1.39h-0.05c0,0.45-0.02,0.92-0.04,1.37l-0.18,2.88h-0.94l0.36-4.9h1.46l0.85,2.39
				c0.11,0.38,0.2,0.74,0.32,1.24h0.02c0.13-0.45,0.23-0.86,0.34-1.22l0.85-2.41h1.4l0.38,4.9H516.58z"/>
		</g>
	</g>
</g>
</svg>
