<svg xmlns="http://www.w3.org/2000/svg" width="210" height="61.509" viewBox="0 0 210 61.509">
              <g transform="translate(0 0.004)">
                <g transform="translate(0 -0.004)">
                  <g transform="translate(0 0)">
                    <path d="M6.186,351.442l7.916,7.815a9.327,9.327,0,0,1,2.774,6.637v13.288a3.633,3.633,0,0,1-6.186,2.585l-7.963-7.861A9.172,9.172,0,0,1,0,367.381V354.027A3.634,3.634,0,0,1,6.186,351.442Z" transform="translate(0 -321.314)" fill="#f06c00"></path>
                    <path d="M263.8,60.467l9.029-8.8a12.332,12.332,0,0,0,3.727-8.833V3.636a3.633,3.633,0,0,0-6.168-2.6l-9.637,9.388a10.318,10.318,0,0,0-3.118,7.39V57.864A3.633,3.633,0,0,0,263.8,60.467Z" transform="translate(-236.254 0.004)" fill="#f06c00"></path>
                  </g>
                  <g transform="translate(58.941 14.835)">
                    <g transform="translate(24.48)">
                      <path d="M1013.082,202.6l-1.812,3.982a6.438,6.438,0,0,1-5.86,3.771h0l14.768-31.562,14.768,31.562h0a6.439,6.439,0,0,1-5.86-3.771l-1.812-3.982Zm7.1-15.847-5.5,12.319h10.994Z" transform="translate(-1005.41 -178.79)" fill="#f06c00"></path>
                      <path d="M1479.32,179.57l23.218,22.921V183.5a3.856,3.856,0,0,1,3.856-3.856h0v31.7l-23.218-22.937v18.8a3.856,3.856,0,0,1-3.856,3.856h0Z" transform="translate(-1439.998 -179.505)" fill="#f06c00"></path>
                      <path d="M1970.2,181.09h17.6a3.528,3.528,0,0,1-3.528,3.528h-10.219v8.85h11.4V197h-11.4v11.8h10.219a3.528,3.528,0,0,1,3.528,3.528h-17.6Z" transform="translate(-1890.148 -180.899)" fill="#f06c00"></path>
                      <path d="M2321.556,186.024a4.224,4.224,0,0,1-4.635-.108,5.172,5.172,0,0,0-3.164-.927c-2.387,0-5.013,1.631-5.013,4.257,0,2.347,2.307,3.581,4.177,4.3l2.148.836c4.257,1.671,7.44,4.018,7.44,9.032a9.248,9.248,0,0,1-9.589,9.35,9.347,9.347,0,0,1-9.271-8.4h0a4.205,4.205,0,0,1,4.506,2.069,5.78,5.78,0,0,0,5.082,2.825,5.642,5.642,0,0,0,5.531-5.849c0-3.143-2.586-4.616-5.172-5.689l-2.069-.875c-3.422-1.472-6.526-3.422-6.526-7.6,0-4.854,4.3-7.759,8.833-7.759a8.556,8.556,0,0,1,7.721,4.534Z" transform="translate(-2195.931 -181.266)" fill="#f06c00"></path>
                    </g>
                    <path d="M721.448,184.08v19.114a4.719,4.719,0,0,1-3.852,4.712,4.587,4.587,0,0,1-2.96-.5,2.406,2.406,0,0,0-2.449.139l-1.816,1.174a8.393,8.393,0,0,0,7.2,3.02,8.576,8.576,0,0,0,7.68-8.628V180.28A3.8,3.8,0,0,0,721.448,184.08Z" transform="translate(-710.37 -180.156)" fill="#f06c00"></path>
                  </g>
                </g>
              </g>
            </svg>