<svg xmlns="http://www.w3.org/2000/svg" xmlns:xlink="http://www.w3.org/1999/xlink" width="500" zoomAndPan="magnify" viewBox="0 0 375 374.999991" height="500" preserveAspectRatio="xMidYMid meet" version="1.0"><path fill="rgb(43.528748%, 44.709778%, 44.309998%)" d="M 248 286.648438 C 252.441406 286.648438 255.515625 289.894531 255.515625 294.785156 C 255.515625 299.636719 252.441406 302.851562 247.832031 302.851562 C 245.359375 302.851562 243.523438 301.679688 242.453125 300.039062 L 242.453125 309.480469 L 239.511719 309.480469 L 239.511719 286.851562 L 241.585938 286.75 C 241.816406 287.820312 242.019531 289.796875 241.984375 290.429688 L 242.019531 290.429688 C 242.886719 288.390625 244.757812 286.648438 248 286.648438 Z M 296.511719 286.648438 L 300.8125 297.710938 C 301.140625 298.515625 301.207031 298.785156 301.339844 299.457031 L 301.375 299.457031 C 301.507812 298.71875 301.636719 298.417969 301.902344 297.710938 L 306.265625 286.648438 L 309.242188 286.648438 L 301.835938 305.289062 C 300.945312 307.636719 299.488281 309.480469 296.613281 309.480469 C 295.125 309.480469 294.199219 308.976562 294.199219 308.976562 L 294.726562 306.53125 C 294.726562 306.53125 295.453125 306.933594 296.414062 306.933594 C 298.035156 306.933594 298.726562 305.859375 299.257812 304.453125 L 299.851562 302.875 L 293.238281 286.648438 Z M 284.582031 286.648438 C 288.496094 286.648438 290.953125 289.191406 290.953125 292.96875 L 290.953125 302.632812 L 287.871094 302.632812 L 287.871094 292.96875 C 287.871094 290.660156 286.519531 289.125 284.0625 289.125 C 280.664062 289.125 279.140625 292.097656 279.140625 294.371094 L 279.140625 302.632812 L 276.09375 302.632812 L 276.09375 286.847656 L 278.242188 286.75 C 278.515625 287.953125 278.65625 289.726562 278.65625 290.425781 L 278.761719 290.425781 C 279.625 288.453125 281.460938 286.648438 284.582031 286.648438 Z M 81.828125 279.800781 C 88.375 279.800781 90.703125 284.507812 90.738281 287.894531 L 86.753906 288.503906 C 86.753906 286.40625 85.441406 283.523438 81.898438 283.523438 C 78.488281 283.523438 75.789062 286.371094 75.789062 291.214844 C 75.789062 296.703125 79.027344 298.90625 82.503906 298.90625 C 85.371094 298.90625 87.363281 297.042969 88.375 295.6875 L 90.90625 298.292969 C 89.996094 299.582031 87.363281 302.632812 82.402344 302.632812 C 75.890625 302.632812 71.472656 298.328125 71.472656 291.214844 C 71.472656 284.269531 75.789062 279.800781 81.828125 279.800781 Z M 228.785156 286.648438 C 232.566406 286.648438 234.941406 289.199219 234.941406 292.996094 L 234.941406 302.632812 L 231.964844 302.632812 L 231.964844 292.996094 C 231.964844 290.675781 230.660156 289.132812 228.285156 289.132812 C 225.308594 289.132812 223.835938 292.054688 223.835938 294.335938 L 223.835938 302.632812 L 220.859375 302.632812 L 220.859375 292.996094 C 220.859375 290.675781 219.554688 289.132812 217.183594 289.132812 C 214.207031 289.132812 212.734375 292.054688 212.734375 294.335938 L 212.734375 302.632812 L 209.792969 302.632812 L 209.792969 286.78125 L 211.863281 286.683594 C 212.132812 287.890625 212.265625 289.671875 212.265625 290.375 C 213.070312 288.359375 214.808594 286.648438 217.683594 286.648438 C 220.492188 286.648438 222.53125 288.058594 223.367188 290.34375 C 224.207031 288.328125 225.945312 286.648438 228.785156 286.648438 Z M 103.488281 280.941406 L 111.480469 302.632812 L 107.164062 302.632812 L 105.476562 297.765625 L 96.976562 297.765625 L 95.289062 302.632812 L 90.90625 302.632812 L 98.964844 280.941406 Z M 198.359375 286.648438 C 203.167969 286.648438 206.363281 289.984375 206.363281 294.707031 C 206.363281 299.429688 203.167969 302.632812 198.359375 302.632812 C 193.550781 302.632812 190.359375 299.429688 190.359375 294.707031 C 190.359375 289.984375 193.550781 286.648438 198.359375 286.648438 Z M 118.417969 280.941406 L 124.335938 293.273438 C 124.914062 294.519531 125.632812 296.316406 125.804688 296.839844 L 125.90625 296.839844 C 126.042969 296.316406 126.832031 294.519531 127.414062 293.273438 L 133.261719 280.941406 L 137.773438 280.941406 L 137.773438 302.53125 L 133.5 302.53125 L 133.535156 290.558594 C 133.535156 289.609375 133.636719 288.070312 133.703125 287.910156 L 133.535156 287.84375 C 133.464844 288.136719 133.054688 289.445312 132.78125 290.003906 L 127.003906 302.632812 L 124.609375 302.632812 L 118.691406 289.871094 C 118.246094 288.988281 118.007812 288.007812 117.972656 287.84375 L 117.835938 287.910156 C 117.871094 288.070312 117.972656 289.609375 117.972656 290.558594 L 118.042969 302.53125 L 113.769531 302.53125 L 113.769531 280.941406 Z M 178.476562 280.941406 C 184.585938 280.941406 186.699219 285.363281 186.730469 288.136719 L 183.890625 288.589844 C 183.890625 286.558594 182.4375 283.523438 178.511719 283.523438 C 174.746094 283.523438 171.675781 286.523438 171.675781 291.785156 C 171.675781 297.660156 175.207031 300.050781 179.039062 300.050781 C 181.878906 300.050781 183.957031 298.371094 185.113281 296.820312 L 186.929688 298.628906 C 186.269531 299.53125 183.792969 302.632812 178.972656 302.632812 C 172.832031 302.632812 168.636719 298.628906 168.636719 291.785156 C 168.636719 285.234375 172.734375 280.941406 178.476562 280.941406 Z M 150.199219 280.941406 C 156.03125 280.941406 159.492188 283.539062 159.492188 288.5 C 159.492188 293.496094 155.960938 296.089844 150.75 296.089844 L 146.667969 296.089844 L 146.667969 302.632812 L 142.347656 302.632812 L 142.347656 280.941406 Z M 264.949219 286.648438 C 269.414062 286.648438 272.027344 288.925781 272.027344 292.527344 L 272.027344 298.832031 C 272.027344 299.691406 272.273438 300.023438 273.039062 300.023438 C 273.25 300.023438 273.492188 299.988281 273.632812 299.957031 L 273.804688 302.398438 C 273.804688 302.398438 273.003906 302.597656 272.132812 302.597656 C 270.425781 302.597656 269.167969 301.839844 269.167969 300.023438 L 269.167969 299.988281 L 269.097656 299.988281 C 268.648438 300.78125 267.21875 302.632812 263.382812 302.632812 C 259.753906 302.632812 257.800781 300.847656 257.800781 298.304688 C 257.800781 294.902344 261.21875 293.550781 268.472656 293.550781 L 268.960938 293.550781 L 268.960938 292.558594 C 268.960938 290.445312 267.601562 289.09375 264.878906 289.09375 C 262.546875 289.09375 261.117188 289.984375 261.117188 291.601562 C 261.117188 291.964844 261.183594 292.164062 261.289062 292.394531 L 258.394531 292.855469 C 258.394531 292.855469 258.1875 292.261719 258.1875 291.503906 C 258.1875 288.664062 260.765625 286.648438 264.949219 286.648438 Z M 53.359375 280.230469 L 61.855469 302.445312 L 58.632812 302.445312 L 56.546875 296.925781 L 47.058594 296.925781 L 44.96875 302.445312 L 41.75 302.445312 L 50.242188 280.230469 Z M 247.464844 289.125 C 244.125 289.125 242.453125 292.105469 242.453125 294.449219 L 242.453125 295.085938 C 242.453125 297.460938 244.023438 300.375 247.664062 300.375 C 250.605469 300.375 252.507812 298.132812 252.507812 294.785156 C 252.507812 291.402344 250.570312 289.125 247.464844 289.125 Z M 268.960938 295.5625 L 268.472656 295.5625 C 262.859375 295.5625 260.941406 296.523438 260.941406 298.238281 C 260.941406 299.460938 261.917969 300.1875 264.007812 300.1875 C 267.21875 300.1875 268.960938 298.503906 268.960938 297.050781 Z M 198.359375 289.09375 C 195.332031 289.09375 193.320312 291.46875 193.320312 294.707031 C 193.320312 297.941406 195.332031 300.1875 198.359375 300.1875 C 201.390625 300.1875 203.398438 297.941406 203.398438 294.707031 C 203.398438 291.46875 201.390625 289.09375 198.359375 289.09375 Z M 101.261719 285.277344 L 101.160156 285.277344 C 100.992188 286.101562 100.722656 287.019531 100.484375 287.710938 L 98.089844 294.578125 L 104.363281 294.578125 L 101.9375 287.679688 C 101.699219 287.019531 101.460938 286.101562 101.261719 285.277344 Z M 51.820312 284.035156 L 51.75 284.035156 C 51.511719 284.910156 51.273438 285.71875 51.03125 286.355469 L 48.019531 294.402344 L 55.585938 294.402344 L 52.539062 286.355469 C 52.300781 285.71875 52.058594 284.910156 51.820312 284.035156 Z M 149.789062 284.261719 L 146.667969 284.261719 L 146.667969 292.769531 L 149.960938 292.769531 C 153.253906 292.769531 155.136719 291.261719 155.136719 288.5 C 155.136719 285.871094 153.285156 284.261719 149.789062 284.261719 Z M 149.789062 284.261719 " fill-opacity="1" fill-rule="evenodd"/><path fill="rgb(0%, 50.979614%, 79.219055%)" d="M 318.878906 239.023438 C 323.1875 239.023438 326.871094 240.546875 329.933594 243.597656 C 332.992188 246.644531 334.523438 250.316406 334.523438 254.605469 C 334.523438 258.976562 332.988281 262.679688 329.921875 265.714844 C 326.855469 268.75 323.113281 270.269531 318.699219 270.269531 C 314.46875 270.269531 310.835938 268.730469 307.796875 265.652344 C 304.753906 262.578125 303.234375 258.90625 303.234375 254.644531 C 303.234375 250.328125 304.765625 246.644531 307.824219 243.597656 C 310.886719 240.546875 314.570312 239.023438 318.878906 239.023438 Z M 318.878906 241.253906 C 314.625 241.253906 311.207031 242.855469 308.632812 246.058594 C 306.523438 248.671875 305.46875 251.535156 305.46875 254.644531 C 305.46875 258.292969 306.773438 261.433594 309.375 264.074219 C 311.992188 266.714844 315.101562 268.035156 318.699219 268.035156 C 323.074219 268.035156 326.550781 266.433594 329.128906 263.230469 C 331.234375 260.617188 332.289062 257.75 332.289062 254.625 C 332.289062 251.527344 331.234375 248.671875 329.128906 246.058594 C 326.550781 242.855469 323.132812 241.253906 318.878906 241.253906 Z M 322.960938 134.816406 L 309.691406 177.777344 L 282.078125 177.777344 C 261.164062 177.777344 309.152344 198.457031 298.699219 235.28125 C 293.066406 254.894531 279.796875 266.101562 242.933594 266.101562 L 199.503906 266.101562 L 213.308594 224.074219 L 240.386719 224.074219 C 261.164062 224.074219 213.039062 204.460938 224.03125 166.167969 C 229.664062 147.089844 242.933594 134.816406 279.796875 134.816406 Z M 196.660156 134.816406 L 168.898438 224.074219 L 202.933594 224.074219 L 189.050781 266.101562 L 105.765625 266.101562 L 147.007812 134.816406 Z M 133.199219 134.816406 L 92.355469 266.101562 L 42.894531 266.101562 L 84.269531 134.816406 Z M 319.058594 246.261719 L 319.765625 246.28125 C 321.121094 246.367188 322.164062 246.703125 322.894531 247.296875 C 323.75 247.988281 324.175781 249.023438 324.175781 250.402344 C 324.175781 251.421875 323.925781 252.339844 323.429688 253.15625 C 322.933594 253.976562 322.195312 254.6875 321.214844 255.289062 L 326.308594 263.152344 L 323.148438 263.152344 L 318.578125 256.113281 L 316.441406 256.113281 L 316.441406 263.152344 L 313.726562 263.152344 L 313.726562 246.261719 Z M 317.773438 248.011719 L 316.261719 248.011719 L 316.261719 254.003906 L 317.046875 254.003906 C 318.535156 254.003906 319.65625 253.722656 320.398438 253.167969 C 321.144531 252.609375 321.515625 251.777344 321.515625 250.664062 C 321.515625 249.78125 321.203125 249.117188 320.582031 248.671875 C 319.957031 248.230469 319.019531 248.011719 317.773438 248.011719 Z M 104.234375 114.265625 C 104.234375 124.519531 108.050781 129.109375 108.050781 129.109375 C 103.617188 127.945312 95.941406 123.207031 93.492188 115.355469 L 93.191406 114.265625 Z M 124.054688 114.265625 C 117.882812 123.660156 111.023438 127.964844 111.023438 127.964844 C 111.023438 127.964844 106.910156 123.398438 106.910156 114.265625 Z M 138.917969 114.265625 C 132.945312 120.921875 122.085938 126.660156 117.195312 127.964844 C 117.46875 127.707031 124.664062 121.441406 128.601562 114.265625 Z M 89.375 114.265625 C 91.714844 122.941406 97.765625 126.824219 97.765625 126.824219 C 92.554688 125.476562 84.503906 122.035156 80.160156 115.402344 L 79.472656 114.265625 Z M 151.492188 114.265625 C 143.613281 121.304688 134.265625 125.308594 128.65625 126.824219 C 128.140625 126.824219 134.96875 123.480469 142.050781 115.175781 L 142.8125 114.265625 Z M 132.058594 98.285156 C 130.878906 102.390625 129.386719 105.757812 127.5 109.304688 L 126.664062 110.84375 L 108.050781 110.84375 C 108.289062 107.21875 108.9375 103.070312 109.816406 99.683594 L 110.207031 98.285156 Z M 105.765625 98.285156 C 104.886719 102.070312 104.289062 105.144531 103.976562 108.902344 L 103.839844 110.84375 L 92.425781 110.84375 C 91.613281 107.117188 92.261719 102.832031 92.960938 99.398438 L 93.195312 98.285156 Z M 89.761719 98.285156 C 88.886719 102.257812 88.347656 105.449219 88.960938 109.46875 L 89.207031 110.84375 L 78.371094 110.84375 C 76.960938 107.910156 76.851562 102.75 77.828125 99.148438 L 78.09375 98.285156 Z M 162.921875 98.285156 C 161.9375 100.988281 159.917969 105.257812 156.007812 109.851562 L 155.140625 110.84375 L 145.777344 110.84375 C 147.417969 108.019531 149.578125 104.21875 151.242188 99.917969 L 151.839844 98.285156 Z M 149.203125 98.285156 C 148.125 101.515625 145.960938 105.523438 143.105469 109.515625 L 142.128906 110.84375 L 130.914062 110.84375 C 132.933594 106.671875 134.210938 103.917969 135.5 99.871094 L 135.988281 98.285156 Z M 135.488281 83.445312 C 135.144531 86.597656 134.699219 89.84375 133.734375 93.183594 L 133.207031 94.859375 L 111.480469 94.859375 C 112.433594 91.589844 113.707031 88.21875 115.957031 84.75 L 116.847656 83.445312 Z M 96.621094 83.445312 C 94.941406 85.433594 92.265625 90.558594 90.945312 94.03125 L 90.644531 94.859375 L 79.472656 94.859375 C 80.203125 93.078125 82.417969 88.617188 86.332031 84.304688 L 87.136719 83.445312 Z M 112.625 83.445312 C 111.179688 86.21875 109.421875 89.867188 108.175781 93.371094 L 107.675781 94.859375 L 94.335938 94.859375 C 94.847656 93.085938 97.160156 88.324219 100.371094 84.296875 L 101.074219 83.445312 Z M 150.09375 83.445312 C 150.558594 85.867188 150.386719 90.070312 149.582031 93.769531 L 149.324219 94.859375 L 136.628906 94.859375 C 137.101562 93.105469 138.339844 88.753906 138.730469 84.503906 L 138.808594 83.445312 Z M 164.136719 83.445312 C 165.285156 85.101562 165.601562 90.183594 164.636719 94.050781 L 164.410156 94.859375 L 152.632812 94.859375 C 153.730469 92.042969 154.066406 87.71875 153.746094 84.566406 L 153.59375 83.445312 Z M 144.632812 67.460938 C 149.765625 68.675781 158.183594 72.417969 162.28125 78.910156 L 162.921875 80.019531 L 153.167969 80.019531 C 150.863281 71.433594 144.632812 67.460938 144.632812 67.460938 Z M 135.488281 65.179688 C 139.523438 66.582031 147.53125 71.152344 150.03125 78.890625 L 150.347656 80.019531 L 139.167969 80.019531 C 139.441406 69.992188 135.488281 65.179688 135.488281 65.179688 Z M 131.429688 66.320312 C 131.429688 66.320312 135.746094 71.015625 135.476562 80.019531 L 118.339844 80.019531 C 124.410156 70.496094 131.429688 66.320312 131.429688 66.320312 Z M 126.34375 66.320312 C 126.070312 66.582031 118.875 72.972656 114.941406 80.019531 L 104.621094 80.019531 C 110.59375 73.496094 121.457031 67.753906 126.34375 66.320312 Z M 114.882812 67.460938 C 115.410156 67.460938 107.933594 71.074219 100.796875 79.136719 L 100.035156 80.019531 L 90.90625 80.019531 C 98.945312 73.074219 110.523438 68.53125 114.882812 67.460938 Z M 114.882812 67.460938 " fill-opacity="1" fill-rule="evenodd"/></svg>