<?xml version="1.0" encoding="UTF-8" standalone="no"?>
<svg xmlns="http://www.w3.org/2000/svg" id="Layer_1" version="1.1" viewBox="0 0 256.7 47.3">
  <!-- Generator: Adobe Illustrator 29.2.1, SVG Export Plug-In . SVG Version: 2.1.0 Build 116)  -->
  <defs>
    <style>
      .st0 {
        fill: none;
      }

      .st1 {
        fill: #005294;
      }

      .st2 {
        fill: #26c1ed;
      }
    </style>
  </defs>
  <rect class="st0" height="82.5" width="286.9" x="-16.7" y="-17.3"/>
  <path class="st2" d="M51,36.7v-7.6h21.1v7.6h-21.1ZM70.3,22.5v-7.6h-19.3v7.6h19.3ZM72,8.4V.7h-21.1v7.6s21.1,0,21.1,0ZM27.6,17.3l-5.9,9.9c1-2.1-.6-3.2-1.7-3.5-1.7-.7-7.2-1.7-10.7-2.8-1.8-.5-3.2-1.3-3.9-1.8-.2-.2-4-2.7-4-7.8S2.5.1,16.1.1s14.3,6.6,14.5,10.5h-9.2c-.3-1.4-1.6-3.1-5.5-3.1-.9,0-4.5,0-4.9,2.5-.1,1,.3,1.7.9,2.1s1.6.7,1.9.8c1.7.5,5.3,1.2,7.1,1.6,3.1.8,5.3,1.7,6.7,2.8h0ZM16.1,29.2c-3.6,0-6-.9-6.7-4.6H0c0,1.5.8,7.8,6.4,10.5,3.2,1.5,6.7,1.8,9.4,1.8l5.7-9.4c-.4.5-1.2,1.9-5.5,1.9h0Z"/>
  <path class="st1" d="M76.4,45.7c0,.9-.7,1.6-1.6,1.6s-1.6-.7-1.6-1.6.7-1.6,1.6-1.6,1.6.7,1.6,1.6ZM76.2,45.7c0-.8-.6-1.4-1.4-1.4s-1.4.6-1.4,1.4.6,1.4,1.4,1.4,1.4-.6,1.4-1.4ZM75.2,45.9l.4.6h-.4l-.4-.5h-.3v.5h-.4v-1.7h.7c.4,0,.7.2.7.5s-.2.4-.4.5ZM75.2,45.4c0-.2-.1-.2-.3-.2h-.4v.5h.4c.2,0,.3,0,.3-.2ZM31.4,41.2h1.2v6h-1.1l-2.4-3.6v3.6h-1.2v-6h1.2l2.3,3.5s0-3.5,0-3.5ZM25.1,45l1.3,2.2h-1.4l-1.1-2h-.8v2h-1.2v-6h2.3c.7,0,1.3.2,1.6.6.3.3.5.8.5,1.4h0c0,1-.5,1.5-1.1,1.8ZM25,43.2c0-.6-.4-.9-1-.9h-.9v1.8h.9c.6,0,1-.4,1-.9h0ZM1.3,47.2h1.2v-6h-1.2v6ZM17.4,44.8h2.3v-1.1h-2.3v-1.3h2.7v-1.1h-3.9v6h3.9v-1.1h-2.7v-1.3ZM7.8,44.7l-2.3-3.5h-1.1v6h1.2v-3.6l2.4,3.6h1.1v-6h-1.2v3.5ZM10.4,42.4h1.5v4.8h1.2v-4.8h1.5v-1.2h-4.3v1.2ZM37.3,41.2l2.2,6h-1.3l-.5-1.3h-2.1l-.4,1.3h-1.3l2.2-6h1.2ZM37.3,44.8l-.7-2-.7,2h1.3ZM59,44.7l-2.3-3.5h-1.2v6h1.2v-3.6l2.4,3.6h1.1v-6h-1.2v3.5ZM69.6,41.2h-1.2v6h3.7v-1.1h-2.4v-4.9ZM39.9,42.4h1.5v4.8h1.2v-4.8h1.5v-1.2h-4.3s0,1.2,0,1.2ZM45.6,47.2h1.2v-6h-1.2v6ZM53.9,44.2h0c0,1.9-1.1,3.2-2.7,3.2s-2.7-1.2-2.7-3h0c0-1.9,1.1-3.2,2.7-3.2s2.7,1.2,2.7,3ZM52.6,44.2c0-1.2-.6-1.9-1.4-1.9s-1.4.7-1.4,1.9h0c0,1.2.6,2,1.4,2s1.4-.7,1.4-1.9c0,0,0,0,0,0ZM67.1,47.2h-1.3l-.4-1.3h-2.1l-.4,1.3h-1.3l2.2-6h1.2l2.2,6h0ZM64.9,44.8l-.7-2-.7,2h1.3ZM51,.7h-13.4l-9.9,16.5-5.9,9.9h0c0,.1-5.7,9.6-5.7,9.6h9.6l4.6-7.6h12.5v7.6h8.4V.7h0ZM42.5,22.5h-8.5l8.5-14.2v14.2Z"/>
  <path class="st1" d="M102.2,26.6l-2-14.7-5.7,14.7h-.5l-5.7-14.7-1.9,14.7h-.7l2.1-15.9h.8l5.7,14.8,5.7-14.8h.7l2.1,15.9s-.6,0-.6,0Z"/>
  <path class="st1" d="M104.4,20.8c0-3.7,1.7-6,4.9-6s4.9,2.3,4.9,6-1.8,6-4.9,6-4.9-2.3-4.9-6ZM113.5,20.8c0-3.4-1.5-5.4-4.2-5.4s-4.2,2-4.2,5.4,1.5,5.4,4.2,5.4,4.2-2,4.2-5.4Z"/>
  <path class="st1" d="M126.1,20.8c0,3.7-2,6-5,6s-2.7-.6-3.5-1.7v1.4h-.6v-15.9h.7v5.9c.7-1.1,2-1.8,3.7-1.8,3,0,4.8,2.3,4.8,6h0ZM125.4,20.8c0-3.2-1.5-5.4-4.2-5.4s-2.9.8-3.6,1.8v7.3c.7,1.2,2,1.8,3.4,1.8,2.8,0,4.4-2.2,4.4-5.4h0Z"/>
  <path class="st1" d="M128.8,10.7h.7v1.6h-.7v-1.6ZM128.8,15.1h.7v11.5h-.7v-11.5Z"/>
  <path class="st1" d="M132.7,10.7h.7v15.9h-.7v-15.9Z"/>
  <path class="st1" d="M136.6,10.7h.7v1.6h-.7v-1.6ZM136.6,15.1h.7v11.5h-.7v-11.5Z"/>
  <path class="st1" d="M141,15.7v8c0,1.9,1.2,2.6,2.5,2.6s1.4-.2,2.1-.5v.6c-.7.3-1.5.5-2.2.5-1.8,0-3.1-1-3.1-3.2v-11.8l.7-.2v3.3h4.8v.6h-4.8,0Z"/>
  <path class="st1" d="M157.1,15.1l-4.9,12.6c-1,2.6-1.9,3.5-3.5,3.5s-.5,0-.7,0v-.6c.3,0,.5,0,.7,0,1.6,0,2.1-.8,2.9-2.7,0-.2.1-.4.1-.6,0-.3-.1-.6-.2-1l-4.2-11.2h.7l3.9,10.6c0,.3.2.5.2.9l4.4-11.5h.7Z"/>
  <path class="st1" d="M157.5,25.4v1.1c0,1.2-.2,2.2-.9,3.2h-.5c.6-1.1.8-2,.8-3h-.6v-1.2h1.2Z"/>
  <path class="st1" d="M174.4,22.2h-8.1l-1.7,4.4h-.7l6.1-15.9h.7l6.1,15.9h-.7l-1.7-4.4h0ZM174.1,21.6l-3.8-10-3.9,10h7.7Z"/>
  <path class="st1" d="M186.6,10.7v15.9h-.6v-1.5c-.8,1.1-2,1.8-3.7,1.8-3,0-4.8-2.3-4.8-6s2-6,5.1-6,2.6.6,3.4,1.7v-5.7h.7,0ZM185.9,24.4v-7.2c-.7-1.2-2-1.8-3.4-1.8-2.8,0-4.5,2.2-4.5,5.4s1.5,5.4,4.2,5.4,2.9-.8,3.6-1.9h0Z"/>
  <path class="st1" d="M198.5,15.1l-4.6,11.5h-.6l-4.6-11.5h.7l4.2,10.8,4.2-10.8h.7,0Z"/>
  <path class="st1" d="M207.8,26.6c-.2-.6-.3-1.2-.4-1.8-.9,1.2-2.4,2.1-4.2,2.1s-3.5-1.3-3.5-3,1.6-2.9,4-3.5l1-.2c1.9-.5,2.6-1,2.6-2.5s-.7-2.2-3-2.2-2.9.4-4.1,1.4v-.7c1.2-.9,2.6-1.3,4.1-1.3,2.6,0,3.7,1.1,3.7,2.9v6.3c0,1,.2,1.8.4,2.6h-.7ZM207.4,24.2v-4.8c-.5.6-1.4,1-2.6,1.3l-.9.2c-2.1.5-3.5,1.2-3.5,3s1,2.4,2.9,2.4,3.3-1,4.1-2.1h0Z"/>
  <path class="st1" d="M219.9,18.8v7.8h-.7v-7.7c0-2.3-1.3-3.5-3.4-3.5s-2.8.6-3.8,2.1v9.1h-.7v-11.5h.6v1.9c1-1.5,2.5-2.2,4.1-2.2s3.9,1.4,3.9,4h0Z"/>
  <path class="st1" d="M222.5,20.8c0-3.6,1.8-6.1,4.9-6.1s2.3.3,3.1.9v.6c-1-.7-2-.9-3.1-.9-2.7,0-4.3,2.1-4.3,5.4s1.5,5.5,4.4,5.5,2.1-.3,2.9-1v.7c-.9.5-1.9.9-2.9.9-3.3,0-5-2.5-5-6.1Z"/>
  <path class="st1" d="M232.8,20.5v.2c0,3.3,1.4,5.6,4.6,5.6s2.4-.4,3.4-1.3v.7c-1.1.8-2.3,1.2-3.5,1.2-3.6,0-5.3-2.6-5.3-6.2s1.8-5.9,4.9-5.9,4.4,2.1,4.4,5.2,0,.4,0,.5h-8.5ZM232.8,19.9h7.9c0-2.7-1.2-4.5-3.7-4.5s-3.9,1.7-4.1,4.5h0Z"/>
  <path class="st1" d="M252.2,10.7v15.9h-.6v-1.5c-.8,1.1-2.1,1.8-3.7,1.8-3,0-4.8-2.3-4.8-6s2-6,5.1-6,2.6.6,3.4,1.7v-5.7h.7,0ZM251.5,24.4v-7.2c-.7-1.2-2-1.8-3.4-1.8-2.8,0-4.5,2.2-4.5,5.4s1.5,5.4,4.2,5.4,2.9-.8,3.6-1.9h0Z"/>
  <path class="st1" d="M256.7,11.5c0,.8-.6,1.5-1.5,1.5s-1.5-.6-1.5-1.5.6-1.5,1.5-1.5,1.5.6,1.5,1.5ZM256.5,11.5c0-.7-.5-1.3-1.3-1.3s-1.3.5-1.3,1.3.5,1.3,1.3,1.3,1.3-.5,1.3-1.3ZM255.4,11.7l.4.6h-.2l-.4-.6h-.3v.6h-.2v-1.5h.5c.3,0,.5.2.5.5s-.1.4-.3.4h0ZM254.9,11.5h.3c.2,0,.3-.1.3-.3s-.1-.3-.3-.3h-.3v.5h0Z"/>
</svg>
