<?xml version="1.0" encoding="UTF-8"?>
<svg id="Main" xmlns="http://www.w3.org/2000/svg" version="1.1" viewBox="0 0 841 201.4">
  <!-- Generator: Adobe Illustrator 29.0.1, SVG Export Plug-In . SVG Version: 2.1.0 Build 192)  -->
  <defs>
    <style>
      .st0 {
        fill: #0f35b8;
      }

      .st1 {
        fill: none;
        stroke: #0f35b8;
        stroke-miterlimit: 10;
      }
    </style>
  </defs>
  <g>
    <path class="st0" d="M200.5,91.8c-.7,17-6.7,35.2-19.9,51-.6.8-1.1,1-1.9,1s-1.3-.3-2-.8c-1.2-1-4.1-3.3-5-4-.8-.7-1.3-1.3-1.3-2.2s.4-1.6.9-2.3c8.8-12.7,13.5-23.3,15.3-34.8,3.7-1.8,10-5.3,13.9-7.9M162.2,110.3c-4.3,1.7-8.7,3.3-13.4,4.9v47.8c0,1.7.8,2.5,2.3,2.5s1.1,0,1.9-.4c1.6-.7,5.8-3,7.4-4.1,1.6-1.1,1.9-2.1,1.9-4.4v-46.3ZM120.6,123.8v47.4c0,1.6.8,2.5,2.5,2.5s5.7-.8,8-1.6c1.9-.6,2.6-1.6,2.6-3.4v-48.7c-4.2,1.3-8.6,2.5-13.1,3.8M47.3,136.1v8.7c0,3.1.7,4.3,2.5,5.8,1.9,1.5,4.1,3.4,6.5,5.3.8.7,1.6,1,2.3,1,1.1,0,1.8-.7,1.8-2.2v-19.5c-4.4.4-8.8.7-13.1.9M93.9,130.1v26.8c0,1.9-.8,2.6-2.3,2.6s-4.5-.6-6.1-1.6c-1.9-1.1-2.4-2.3-2.4-4.8v-21.2c-4.4.8-8.8,1.4-13.1,2v23.6c0,4.9,1.5,7.6,6.2,10.3,6.1,3.5,18.9,6.6,25.3,6.6s5.8-2.2,5.8-5.5v-41.9c-4.5,1.1-8.9,2.1-13.3,3M222.9,57.7c0,21.2-51.2,48.8-119,64.7-21.1,5-45.2,8.9-64.5,8.9-28,0-39.4-9.9-39.4-21.1s4.1-13.2,12.8-19c.5-.3.9-.5,1.3-.5s.8.3.8.7-.2.7-.7,1.1c-6.8,5.4-10.2,10.9-10.2,16.7s8.7,16.5,34.9,16.5,5.4,0,8.4-.3v-32.5h-11.9c.4,5.8,1.4,10.8,3.4,17.9.2.8.4,1.5.4,1.9,0,1.1-.5,1.7-2.2,2.3-2,.7-3.7,1.3-5.4,1.9-.7.2-1.3.4-1.8.4-1.2,0-1.9-.7-2.5-2.1-3.7-8.8-5.1-20.1-5.1-29.2,0-26,13.9-51.6,33.7-66.5,1-.7,1.9-1,2.5-1,1.3,0,2.1,1,2.1,2.1v103.8c3.1-.3,6.3-.7,9.6-1.2v-18.9c0-2.4.9-3.2,3.5-3.2h6.2c2.6,0,3.4.8,3.4,3.2v16.8c3.5-.6,7.2-1.3,10.8-2.1v-17.8c0-3.3-.9-4.6-3.4-6.1-2.6-1.5-7.6-4.5-11.2-6.7-6.4-3.8-9.3-7.3-9.3-15.3V18c0-4,.8-6.6,4.5-9C81.7,4.5,94.3.2,100.5.2s5.4,1.8,5.4,4.8v62.1c0,2.4-.8,3.2-3.4,3.2h-6.4c-2.6,0-3.4-.8-3.4-3.2V18.1c0-1.9-.4-2.6-1.9-2.6s-3.4.8-5.1,1.9c-1.9,1.2-2.3,2.4-2.3,4.7v47.8c0,3.4.6,4.4,3.3,6.1,3.3,2.1,8.2,4.9,11.2,6.7,6.6,3.9,9.3,7.7,9.3,15.3v17.8c4.5-1.1,8.9-2.2,13.4-3.5V13.5c-1.6-.2-4.6-.5-7.6-.9-2.5-.3-2.8-1.3-2.8-3V3C110.2,1.1,111.2,0,113.3,0c8,0,22.4,2.9,28.4,5.3,2.4,1,2.9,1.9,2.9,3.6v7.5c0,1.6-.8,2.3-2,2.3s-1.1-.2-2.3-.5c-2.7-.9-5.1-1.6-6.6-2v92.4c5.2-1.6,10.2-3.3,15.1-5.1V10.6c0-1.4.7-2.3,2-2.3s2.1,1.1,3.1,3.3c3.8,8.8,12.9,29.9,20.2,46.6,2.6-7.3,5.8-16.2,6.5-18.1.5-1.4,1.2-2.1,2.3-2.1s1.5.4,2.5,1.7c8.3,11.4,13.4,24.2,14.8,39.6,11.6-7.7,18.7-15.3,18.7-22s-6.3-12.2-21.4-12.9c-.7,0-1.1-.4-1.1-.9s.4-.9,1.2-.9c17.1,0,25.3,7.4,25.3,14.9M47.3,79.8v-33.4c-6.7,9-11,21.6-12,33.4h12ZM162.2,98.4c9.2-3.7,17.8-7.6,25.2-11.6-.1-9.4-1.4-16-4-21.3-2.7,6.5-6.6,15.9-7.7,18.6-.4,1-1,1.6-1.8,1.6s-1.2-.4-1.8-1.5c-.8-1.6-6-12.4-9.9-20.5v34.7Z"/>
    <path class="st0" d="M194.3,187.2v13.9h9.1v-2h-6.8v-11.8h-2.3ZM181.7,194.2c.5-1.4,1.1-3.2,1.8-5.5h0c.4,1.4,1,3.2,1.8,5.5l.4,1.1h-4.3l.4-1.1ZM190.1,201.1l-5-13.9h-3.1l-5,13.9h2.5l1.3-3.8h5.7l1.3,3.8h2.5ZM170.5,187.2v5.4c0,1.9,0,4,0,6.3h0c-.9-1.9-1.9-3.9-2.9-6l-3-5.8h-3.4v13.9h2.3v-5.4c0-2.1,0-4.2-.1-6.3h0c.9,1.9,1.9,3.9,2.9,6l3,5.8h3.3v-13.9h-2.2ZM153.7,194.1c0,1.6-.4,2.8-1.1,3.8-.7.9-1.7,1.4-2.9,1.4s-2.2-.5-2.9-1.4c-.7-.9-1.1-2.2-1.1-3.8s.4-2.8,1.1-3.8c.7-.9,1.7-1.4,2.9-1.4s2.2.5,2.9,1.4c.7.9,1.1,2.2,1.1,3.8M143.2,194.1c0,2.2.6,4,1.7,5.3,1.1,1.3,2.7,1.9,4.7,1.9s3.6-.6,4.7-1.9c1.1-1.3,1.7-3.1,1.7-5.3s-.6-4-1.7-5.3c-1.1-1.3-2.7-1.9-4.7-1.9s-3.6.6-4.7,1.9c-1.1,1.3-1.7,3.1-1.7,5.3M135.7,201.1h2.3v-13.9h-2.3v13.9ZM120,187.2v2h4.6v11.8h2.3v-11.8h4.6v-2h-11.4ZM110.2,194.2c.5-1.4,1.1-3.2,1.8-5.5h0c.4,1.4,1,3.2,1.8,5.5l.4,1.1h-4.3l.4-1.1ZM118.6,201.1l-5-13.9h-3.1l-5,13.9h2.5l1.3-3.8h5.7l1.3,3.8h2.5ZM99,187.2v5.4c0,1.9,0,4,0,6.3h0c-.9-1.9-1.9-3.9-2.9-6l-3-5.8h-3.4v13.9h2.3v-5.4c0-2.1,0-4.2-.1-6.3h0c.9,1.9,1.9,3.9,2.9,6l3,5.8h3.3v-13.9h-2.2ZM81.7,191.3c0,.7-.2,1.3-.6,1.7-.4.4-1.1.6-2.1.6h-2.3v-4.5h2.2c1.9,0,2.8.7,2.8,2.1M76.7,201.1v-5.6h2c.7,0,1.2.1,1.6.4.4.3.7.8,1,1.6l1.2,3.5h2.5l-1.4-3.9c-.3-.9-.6-1.5-.9-1.8-.3-.4-.7-.6-1.2-.8h0c.8-.2,1.4-.6,1.9-1.2.5-.6.7-1.3.7-2.2,0-2.6-1.6-3.8-4.9-3.8h-4.8v13.9h2.3ZM59.5,187.2v13.9h9.5v-2h-7.1v-4h6.5v-2h-6.5v-3.8h6.9v-2h-9.3ZM43.7,187.2v2h4.6v11.8h2.3v-11.8h4.6v-2h-11.4ZM37.2,187.2v5.4c0,1.9,0,4,0,6.3h0c-.9-1.9-1.9-3.9-2.9-6l-3-5.8h-3.4v13.9h2.3v-5.4c0-2.1,0-4.2-.1-6.3h0c.9,1.9,1.9,3.9,2.9,6l3,5.8h3.3v-13.9h-2.2ZM19.4,201.1h2.3v-13.9h-2.3v13.9Z"/>
  </g>
  <line class="st1" x1="264.7" y1="0" x2="264.7" y2="201.4"/>
  <g>
    <path class="st0" d="M324.2,86l-2.8,7.6h-3.5l9.7-25.6h4.5l9.7,25.6h-3.6l-2.8-7.6h-11.3ZM333.6,80.8c-1.3-3.6-2.5-6.9-3.7-10.4h0c-1.2,3.6-2.4,6.9-3.7,10.4l-.9,2.3h9.2l-.8-2.3Z"/>
    <path class="st0" d="M356.1,68.1c8.5,0,13.3,4.6,13.3,12.8s-4.8,12.8-13.3,12.8h-7.8v-25.6h7.8ZM351.6,90.7h4.5c6.4,0,9.8-3.4,9.8-9.8s-3.4-9.8-9.8-9.8h-4.5v19.7Z"/>
    <path class="st0" d="M382.9,93.7l-8.8-25.6h3.4l3.9,11.4c1.3,3.6,2.4,7.3,3.6,11h0c1.2-3.7,2.3-7.3,3.6-11l3.9-11.4h3.5l-8.8,25.6h-4.3Z"/>
    <path class="st0" d="M405.2,86l-2.8,7.6h-3.5l9.7-25.6h4.5l9.7,25.6h-3.6l-2.8-7.6h-11.3ZM414.6,80.8c-1.3-3.6-2.5-6.9-3.7-10.4h0c-1.2,3.6-2.4,6.9-3.7,10.4l-.9,2.3h9.2l-.8-2.3Z"/>
    <path class="st0" d="M444.7,93.7l-6.1-11c-2.1-3.8-4.2-7.7-6.2-11.5h0c0,4.1.1,8.2.1,12.3v10.2h-3.2v-25.6h4.9l6.1,11c2.1,3.8,4.2,7.7,6.2,11.5h0c0-4.1-.1-8.2-.1-12.3v-10.2h3.2v25.6h-4.9Z"/>
    <path class="st0" d="M479.5,76.7h-3.4c-.3-3.8-2.9-6.1-6.8-6.1s-7.8,3.9-7.8,10.3,2.9,10.3,7.7,10.3,6.5-2.4,7-6.3h3.5c-.5,5.7-4.4,9.3-10.4,9.3s-11.1-5-11.1-13.3,4.3-13.3,11.2-13.3,9.9,3.9,10.2,9.2Z"/>
    <path class="st0" d="M488.3,93.7v-25.6h3.3v25.6h-3.3Z"/>
    <path class="st0" d="M517.5,93.7l-6.1-11c-2.1-3.8-4.2-7.7-6.2-11.5h0c0,4.1.1,8.2.1,12.3v10.2h-3.2v-25.6h4.9l6.1,11c2.1,3.8,4.2,7.7,6.2,11.5h0c0-4.1-.1-8.2-.1-12.3v-10.2h3.2v25.6h-4.9Z"/>
    <path class="st0" d="M552.7,75.8h-3.5c-.6-3.3-2.9-5.2-6.6-5.2s-8.1,3.9-8.1,10.3,3,10.3,7.9,10.3,7.2-2.4,7.3-8.4h-7v-2.8h10.2v13.6h-2.9v-3.5h0c-1.4,2.4-4.4,4-8,4-6.5,0-10.7-5-10.7-13.2s4.4-13.4,11.6-13.4,9.7,3.2,10.2,8.2Z"/>
    <path class="st0" d="M590.6,76h-3.3c0-3.8-2.1-5.6-5.9-5.6s-5.1,1.5-5.1,4,2,3.5,6.2,4.6c4.9,1.2,8.7,2.4,8.7,7.7s-3.6,7.5-9.2,7.5-9.6-3.1-9.6-9h3.4c0,4.2,2.3,6.1,6.2,6.1s5.7-1.7,5.7-4.5-2.1-3.6-6.3-4.6c-4.9-1.2-8.6-2.4-8.6-7.6s3.3-7,8.5-7,9.2,2.9,9.2,8.4Z"/>
    <path class="st0" d="M607.6,71v22.6h-3.3v-22.6h-8.7v-2.9h20.8v2.9h-8.7Z"/>
    <path class="st0" d="M623.7,86l-2.8,7.6h-3.5l9.7-25.6h4.5l9.7,25.6h-3.6l-2.8-7.6h-11.3ZM633.1,80.8c-1.3-3.6-2.5-6.9-3.7-10.4h0c-1.2,3.6-2.4,6.9-3.7,10.4l-.9,2.3h9.2l-.8-2.3Z"/>
    <path class="st0" d="M663.2,93.7l-6.1-11c-2.1-3.8-4.2-7.7-6.2-11.5h0c0,4.1.1,8.2.1,12.3v10.2h-3.2v-25.6h4.9l6.1,11c2.1,3.8,4.2,7.7,6.2,11.5h0c0-4.1-.1-8.2-.1-12.3v-10.2h3.2v25.6h-4.9Z"/>
    <path class="st0" d="M686.3,68.1c8.5,0,13.3,4.6,13.3,12.8s-4.8,12.8-13.3,12.8h-7.8v-25.6h7.8ZM681.8,90.7h4.5c6.4,0,9.8-3.4,9.8-9.8s-3.4-9.8-9.8-9.8h-4.5v19.7Z"/>
    <path class="st0" d="M710.3,86l-2.8,7.6h-3.5l9.7-25.6h4.5l9.7,25.6h-3.6l-2.8-7.6h-11.3ZM719.7,80.8c-1.3-3.6-2.5-6.9-3.7-10.4h0c-1.2,3.6-2.4,6.9-3.7,10.4l-.9,2.3h9.2l-.8-2.3Z"/>
    <path class="st0" d="M742.5,68.1c6.2,0,9,2.6,9,6.9s-1.9,5.7-4.9,6.4h0c1.9.6,2.7,1.7,3.8,4.9l2.6,7.4h-3.6l-2.3-6.8c-1-3.1-2.2-4-5-4h-4.5v10.8h-3.3v-25.6h8.1ZM737.7,80.1h4.8c4,0,5.6-2,5.6-4.8s-2.1-4.3-5.9-4.3h-4.6v9.2Z"/>
    <path class="st0" d="M768.8,68.1c8.5,0,13.3,4.6,13.3,12.8s-4.8,12.8-13.3,12.8h-7.8v-25.6h7.8ZM764.3,90.7h4.5c6.4,0,9.8-3.4,9.8-9.8s-3.4-9.8-9.8-9.8h-4.5v19.7Z"/>
    <path class="st0" d="M807,76h-3.3c0-3.8-2.1-5.6-5.9-5.6s-5.1,1.5-5.1,4,2,3.5,6.2,4.6c4.9,1.2,8.7,2.4,8.7,7.7s-3.6,7.5-9.2,7.5-9.6-3.1-9.6-9h3.4c0,4.2,2.3,6.1,6.2,6.1s5.7-1.7,5.7-4.5-2.1-3.6-6.3-4.6c-4.9-1.2-8.6-2.4-8.6-7.6s3.3-7,8.5-7,9.2,2.9,9.2,8.4Z"/>
    <path class="st0" d="M330.2,124.9v22.6h-3.3v-22.6h-8.7v-2.9h20.8v2.9h-8.7Z"/>
    <path class="st0" d="M353.7,122c6.2,0,9,2.6,9,6.9s-1.9,5.7-4.9,6.4h0c1.9.6,2.7,1.7,3.8,4.9l2.6,7.4h-3.6l-2.3-6.8c-1-3.1-2.2-4-5-4h-4.5v10.8h-3.3v-25.6h8.1ZM348.9,134h4.8c4,0,5.6-2,5.6-4.8s-2.1-4.3-5.9-4.3h-4.6v9.2Z"/>
    <path class="st0" d="M375.3,139.9l-2.8,7.6h-3.5l9.7-25.6h4.5l9.7,25.6h-3.6l-2.8-7.6h-11.3ZM384.6,134.7c-1.3-3.6-2.5-6.9-3.7-10.4h0c-1.2,3.6-2.4,6.9-3.7,10.4l-.9,2.3h9.2l-.8-2.3Z"/>
    <path class="st0" d="M414.8,147.6l-6.1-11c-2.1-3.8-4.2-7.7-6.2-11.5h0c0,4.1.1,8.2.1,12.3v10.2h-3.2v-25.6h4.9l6.1,11c2.1,3.8,4.2,7.7,6.2,11.5h0c0-4.1-.1-8.2-.1-12.3v-10.2h3.2v25.6h-4.9Z"/>
    <path class="st0" d="M446.1,129.9h-3.3c0-3.8-2.1-5.6-5.9-5.6s-5.1,1.5-5.1,4,2,3.5,6.2,4.6c4.9,1.2,8.7,2.4,8.7,7.7s-3.6,7.5-9.2,7.5-9.6-3.1-9.6-9h3.4c0,4.2,2.3,6.1,6.2,6.1s5.7-1.7,5.7-4.5-2.1-3.6-6.3-4.6c-4.9-1.2-8.6-2.4-8.6-7.6s3.3-7,8.5-7,9.2,2.9,9.2,8.4Z"/>
    <path class="st0" d="M458.8,124.9v8.7h11.9v2.9h-11.9v11h-3.3v-25.6h16v2.9h-12.7Z"/>
    <path class="st0" d="M501,134.8c0,8.2-4.5,13.3-11.6,13.3s-11.6-5.1-11.6-13.3,4.5-13.3,11.6-13.3,11.6,5.1,11.6,13.3ZM481.3,134.8c0,6.3,3.1,10.3,8.2,10.3s8.2-4,8.2-10.3-3.2-10.3-8.2-10.3-8.2,4-8.2,10.3Z"/>
    <path class="st0" d="M517.7,122c6.2,0,9,2.6,9,6.9s-1.9,5.7-4.9,6.4h0c1.9.6,2.7,1.7,3.8,4.9l2.6,7.4h-3.6l-2.3-6.8c-1-3.1-2.2-4-5-4h-4.5v10.8h-3.3v-25.6h8.1ZM512.9,134h4.8c4,0,5.6-2,5.6-4.8s-2.1-4.3-5.9-4.3h-4.6v9.2Z"/>
    <path class="st0" d="M559.7,147.6v-13c0-3.2,0-6.5,0-9.8h0c-1.1,3.3-2.3,6.5-3.5,9.8l-4.7,13h-3.8l-4.7-13c-1.2-3.3-2.4-6.5-3.5-9.8h0c0,3.3,0,6.5,0,9.8v13h-3.2v-25.6h5.3l4.6,12.6c1.2,3.2,2.3,6.6,3.4,9.8h0c1.1-3.2,2.2-6.6,3.4-9.8l4.6-12.6h5.4v25.6h-3.2Z"/>
    <path class="st0" d="M573.3,147.6v-25.6h3.3v25.6h-3.3Z"/>
    <path class="st0" d="M602.5,147.6l-6.1-11c-2.1-3.8-4.2-7.7-6.2-11.5h0c0,4.1.1,8.2.1,12.3v10.2h-3.2v-25.6h4.9l6.1,11c2.1,3.8,4.2,7.7,6.2,11.5h0c0-4.1-.1-8.2-.1-12.3v-10.2h3.2v25.6h-4.9Z"/>
    <path class="st0" d="M637.6,129.7h-3.5c-.6-3.3-2.9-5.2-6.6-5.2s-8.1,3.9-8.1,10.3,3,10.3,7.9,10.3,7.2-2.4,7.3-8.4h-7v-2.8h10.2v13.6h-2.9v-3.5h0c-1.4,2.4-4.4,4-8,4-6.5,0-10.7-5-10.7-13.2s4.4-13.4,11.6-13.4,9.7,3.2,10.2,8.2Z"/>
    <path class="st0" d="M683,147.6v-13c0-3.2,0-6.5,0-9.8h0c-1.1,3.3-2.3,6.5-3.5,9.8l-4.7,13h-3.8l-4.7-13c-1.2-3.3-2.4-6.5-3.5-9.8h0c0,3.3,0,6.5,0,9.8v13h-3.2v-25.6h5.3l4.6,12.6c1.2,3.2,2.3,6.6,3.4,9.8h0c1.1-3.2,2.2-6.6,3.4-9.8l4.6-12.6h5.4v25.6h-3.2Z"/>
    <path class="st0" d="M699,139.9l-2.8,7.6h-3.5l9.7-25.6h4.5l9.7,25.6h-3.6l-2.8-7.6h-11.3ZM708.4,134.7c-1.3-3.6-2.5-6.9-3.7-10.4h0c-1.2,3.6-2.4,6.9-3.7,10.4l-.9,2.3h9.2l-.8-2.3Z"/>
    <path class="st0" d="M731.2,122c6.2,0,9,2.6,9,6.9s-1.9,5.7-4.9,6.4h0c1.9.6,2.7,1.7,3.8,4.9l2.6,7.4h-3.6l-2.3-6.8c-1-3.1-2.2-4-5-4h-4.5v10.8h-3.3v-25.6h8.1ZM726.4,134h4.8c4,0,5.6-2,5.6-4.8s-2.1-4.3-5.9-4.3h-4.6v9.2Z"/>
    <path class="st0" d="M768.5,147.6h-4.4l-11.1-12.6h0v12.6h-3.3v-25.6h3.3v11.5h0l10.3-11.5h4.2l-11.2,12.2,12.2,13.4Z"/>
    <path class="st0" d="M778.3,124.9v8.1h12.4v2.9h-12.4v8.7h13.6v2.9h-16.9v-25.6h16.5v2.9h-13.2Z"/>
    <path class="st0" d="M809.1,124.9v22.6h-3.3v-22.6h-8.7v-2.9h20.8v2.9h-8.7Z"/>
    <path class="st0" d="M840.4,129.9h-3.3c0-3.8-2.1-5.6-5.9-5.6s-5.1,1.5-5.1,4,2,3.5,6.2,4.6c4.9,1.2,8.7,2.4,8.7,7.7s-3.6,7.5-9.2,7.5-9.6-3.1-9.6-9h3.4c0,4.2,2.3,6.1,6.2,6.1s5.7-1.7,5.7-4.5-2.1-3.6-6.3-4.6c-4.9-1.2-8.6-2.4-8.6-7.6s3.3-7,8.5-7,9.2,2.9,9.2,8.4Z"/>
  </g>
</svg>