<svg width="500" height="33" viewBox="0 0 500 33" fill="none" xmlns="http://www.w3.org/2000/svg">
<path d="M130.828 0H130.172C130.077 0 130 0.0606534 130 0.135476V32.8645C130 32.9393 130.077 33 130.172 33H130.828C130.923 33 131 32.9393 131 32.8645V0.135476C131 0.0606534 130.923 0 130.828 0Z" fill="white"/>
<path d="M91.0287 9.72454V26.7682C91.0287 26.787 91.0251 26.8055 91.0179 26.8228C91.0107 26.8402 91.0002 26.8559 90.9869 26.8691C90.9737 26.8824 90.958 26.8929 90.9406 26.9001C90.9233 26.9073 90.9048 26.9109 90.886 26.9109H87.5018C87.4639 26.9109 87.4276 26.8959 87.4009 26.8691C87.3741 26.8424 87.3591 26.8061 87.3591 26.7682V9.72454C87.3591 9.7058 87.3554 9.68725 87.3482 9.66993C87.341 9.65262 87.3305 9.63688 87.3173 9.62363C87.304 9.61038 87.2883 9.59987 87.271 9.5927C87.2536 9.58552 87.2351 9.58183 87.2163 9.58183H0.142713C0.104864 9.58183 0.0685606 9.5668 0.0417972 9.54003C0.0150338 9.51327 0 9.47697 0 9.43912V5.64711C0 5.60926 0.0150338 5.57296 0.0417972 5.54619C0.0685606 5.51943 0.104864 5.50439 0.142713 5.50439H116.162C116.2 5.50439 116.236 5.51943 116.263 5.54619C116.29 5.57296 116.305 5.60926 116.305 5.64711L116.309 9.43912C116.309 9.47697 116.294 9.51327 116.267 9.54003C116.24 9.5668 116.204 9.58183 116.166 9.58183H91.1715C91.1336 9.58183 91.0973 9.59687 91.0705 9.62363C91.0438 9.65039 91.0287 9.6867 91.0287 9.72454Z" fill="white"/>
<path d="M268.704 15.4925V21.2049C268.704 21.3409 268.636 21.4088 268.5 21.4088H267.582C267.446 21.4088 267.378 21.3409 267.378 21.2049V15.5414C267.378 15.3674 267.291 15.2818 267.117 15.2845L266.669 15.2927C266.533 15.2954 266.465 15.2288 266.465 15.0929L266.461 14.4812C266.461 14.429 266.482 14.3787 266.519 14.3414C266.557 14.304 266.607 14.2825 266.661 14.2815L267.113 14.2733C267.309 14.2679 267.403 14.1673 267.395 13.9716C267.325 12.2876 267.276 10.5873 269.678 11.0766C269.716 11.0847 269.742 11.1078 269.756 11.1459C269.829 11.396 269.848 11.6542 269.813 11.9206C269.804 11.9777 269.772 12.0008 269.715 11.9899C268.41 11.7942 268.736 13.3681 268.687 14.0572C268.676 14.2121 268.75 14.2882 268.907 14.2855L269.564 14.2692C269.597 14.2681 269.63 14.2739 269.662 14.2861C269.693 14.2983 269.721 14.3167 269.745 14.3403C269.769 14.3639 269.788 14.3921 269.801 14.4234C269.814 14.4546 269.821 14.4881 269.821 14.522L269.817 15.048C269.814 15.2165 269.728 15.2994 269.56 15.2967L268.911 15.2886C268.773 15.2859 268.704 15.3538 268.704 15.4925Z" fill="white"/>
<path d="M276.452 20.0587C277.711 20.8946 279.228 20.3401 279.118 18.5949C278.959 16.0955 273.87 16.7152 274.947 12.752C275.428 10.9783 277.491 10.7866 278.988 11.1658C280.284 11.5002 280.533 12.9314 280.407 14.073C280.401 14.1328 280.369 14.1627 280.309 14.1627L279.126 14.1709C279.026 14.1709 278.98 14.1206 278.988 14.02C279.099 12.8077 278.69 12.1716 277.76 12.1118C276.749 12.0493 276.238 12.5413 276.227 13.5878C276.203 15.9813 280.973 15.2922 280.513 19.0964C280.227 21.4491 277.932 21.9058 276.036 21.2738C274.768 20.8497 274.527 19.178 274.637 18.0445C274.642 17.9792 274.678 17.9466 274.743 17.9466H275.917C275.937 17.9465 275.955 17.9535 275.969 17.9663C275.984 17.9791 275.993 17.9968 275.995 18.0159L276.174 19.6061C276.196 19.7991 276.288 19.95 276.452 20.0587Z" fill="white"/>
<path d="M464.027 19.0279C464.03 19.681 463.774 20.3088 463.314 20.7731C462.855 21.2373 462.23 21.5001 461.577 21.5035L460.606 21.5086C459.953 21.512 459.325 21.2558 458.861 20.7964C458.397 20.3369 458.134 19.7119 458.131 19.0587L458.102 13.5135C458.098 12.8603 458.354 12.2325 458.814 11.7683C459.273 11.304 459.898 11.0413 460.551 11.0379L461.522 11.0327C462.175 11.0293 462.803 11.2855 463.267 11.745C463.731 12.2044 463.994 12.8294 463.998 13.4826L464.027 19.0279ZM462.594 13.5251C462.594 13.1542 462.448 12.7982 462.186 12.5355C461.924 12.2728 461.569 12.1248 461.198 12.1242L460.945 12.1237C460.761 12.1234 460.579 12.1592 460.409 12.2292C460.24 12.2992 460.085 12.402 459.955 12.5316C459.825 12.6612 459.722 12.8152 459.651 12.9848C459.581 13.1544 459.544 13.3362 459.544 13.5198L459.534 18.9999C459.534 19.3708 459.68 19.7268 459.942 19.9895C460.204 20.2523 460.56 20.4002 460.93 20.4009L461.183 20.4013C461.367 20.4016 461.549 20.3658 461.719 20.2958C461.888 20.2258 462.043 20.1231 462.173 19.9934C462.303 19.8638 462.406 19.7098 462.477 19.5402C462.547 19.3707 462.584 19.1889 462.584 19.0052L462.594 13.5251Z" fill="white"/>
<path d="M466.477 13.9997C466.33 12.3892 466.351 10.6318 468.671 11.0599C468.732 11.0713 468.786 11.1032 468.826 11.1501C468.865 11.197 468.887 11.256 468.887 11.3168L468.895 11.8265C468.895 11.9869 468.816 12.0548 468.659 12.0303C468.145 11.9597 467.861 12.1799 467.807 12.6909C467.76 13.134 467.748 13.5974 467.77 14.0813C467.775 14.2199 467.847 14.2879 467.986 14.2852L468.581 14.2648C468.791 14.2593 468.895 14.3613 468.895 14.5706L468.891 14.9946C468.891 15.2012 468.788 15.3018 468.581 15.2964L467.986 15.2801C467.845 15.2773 467.774 15.3467 467.774 15.488V21.3065C467.774 21.3718 467.74 21.4044 467.672 21.4044H466.551C466.483 21.4044 466.449 21.3718 466.449 21.3065V15.541C466.449 15.3698 466.362 15.2855 466.188 15.2882H465.731C465.595 15.2909 465.529 15.223 465.531 15.0843L465.539 14.3749C465.542 14.3151 465.573 14.2838 465.633 14.2811L466.224 14.277C466.409 14.277 466.494 14.1846 466.477 13.9997Z" fill="white"/>
<path d="M472.637 14.2769L473.293 14.2728C473.429 14.2728 473.497 14.3408 473.497 14.4767L473.493 15.1903C473.493 15.2162 473.483 15.2411 473.464 15.2595C473.446 15.2778 473.421 15.2881 473.395 15.2881H472.584C472.557 15.2876 472.53 15.2924 472.504 15.3025C472.479 15.3125 472.456 15.3274 472.437 15.3464C472.418 15.3654 472.402 15.388 472.392 15.413C472.381 15.438 472.376 15.4649 472.376 15.492V21.2534C472.376 21.354 472.325 21.4043 472.225 21.4043H471.152C471.085 21.4043 471.051 21.3717 471.051 21.3064V15.4961C471.051 15.3602 470.983 15.2908 470.847 15.2881H470.243C470.183 15.2854 470.152 15.2555 470.149 15.1984L470.133 14.4767C470.128 14.3326 470.197 14.2633 470.341 14.2688L470.847 14.2851C470.993 14.2905 471.065 14.2212 471.063 14.0771C471.042 12.6092 470.798 10.7173 473.065 11.0109C473.451 11.0598 473.603 11.3004 473.521 11.7326C473.489 11.9093 473.383 12.0044 473.203 12.018L472.951 12.0384C472.838 12.0469 472.73 12.0908 472.643 12.1639C472.556 12.237 472.494 12.3357 472.465 12.4461C472.354 12.8947 472.327 13.4274 472.384 14.0445C472.397 14.1994 472.482 14.2769 472.637 14.2769Z" fill="white"/>
<path d="M145.875 19.164L145.419 21.3046C145.413 21.3331 145.398 21.3587 145.376 21.3773C145.353 21.3959 145.325 21.4062 145.296 21.4066L144.204 21.4025C144.185 21.4024 144.166 21.398 144.149 21.3897C144.132 21.3814 144.117 21.3693 144.105 21.3544C144.094 21.3396 144.085 21.3222 144.081 21.3037C144.077 21.2852 144.077 21.266 144.081 21.2476L146.393 11.2171C146.4 11.19 146.415 11.1658 146.436 11.1481C146.457 11.1304 146.484 11.1203 146.512 11.1192L148.118 11.107C148.147 11.1062 148.176 11.1156 148.199 11.1334C148.222 11.1512 148.238 11.1765 148.244 11.2048L150.552 21.2435C150.557 21.262 150.557 21.2811 150.553 21.2996C150.548 21.3181 150.54 21.3355 150.528 21.3503C150.517 21.3652 150.502 21.3773 150.485 21.3856C150.468 21.3939 150.449 21.3983 150.43 21.3984L149.231 21.4066C149.203 21.4064 149.175 21.3966 149.153 21.3789C149.131 21.3611 149.115 21.3364 149.109 21.3087L148.632 19.1599C148.625 19.1322 148.61 19.1075 148.588 19.0897C148.565 19.072 148.538 19.0622 148.509 19.0621H145.998C145.969 19.0624 145.941 19.0728 145.919 19.0913C145.896 19.1099 145.881 19.1355 145.875 19.164ZM148.367 17.688L147.413 13.1498C147.315 12.6849 147.217 12.6849 147.119 13.1498L146.169 17.7083C146.164 17.7367 146.164 17.7658 146.171 17.7937C146.178 17.8217 146.191 17.8477 146.209 17.8699C146.227 17.8921 146.249 17.9099 146.275 17.9222C146.3 17.9345 146.328 17.9408 146.357 17.9408L148.159 17.9448C148.333 17.9448 148.402 17.8592 148.367 17.688Z" fill="white"/>
<path d="M172.741 11.1071L171.616 11.1169C171.534 11.1176 171.469 11.1839 171.47 11.2649L171.479 12.2924C171.48 12.3735 171.546 12.4386 171.627 12.4379L172.752 12.4281C172.833 12.4274 172.899 12.3611 172.898 12.28L172.889 11.2526C172.888 11.1715 172.822 11.1064 172.741 11.1071Z" fill="white"/>
<path d="M198.067 19.1643L197.61 21.305C197.605 21.3334 197.589 21.3591 197.567 21.3776C197.545 21.3962 197.517 21.4065 197.488 21.4069L196.395 21.4028C196.376 21.4027 196.357 21.3983 196.34 21.39C196.323 21.3817 196.308 21.3696 196.297 21.3547C196.285 21.3399 196.277 21.3225 196.273 21.304C196.268 21.2855 196.269 21.2663 196.273 21.2479L198.581 11.2174C198.587 11.189 198.603 11.1638 198.626 11.1459C198.649 11.1281 198.678 11.1188 198.707 11.1195L200.314 11.1114C200.343 11.1106 200.371 11.1199 200.394 11.1378C200.417 11.1556 200.433 11.1809 200.44 11.2092L202.744 21.2438C202.748 21.2623 202.748 21.2815 202.744 21.3C202.74 21.3185 202.732 21.3358 202.72 21.3507C202.708 21.3655 202.693 21.3776 202.676 21.3859C202.659 21.3942 202.64 21.3986 202.621 21.3987L201.423 21.4069C201.394 21.4067 201.367 21.397 201.344 21.3792C201.322 21.3614 201.307 21.3367 201.3 21.309L200.823 19.1602C200.817 19.1325 200.801 19.1078 200.779 19.0901C200.757 19.0723 200.729 19.0626 200.701 19.0624H198.189C198.16 19.0628 198.132 19.0731 198.11 19.0917C198.088 19.1102 198.072 19.1359 198.067 19.1643ZM200.57 17.7413L199.576 13.0237C199.494 12.6404 199.414 12.6404 199.335 13.0237L198.352 17.7617C198.328 17.8786 198.375 17.937 198.495 17.937L200.399 17.9492C200.541 17.9492 200.598 17.8799 200.57 17.7413Z" fill="white"/>
<path d="M229.007 11.1113H227.873C227.794 11.1113 227.73 11.1752 227.73 11.254V12.2897C227.73 12.3685 227.794 12.4324 227.873 12.4324H229.007C229.086 12.4324 229.149 12.3685 229.149 12.2897V11.254C229.149 11.1752 229.086 11.1113 229.007 11.1113Z" fill="white"/>
<path d="M242.658 11.1209L241.557 11.1113C241.47 11.1105 241.398 11.1811 241.397 11.2689L241.388 12.2719C241.388 12.3597 241.458 12.4315 241.546 12.4323L242.647 12.4419C242.735 12.4427 242.806 12.3721 242.807 12.2843L242.816 11.2813C242.817 11.1934 242.746 11.1216 242.658 11.1209Z" fill="white"/>
<path d="M308.454 16.8483L308.458 21.2682C308.458 21.3028 308.445 21.336 308.42 21.3605C308.396 21.385 308.362 21.3987 308.328 21.3987L307.162 21.4069C307.127 21.4069 307.094 21.3931 307.069 21.3686C307.045 21.3442 307.031 21.311 307.031 21.2764V11.25C307.031 11.2154 307.045 11.1822 307.069 11.1577C307.094 11.1332 307.127 11.1195 307.162 11.1195L308.328 11.1113C308.362 11.1113 308.396 11.1251 308.42 11.1495C308.445 11.174 308.458 11.2072 308.458 11.2418V15.466C308.458 15.5006 308.472 15.5338 308.497 15.5583C308.521 15.5828 308.554 15.5965 308.589 15.5965H311.284C311.319 15.5965 311.352 15.5828 311.376 15.5583C311.401 15.5338 311.414 15.5006 311.414 15.466V11.2418C311.414 11.2072 311.428 11.174 311.453 11.1495C311.477 11.1251 311.51 11.1113 311.545 11.1113L312.711 11.1154C312.746 11.1154 312.779 11.1292 312.803 11.1536C312.828 11.1781 312.842 11.2113 312.842 11.2459V21.2764C312.842 21.311 312.828 21.3442 312.803 21.3686C312.779 21.3931 312.746 21.4069 312.711 21.4069L311.545 21.4028C311.51 21.4028 311.477 21.389 311.453 21.3646C311.428 21.3401 311.414 21.3069 311.414 21.2723V16.8442C311.414 16.8096 311.401 16.7764 311.376 16.7519C311.352 16.7275 311.319 16.7137 311.284 16.7137L308.585 16.7178C308.55 16.7178 308.517 16.7315 308.492 16.756C308.468 16.7805 308.454 16.8137 308.454 16.8483Z" fill="white"/>
<path d="M315.85 11.107L314.717 11.1169C314.638 11.1176 314.575 11.1821 314.575 11.2609L314.585 12.2965C314.585 12.3753 314.65 12.4386 314.728 12.438L315.862 12.4281C315.941 12.4274 316.004 12.3629 316.003 12.2841L315.994 11.2485C315.994 11.1697 315.929 11.1063 315.85 11.107Z" fill="white"/>
<path d="M325.47 14.6057C327.011 13.2928 328.598 14.357 328.569 16.1714C328.536 18.0878 328.531 19.7609 328.553 21.1908C328.555 21.3321 328.485 21.4028 328.341 21.4028L327.423 21.4069C327.287 21.4069 327.219 21.3389 327.219 21.203V16.1103C327.219 15.5748 326.962 15.2323 326.449 15.0828C326.18 15.0039 325.881 15.0909 325.552 15.3437C325.436 15.4312 325.343 15.5445 325.279 15.6746C325.214 15.8047 325.181 15.9483 325.181 16.094V21.203C325.181 21.3362 325.113 21.4041 324.977 21.4069H324.059C324.005 21.4069 323.953 21.3854 323.915 21.3471C323.877 21.3089 323.855 21.2571 323.855 21.203V11.3152C323.855 11.1793 323.923 11.1113 324.059 11.1113L325.079 11.1154C325.144 11.1154 325.177 11.148 325.177 11.2133L325.181 14.4711C325.181 14.7267 325.277 14.7715 325.47 14.6057Z" fill="white"/>
<path d="M371.374 21.0032C371.107 21.3484 370.773 21.5401 370.371 21.5781C369.09 21.7004 368.383 21.1214 368.25 19.8411C368.155 18.9115 368.129 17.9519 368.173 16.9625C368.222 15.8045 368.348 14.41 369.698 14.1082C370.307 13.9696 370.839 14.0987 371.296 14.4956C371.467 14.6451 371.553 14.6057 371.553 14.3774V11.3152C371.553 11.2611 371.575 11.2093 371.613 11.171C371.651 11.1328 371.703 11.1113 371.757 11.1113H372.674C372.81 11.1113 372.878 11.1793 372.878 11.3152V21.203C372.878 21.256 372.857 21.3068 372.818 21.3443C372.78 21.3817 372.728 21.4028 372.674 21.4028L371.842 21.4069C371.688 21.4069 371.582 21.3348 371.524 21.1908L371.455 21.0154C371.452 21.0074 371.446 21.0003 371.439 20.9948C371.432 20.9894 371.424 20.9859 371.416 20.9846C371.408 20.9834 371.399 20.9844 371.392 20.9877C371.384 20.991 371.378 20.9963 371.374 21.0032ZM371.558 16.0277C371.558 15.9051 371.535 15.7835 371.489 15.6699C371.443 15.5563 371.375 15.4529 371.289 15.3656C371.203 15.2783 371.1 15.2088 370.987 15.161C370.874 15.1133 370.753 15.0883 370.63 15.0875L370.459 15.0863C370.336 15.0854 370.215 15.1087 370.101 15.1549C369.988 15.201 369.884 15.2691 369.797 15.3552C369.71 15.4413 369.64 15.5437 369.592 15.6567C369.545 15.7696 369.52 15.8909 369.519 16.0135L369.493 19.6505C369.493 19.7731 369.516 19.8947 369.562 20.0083C369.608 20.1219 369.676 20.2253 369.762 20.3126C369.848 20.3999 369.951 20.4694 370.064 20.5172C370.177 20.5649 370.298 20.5899 370.421 20.5907L370.592 20.5919C370.715 20.5928 370.836 20.5695 370.95 20.5233C371.063 20.4772 371.167 20.4091 371.254 20.323C371.341 20.2369 371.411 20.1345 371.459 20.0215C371.506 19.9086 371.531 19.7873 371.532 19.6647L371.558 16.0277Z" fill="white"/>
<path d="M381.647 12.3631V21.2764C381.647 21.3121 381.632 21.3463 381.607 21.3715C381.582 21.3968 381.548 21.4109 381.512 21.4109L380.354 21.3987C380.318 21.3987 380.284 21.3845 380.259 21.3593C380.234 21.3341 380.22 21.2998 380.22 21.2641V12.3631C380.22 12.3274 380.205 12.2932 380.18 12.268C380.155 12.2427 380.121 12.2285 380.085 12.2285L378.01 12.2326C377.974 12.2326 377.94 12.2184 377.914 12.1932C377.889 12.168 377.875 12.1338 377.875 12.0981L377.879 11.2459C377.879 11.2282 377.883 11.2107 377.889 11.1944C377.896 11.1781 377.906 11.1632 377.919 11.1507C377.931 11.1382 377.946 11.1283 377.962 11.1216C377.978 11.1148 377.996 11.1113 378.014 11.1113H383.844C383.862 11.1113 383.88 11.1148 383.896 11.1216C383.912 11.1283 383.927 11.1382 383.939 11.1507C383.952 11.1632 383.962 11.1781 383.969 11.1944C383.975 11.2107 383.979 11.2282 383.979 11.2459L383.987 12.0981C383.987 12.1338 383.973 12.168 383.948 12.1932C383.922 12.2184 383.888 12.2326 383.853 12.2326L381.781 12.2285C381.745 12.2285 381.711 12.2427 381.686 12.268C381.661 12.2932 381.647 12.3274 381.647 12.3631Z" fill="white"/>
<path d="M440.099 11.1229L439.023 11.1079C438.926 11.1066 438.847 11.184 438.845 11.2808L438.832 12.2511C438.83 12.3479 438.908 12.4275 439.005 12.4289L440.081 12.4439C440.178 12.4453 440.257 12.3679 440.259 12.271L440.272 11.3007C440.274 11.2039 440.196 11.1243 440.099 11.1229Z" fill="white"/>
<path d="M475.971 11.1152H474.886C474.792 11.1152 474.715 11.1919 474.715 11.2865V12.2651C474.715 12.3597 474.792 12.4363 474.886 12.4363H475.971C476.065 12.4363 476.142 12.3597 476.142 12.2651V11.2865C476.142 11.1919 476.065 11.1152 475.971 11.1152Z" fill="white"/>
<path d="M484.85 11.1221L483.749 11.1106C483.661 11.1096 483.589 11.1801 483.588 11.2679L483.578 12.2709C483.577 12.3587 483.647 12.4306 483.735 12.4316L484.836 12.4431C484.924 12.444 484.996 12.3736 484.997 12.2858L485.007 11.2828C485.008 11.1949 484.938 11.123 484.85 11.1221Z" fill="white"/>
<path d="M494.054 11.1152H492.986C492.916 11.1152 492.859 11.1718 492.859 11.2416V21.2803C492.859 21.3501 492.916 21.4067 492.986 21.4067H494.054C494.124 21.4067 494.18 21.3501 494.18 21.2803V11.2416C494.18 11.1718 494.124 11.1152 494.054 11.1152Z" fill="white"/>
<path d="M238.934 15.5443V20.0009C238.934 20.1532 238.988 20.2823 239.097 20.3883C239.236 20.5242 239.402 20.5854 239.595 20.5718C239.823 20.5582 239.942 20.6642 239.953 20.8898L239.962 21.1304C239.966 21.2287 239.935 21.3253 239.876 21.403C239.816 21.4806 239.731 21.5343 239.635 21.5544C238.506 21.795 237.605 21.4362 237.609 20.217C237.609 18.7329 237.607 17.1793 237.605 15.5565C237.605 15.3717 237.512 15.2806 237.327 15.2833L236.899 15.2915C236.763 15.2942 236.695 15.2276 236.695 15.0917L236.691 14.4801C236.691 14.4278 236.712 14.3776 236.75 14.3402C236.787 14.3029 236.838 14.2814 236.891 14.2803L237.413 14.2721C237.552 14.2694 237.62 14.1987 237.617 14.0601L237.605 13.2242C237.602 13.053 237.681 12.9334 237.841 12.8654L238.665 12.5066C238.844 12.4278 238.934 12.4862 238.934 12.6819V14.0764C238.934 14.2178 239.005 14.2871 239.146 14.2844L239.741 14.2681C239.875 14.2653 239.942 14.3319 239.945 14.4679L239.949 15.0917C239.949 15.1183 239.944 15.1446 239.934 15.1691C239.923 15.1936 239.908 15.2158 239.889 15.2344C239.87 15.253 239.848 15.2677 239.823 15.2775C239.798 15.2873 239.772 15.292 239.745 15.2915L239.191 15.2874C239.123 15.2874 239.057 15.3145 239.009 15.3627C238.961 15.4108 238.934 15.4762 238.934 15.5443Z" fill="white"/>
<path d="M282.329 15.2717C282.207 15.3016 282.08 15.3111 281.95 15.3003C281.819 15.2867 281.754 15.2146 281.754 15.0842L281.746 14.4726C281.746 14.4454 281.751 14.4186 281.762 14.3936C281.772 14.3686 281.788 14.3459 281.807 14.3269C281.827 14.3079 281.85 14.293 281.875 14.283C281.9 14.273 281.927 14.2681 281.954 14.2687L282.451 14.285C282.596 14.2877 282.666 14.2184 282.664 14.077V13.2208C282.664 13.0441 282.744 12.9231 282.904 12.8579L283.777 12.5032C283.915 12.4461 283.986 12.4923 283.989 12.6418V14.0852C283.989 14.2293 284.061 14.2972 284.205 14.2891L284.796 14.2605C284.824 14.2588 284.851 14.263 284.877 14.2727C284.903 14.2824 284.927 14.2975 284.947 14.3171C284.967 14.3366 284.982 14.3602 284.993 14.3862C285.003 14.4123 285.009 14.4403 285.008 14.4685L284.992 15.1535C284.992 15.2541 284.941 15.303 284.841 15.3003L284.201 15.2799C284.059 15.2744 283.989 15.3438 283.989 15.4878V20.075C283.989 20.1374 284.002 20.1991 284.029 20.2556C284.056 20.312 284.095 20.3617 284.144 20.4011C284.293 20.5235 284.464 20.5792 284.657 20.5683C284.886 20.5547 285.001 20.6621 285.004 20.8904L285.008 21.1188C285.011 21.3988 284.875 21.5564 284.6 21.5918C283.528 21.7345 282.651 21.4246 282.655 20.2747C282.664 18.7335 282.669 17.1542 282.672 15.5368C282.672 15.303 282.558 15.2146 282.329 15.2717Z" fill="white"/>
<path d="M294.805 15.5443V20.0009C294.805 20.1532 294.861 20.2823 294.972 20.3883C295.108 20.5215 295.271 20.5826 295.462 20.5718C295.69 20.5582 295.811 20.6656 295.824 20.8939L295.837 21.1222C295.841 21.2194 295.811 21.3151 295.752 21.3926C295.694 21.4701 295.609 21.5244 295.515 21.5463C294.467 21.7746 293.472 21.4688 293.476 20.2986C293.484 18.5426 293.484 16.9592 293.476 15.5484C293.476 15.369 293.385 15.2806 293.203 15.2833L292.77 15.2915C292.635 15.2942 292.567 15.2276 292.567 15.0917L292.562 14.4801C292.562 14.3496 292.629 14.283 292.762 14.2803L293.284 14.2721C293.423 14.2694 293.492 14.1987 293.492 14.0601L293.476 13.2242C293.473 13.053 293.551 12.9334 293.708 12.8654L294.536 12.5066C294.715 12.4278 294.805 12.4862 294.805 12.6819V14.0764C294.805 14.2151 294.876 14.283 295.017 14.2803L295.612 14.2681C295.746 14.2653 295.814 14.3319 295.816 14.4679L295.82 15.0876C295.821 15.1146 295.816 15.1413 295.806 15.1663C295.796 15.1913 295.782 15.214 295.763 15.2331C295.744 15.2521 295.722 15.2671 295.698 15.2771C295.673 15.2872 295.647 15.2921 295.621 15.2915L295.062 15.2874C294.891 15.2874 294.805 15.373 294.805 15.5443Z" fill="white"/>
<path d="M425.582 15.5445V20.0052C425.582 20.1574 425.638 20.2825 425.75 20.3803C425.926 20.538 426.14 20.61 426.39 20.5964C426.528 20.5883 426.598 20.6535 426.598 20.7922L426.606 21.2121C426.607 21.2882 426.581 21.3624 426.534 21.4224C426.487 21.4825 426.42 21.5248 426.345 21.5424C425.293 21.7911 424.249 21.4935 424.253 20.2947C424.256 18.6583 424.259 17.0776 424.261 15.5526C424.264 15.3787 424.177 15.2903 424 15.2876L423.54 15.2835C423.409 15.2835 423.344 15.2169 423.344 15.0837L423.34 14.4803C423.34 14.3498 423.406 14.2832 423.54 14.2805L424.057 14.2764C424.196 14.2737 424.264 14.203 424.261 14.0644L424.257 13.2244C424.256 13.1498 424.277 13.0763 424.318 13.0132C424.358 12.9501 424.417 12.9002 424.486 12.8697L425.362 12.4946C425.509 12.432 425.582 12.481 425.582 12.6414V14.0725C425.582 14.2112 425.652 14.2791 425.79 14.2764L426.394 14.2723C426.42 14.2718 426.447 14.2766 426.472 14.2864C426.496 14.2961 426.519 14.3108 426.538 14.3294C426.557 14.348 426.572 14.3702 426.582 14.3947C426.592 14.4192 426.598 14.4455 426.598 14.4721L426.602 15.0878C426.602 15.1408 426.58 15.1916 426.542 15.2291C426.504 15.2666 426.452 15.2876 426.398 15.2876L425.839 15.2917C425.668 15.2917 425.582 15.376 425.582 15.5445Z" fill="white"/>
<path d="M435.062 14.0729V13.2207C435.062 13.1467 435.084 13.074 435.125 13.0117C435.166 12.9494 435.225 12.9002 435.294 12.87L436.171 12.4949C436.315 12.4324 436.387 12.4799 436.387 12.6376L436.383 14.0688C436.383 14.2074 436.452 14.2767 436.591 14.2767L437.203 14.2727C437.339 14.2699 437.406 14.3379 437.406 14.4765L437.402 15.0963C437.4 15.2322 437.33 15.2988 437.194 15.2961L436.595 15.2839C436.448 15.2811 436.375 15.3532 436.375 15.5C436.394 16.9869 436.394 18.4874 436.375 20.0015C436.375 20.1537 436.429 20.2828 436.538 20.3888C436.674 20.5138 436.833 20.5737 437.015 20.5682C437.238 20.5628 437.367 20.6701 437.402 20.8903L437.435 21.0861C437.476 21.3198 437.379 21.4653 437.146 21.5223C435.959 21.8078 435.037 21.4449 435.05 20.1931C435.066 18.5213 435.07 16.9529 435.062 15.4877C435.062 15.3464 434.993 15.2784 434.854 15.2839L434.352 15.292C434.214 15.2947 434.145 15.2281 434.145 15.0922L434.149 14.4724C434.149 14.3365 434.217 14.2699 434.352 14.2727L434.854 14.2808C434.995 14.2835 435.065 14.2142 435.062 14.0729Z" fill="white"/>
<path d="M17.7103 23.1413H8.83376C8.80923 23.1416 8.78525 23.1486 8.76441 23.1616C8.74357 23.1745 8.72666 23.1929 8.71551 23.2147L7.09269 26.3258C7.08154 26.3477 7.06463 26.3661 7.04379 26.379C7.02295 26.3919 6.99897 26.3989 6.97445 26.3992L4.9398 26.4033C4.91634 26.4034 4.89325 26.3974 4.87284 26.3858C4.85243 26.3742 4.8354 26.3575 4.82345 26.3373C4.81149 26.3171 4.80503 26.2941 4.8047 26.2706C4.80437 26.2472 4.81018 26.224 4.82156 26.2035L12.0386 13.0252C12.05 13.0047 12.0665 12.9876 12.0865 12.9754C12.1065 12.9632 12.1294 12.9565 12.1528 12.9559L14.5177 12.9478C14.5411 12.9484 14.564 12.9551 14.584 12.9672C14.604 12.9794 14.6205 12.9966 14.6319 13.0171L21.9876 26.2076C21.9989 26.2281 22.0048 26.2513 22.0044 26.2747C22.0041 26.2982 21.9976 26.3212 21.9857 26.3414C21.9737 26.3616 21.9567 26.3783 21.9363 26.3899C21.9159 26.4014 21.8928 26.4075 21.8693 26.4074L19.5615 26.3992C19.537 26.3989 19.513 26.3919 19.4921 26.379C19.4713 26.3661 19.4544 26.3477 19.4432 26.3258L17.8286 23.2147C17.8174 23.1929 17.8005 23.1745 17.7797 23.1616C17.7588 23.1486 17.7349 23.1416 17.7103 23.1413ZM9.86127 21.1108C9.8507 21.1315 9.84568 21.1546 9.84668 21.1778C9.84769 21.201 9.85469 21.2236 9.86701 21.2433C9.87933 21.263 9.89654 21.2792 9.91697 21.2903C9.93741 21.3013 9.96036 21.3069 9.9836 21.3065H16.589C16.6123 21.3069 16.6352 21.3013 16.6557 21.2903C16.6761 21.2792 16.6933 21.263 16.7056 21.2433C16.7179 21.2236 16.7249 21.201 16.726 21.1778C16.727 21.1546 16.7219 21.1315 16.7114 21.1108L13.4046 14.8397C13.393 14.8184 13.3759 14.8006 13.3551 14.7883C13.3343 14.7759 13.3105 14.7693 13.2863 14.7693C13.2621 14.7693 13.2383 14.7759 13.2175 14.7883C13.1967 14.8006 13.1796 14.8184 13.1681 14.8397L9.86127 21.1108Z" fill="white"/>
<path d="M27.4264 26.3992H25.3755C25.3531 26.399 25.3311 26.3931 25.3116 26.3819C25.2922 26.3708 25.2759 26.3548 25.2645 26.3355C25.253 26.3163 25.2467 26.2944 25.2461 26.272C25.2456 26.2496 25.2508 26.2274 25.2613 26.2076L32.4865 13.0212C32.4975 13.0004 32.514 12.983 32.5341 12.9708C32.5542 12.9586 32.5772 12.952 32.6007 12.9518L34.9656 12.9478C34.9887 12.9476 35.0115 12.9535 35.0315 12.9649C35.0516 12.9764 35.0682 12.993 35.0798 13.013L42.4314 26.2076C42.4419 26.2274 42.4471 26.2496 42.4466 26.272C42.446 26.2944 42.4397 26.3163 42.4282 26.3355C42.4168 26.3548 42.4005 26.3708 42.3811 26.3819C42.3616 26.3931 42.3396 26.399 42.3172 26.3992L40.0094 26.4033C39.9859 26.4031 39.9629 26.3966 39.9428 26.3844C39.9227 26.3722 39.9063 26.3548 39.8952 26.334L38.2643 23.2107C38.2532 23.1899 38.2368 23.1725 38.2167 23.1603C38.1966 23.1481 38.1736 23.1415 38.1501 23.1414H29.2776C29.2541 23.1415 29.2311 23.1481 29.211 23.1603C29.1909 23.1725 29.1744 23.1899 29.1634 23.2107L27.5406 26.3299C27.5296 26.3507 27.5132 26.3681 27.4931 26.3803C27.473 26.3925 27.4499 26.399 27.4264 26.3992ZM30.3092 21.1026C30.2979 21.1238 30.2923 21.1474 30.2929 21.1714C30.2935 21.1953 30.3003 21.2187 30.3126 21.2392C30.3249 21.2597 30.3424 21.2767 30.3632 21.2885C30.384 21.3003 30.4076 21.3065 30.4315 21.3065H37.0288C37.0527 21.3065 37.0763 21.3003 37.0971 21.2885C37.1179 21.2767 37.1354 21.2597 37.1477 21.2392C37.16 21.2187 37.1668 21.1953 37.1674 21.1714C37.168 21.1474 37.1624 21.1238 37.1511 21.1026L33.8525 14.8519C33.8406 14.8298 33.823 14.8112 33.8015 14.7983C33.7799 14.7854 33.7553 14.7785 33.7301 14.7785C33.705 14.7785 33.6804 14.7854 33.6588 14.7983C33.6373 14.8112 33.6196 14.8298 33.6078 14.8519L30.3092 21.1026Z" fill="white"/>
<path d="M49.9476 18.4483C52.8235 18.4564 55.6342 18.4564 58.3797 18.4483C59.7049 18.4442 61.1809 18.8764 61.2951 20.4177C61.3793 21.5349 61.397 22.7391 61.3481 24.0303C61.2856 25.6205 60.4089 26.4129 58.7181 26.4074C55.5975 26.3938 52.6088 26.3965 49.7519 26.4156C47.5419 26.4278 46.9955 24.7928 47.2116 22.9212C47.2198 22.8288 47.2687 22.7731 47.3584 22.754L49.2136 22.3218C49.2925 22.3028 49.3319 22.3341 49.3319 22.4156V24.2627C49.3319 24.3986 49.3998 24.4666 49.5358 24.4666H59.1177C59.1448 24.4666 59.1707 24.4558 59.1898 24.4367C59.2089 24.4176 59.2197 24.3917 59.2197 24.3646L59.2237 20.6011C59.2237 20.573 59.2126 20.5461 59.1927 20.5262C59.1728 20.5063 59.1458 20.4951 59.1177 20.4951C56.3994 20.4843 53.4936 20.4856 50.4002 20.4992C48.9649 20.5074 47.8599 19.9691 47.7458 18.3259C47.6696 17.1761 47.6724 16.0752 47.7539 15.0232C47.8762 13.5186 48.9282 12.9315 50.2942 12.9356C53.4202 12.9464 56.3002 12.9546 58.9342 12.96C60.6549 12.9641 61.2502 14.2648 61.2502 15.9284C61.2502 16.1241 61.1564 16.2492 60.9689 16.3035L59.5051 16.7154C59.3148 16.767 59.2197 16.6936 59.2197 16.4952L59.2237 14.9906C59.2237 14.852 59.1544 14.7826 59.0158 14.7826H49.9435C49.8755 14.7826 49.8416 14.8166 49.8416 14.8846V18.3422C49.8416 18.3704 49.8527 18.3973 49.8726 18.4172C49.8925 18.4371 49.9195 18.4483 49.9476 18.4483Z" fill="white"/>
<path d="M69.4069 20.5274L69.4109 26.2643C69.4109 26.3011 69.3963 26.3364 69.3703 26.3624C69.3443 26.3884 69.3091 26.403 69.2723 26.403L67.205 26.3989C67.1683 26.3989 67.133 26.3843 67.107 26.3583C67.081 26.3323 67.0664 26.297 67.0664 26.2603V13.0861C67.0664 13.0493 67.081 13.014 67.107 12.988C67.133 12.962 67.1683 12.9474 67.205 12.9474H69.2723C69.3091 12.9474 69.3443 12.962 69.3703 12.988C69.3963 13.014 69.4109 13.0493 69.4109 13.0861L69.4069 18.2114C69.4069 18.2296 69.4104 18.2476 69.4174 18.2645C69.4244 18.2813 69.4346 18.2966 69.4475 18.3094C69.4603 18.3223 69.4756 18.3325 69.4924 18.3395C69.5093 18.3465 69.5273 18.35 69.5455 18.35H79.7758C79.794 18.35 79.812 18.3465 79.8288 18.3395C79.8456 18.3325 79.8609 18.3223 79.8738 18.3094C79.8867 18.2966 79.8969 18.2813 79.9039 18.2645C79.9108 18.2476 79.9144 18.2296 79.9144 18.2114L79.9062 13.082C79.9062 13.0452 79.9209 13.01 79.9469 12.984C79.9728 12.958 80.0081 12.9434 80.0449 12.9434L82.1162 12.9515C82.153 12.9515 82.1883 12.9661 82.2143 12.9921C82.2403 13.0181 82.2549 13.0534 82.2549 13.0901V26.2562C82.2549 26.293 82.2403 26.3282 82.2143 26.3542C82.1883 26.3802 82.153 26.3948 82.1162 26.3948L80.049 26.4071C80.0122 26.4071 79.9769 26.3924 79.9509 26.3664C79.9249 26.3404 79.9103 26.3052 79.9103 26.2684L79.9144 20.5233C79.9144 20.4865 79.8998 20.4513 79.8738 20.4253C79.8478 20.3993 79.8125 20.3847 79.7758 20.3847L69.5455 20.3888C69.5087 20.3888 69.4735 20.4034 69.4475 20.4294C69.4215 20.4554 69.4069 20.4906 69.4069 20.5274Z" fill="white"/>
<path d="M111.307 24.1111C111.307 24.7178 111.066 25.2996 110.637 25.7286C110.208 26.1576 109.626 26.3986 109.019 26.3986H97.9124C97.3058 26.3986 96.724 26.1576 96.295 25.7286C95.866 25.2996 95.625 24.7178 95.625 24.1111V15.2386C95.625 14.6319 95.866 14.0501 96.295 13.6212C96.724 13.1922 97.3058 12.9512 97.9124 12.9512H109.019C109.626 12.9512 110.208 13.1922 110.637 13.6212C111.066 14.0501 111.307 14.6319 111.307 15.2386V24.1111ZM108.97 14.888C108.97 14.8598 108.959 14.8329 108.939 14.813C108.92 14.7931 108.893 14.7819 108.864 14.7819H98.0674C98.0393 14.7819 98.0123 14.7931 97.9924 14.813C97.9725 14.8329 97.9614 14.8598 97.9614 14.888V24.3639C97.9614 24.392 97.9725 24.419 97.9924 24.4389C98.0123 24.4588 98.0393 24.4699 98.0674 24.4699H108.864C108.893 24.4699 108.92 24.4588 108.939 24.4389C108.959 24.419 108.97 24.392 108.97 24.3639V14.888Z" fill="white"/>
<path d="M153.399 14.7079C154.397 13.8027 155.35 13.8299 156.258 14.7895C156.361 14.9009 156.474 14.9104 156.596 14.818C156.789 14.6685 156.983 14.5244 157.179 14.3858C157.982 13.8109 159.169 14.0351 159.646 14.8139C159.861 15.1673 159.965 15.6022 159.96 16.1187C159.938 17.9046 159.934 19.628 159.948 21.2889C159.948 21.365 159.91 21.4031 159.833 21.4031H158.72C158.652 21.4031 158.618 21.3705 158.618 21.3052V16.1676C158.618 15.5153 158.295 15.1483 157.648 15.0667C157.545 15.0531 157.445 15.0681 157.35 15.1116C156.837 15.3399 156.58 15.7354 156.58 16.2981V21.3052C156.58 21.3732 156.546 21.4072 156.478 21.4072L155.356 21.4031C155.288 21.4031 155.255 21.3705 155.255 21.3052V16.1391C155.255 15.4541 154.913 15.0939 154.231 15.0586C153.848 15.0368 153.524 15.4459 153.261 16.2859C153.231 16.3832 153.216 16.4835 153.216 16.5835V21.2033C153.216 21.3392 153.148 21.4072 153.012 21.4072H152.094C151.959 21.4072 151.891 21.3392 151.891 21.2033V14.4755C151.891 14.3423 151.959 14.2757 152.094 14.2757L153.024 14.2716C153.144 14.2716 153.208 14.3328 153.216 14.4551C153.216 14.4959 153.212 14.5394 153.204 14.5856C153.146 14.8357 153.212 14.8765 153.399 14.7079Z" fill="white"/>
<path d="M162.475 18.6066L162.487 19.7361C162.488 19.9163 162.547 20.0915 162.654 20.2366C162.761 20.3817 162.911 20.4891 163.083 20.5434C163.947 20.8207 164.559 20.3721 164.522 19.4629C164.521 19.4372 164.525 19.4116 164.534 19.3876C164.543 19.3636 164.557 19.3418 164.575 19.3235C164.593 19.3051 164.615 19.2906 164.639 19.281C164.662 19.2713 164.688 19.2666 164.714 19.2672L165.574 19.2712C165.756 19.274 165.85 19.3664 165.855 19.5485C165.882 20.769 165.254 21.4499 163.971 21.5913C162.153 21.7952 161.223 21.0205 161.183 19.2672C161.134 17.0083 160.538 13.3426 164.379 14.2071C166.002 14.5699 165.941 16.7351 165.831 18.0969C165.817 18.2655 165.726 18.3497 165.558 18.3497H162.732C162.558 18.3497 162.472 18.4354 162.475 18.6066ZM162.585 17.3222L164.404 17.3385C164.433 17.3385 164.461 17.3269 164.482 17.3063C164.502 17.2856 164.514 17.2576 164.514 17.2284L164.522 16.2906C164.523 16.1325 164.501 15.9757 164.456 15.8292C164.411 15.6827 164.345 15.5494 164.261 15.437C164.177 15.3245 164.077 15.235 163.966 15.1737C163.855 15.1124 163.737 15.0804 163.617 15.0796H163.405C163.163 15.078 162.93 15.2029 162.757 15.4269C162.584 15.6509 162.486 15.9557 162.483 16.2743L162.475 17.2121C162.475 17.2413 162.487 17.2693 162.507 17.29C162.528 17.3106 162.556 17.3222 162.585 17.3222Z" fill="white"/>
<path d="M177.545 20.2245C177.665 19.9309 177.704 19.6197 177.663 19.2908C177.661 19.2759 177.662 19.2608 177.666 19.2463C177.671 19.2318 177.678 19.2184 177.688 19.2068C177.698 19.1952 177.71 19.1858 177.725 19.1792C177.739 19.1726 177.754 19.1689 177.769 19.1685L178.801 19.1644C178.902 19.1644 178.959 19.216 178.972 19.3193C179.319 22.3285 174.662 22.4467 174.532 19.6088C174.478 18.4264 174.479 17.2684 174.536 16.1349C174.604 14.7839 175.334 14.0934 176.726 14.0635C178.278 14.0309 178.991 14.7839 178.866 16.3224C178.861 16.3795 178.83 16.408 178.772 16.408H177.663C177.579 16.408 177.542 16.3673 177.553 16.2857C177.67 15.4403 177.355 15.0407 176.607 15.087C176.402 15.1003 176.21 15.1908 176.069 15.3405C175.927 15.4902 175.847 15.6879 175.845 15.8943C175.826 17.1066 175.82 18.3625 175.829 19.6618C175.833 20.4447 176.461 20.7668 177.199 20.5426C177.364 20.4909 177.48 20.3849 177.545 20.2245Z" fill="white"/>
<path d="M183.594 20.995C183.292 21.3619 182.902 21.5631 182.424 21.5984C181.176 21.6963 180.509 21.0915 180.422 19.784C180.267 17.5332 181.686 16.9705 183.549 17.0358C183.712 17.0412 183.794 16.961 183.794 16.7952C183.794 16.098 183.896 15.2539 182.974 15.0908C182.358 14.9807 181.934 15.5516 181.934 16.1102C181.934 16.2434 181.868 16.31 181.735 16.31H180.809C180.657 16.31 180.588 16.2339 180.601 16.0816C180.737 14.7578 181.478 14.0891 182.823 14.0756C184.359 14.0565 185.124 14.8 185.119 16.3059C185.111 17.9396 185.1 19.5515 185.086 21.1417C185.084 21.3157 184.997 21.4027 184.825 21.4027L184.022 21.4068C183.972 21.4081 183.924 21.393 183.882 21.3637C183.841 21.3343 183.81 21.2923 183.794 21.2437C183.775 21.1839 183.767 21.1241 183.769 21.0643C183.775 20.8713 183.716 20.8482 183.594 20.995ZM182.693 20.6035C183.777 20.5424 183.863 19.0459 183.769 18.2101C183.753 18.0905 183.685 18.0266 183.565 18.0184C182.467 17.9641 181.841 18.4574 181.686 19.4985C181.665 19.6401 181.676 19.7844 181.718 19.9212C181.76 20.058 181.831 20.1838 181.928 20.2895C182.024 20.3952 182.143 20.4782 182.275 20.5325C182.407 20.5868 182.55 20.6111 182.693 20.6035Z" fill="white"/>
<path d="M188.32 14.585C189.503 13.4677 191.321 14.112 191.33 15.8816C191.335 17.6512 191.335 19.4548 191.33 21.2923C191.33 21.3657 191.293 21.4024 191.219 21.4024H190.11C190.042 21.4024 190.008 21.3698 190.008 21.3046V16.1507C190.008 15.4929 189.681 15.1313 189.026 15.0661C188.681 15.0335 188.367 15.2944 188.084 15.849C188.009 15.991 187.97 16.1491 187.97 16.3097V21.3046C187.97 21.3698 187.936 21.4024 187.868 21.4024H186.746C186.679 21.4024 186.645 21.3698 186.645 21.3046V14.5564C186.645 14.4096 186.717 14.3199 186.861 14.2873C187.418 14.1595 187.815 14.2506 188.051 14.5605C188.133 14.6692 188.222 14.6774 188.32 14.585Z" fill="white"/>
<path d="M205.952 15.1117C205.283 15.6785 205.609 16.4328 206.221 16.8243C207.399 17.5745 209.034 18.6387 208.431 20.2656C207.66 22.3329 203.982 22.129 204.056 19.4787C204.057 19.422 204.08 19.3681 204.122 19.3285C204.163 19.2888 204.218 19.2666 204.276 19.2666H205.112C205.324 19.2694 205.416 19.3754 205.389 19.5847C205.356 19.8348 205.407 20.074 205.54 20.3023C205.618 20.4338 205.734 20.5384 205.872 20.6018C206.011 20.6653 206.165 20.6845 206.315 20.657C207.522 20.4287 207.509 19.2707 206.686 18.708C205.405 17.8314 203.387 16.5796 204.676 14.7652C205.14 14.1087 206.196 13.9945 206.934 14.1087C208.008 14.2745 208.516 14.9174 208.459 16.0373C208.449 16.2194 208.352 16.3105 208.17 16.3105H207.342C207.146 16.3105 207.073 16.2167 207.122 16.0292C207.206 15.7084 207.096 15.408 206.792 15.128C206.677 15.0233 206.529 14.9638 206.374 14.9608C206.219 14.9578 206.069 15.0115 205.952 15.1117Z" fill="white"/>
<path d="M212.407 15.1596C212.137 15.0318 211.876 15.0223 211.624 15.1311C211.493 15.1869 211.382 15.2779 211.302 15.3949C211.221 15.5119 211.174 15.6508 211.166 15.7975C211.157 15.9443 211.187 16.0938 211.252 16.2309C211.318 16.368 211.416 16.4879 211.538 16.5786C212.533 17.3206 214.351 18.3074 214.144 19.7957C213.777 22.4134 209.422 22.2095 209.675 19.5102C209.691 19.3471 209.781 19.2656 209.944 19.2656H210.792C210.969 19.2683 211.038 19.3553 211 19.5265C210.967 19.6706 210.981 19.8595 211.041 20.0933C211.081 20.2428 211.167 20.357 211.297 20.4358C212.549 21.1901 213.446 19.6448 212.382 18.8048C211.379 18.0138 209.728 17.1698 209.883 15.6774C210.119 13.4389 214.303 13.4063 214.046 16.077C214.029 16.232 213.944 16.3094 213.789 16.3094H212.933C212.799 16.3094 212.731 16.2415 212.729 16.1056V15.6652C212.726 15.4287 212.619 15.2602 212.407 15.1596Z" fill="white"/>
<path d="M220.27 19.467C220.269 20.0359 220.042 20.581 219.639 20.9825C219.236 21.384 218.69 21.609 218.122 21.608L217.746 21.6074C217.465 21.6069 217.186 21.5509 216.926 21.4427C216.666 21.3344 216.43 21.176 216.231 20.9765C216.032 20.777 215.875 20.5403 215.767 20.2799C215.66 20.0195 215.605 19.7405 215.605 19.4589L215.611 16.2132C215.612 15.6444 215.839 15.0993 216.242 14.6978C216.645 14.2963 217.191 14.0713 217.76 14.0723L218.135 14.0729C218.416 14.0734 218.695 14.1294 218.955 14.2376C219.215 14.3459 219.451 14.5042 219.65 14.7038C219.849 14.9033 220.007 15.14 220.114 15.4004C220.221 15.6608 220.276 15.9398 220.276 16.2214L220.27 19.467ZM218.943 16.0682C218.943 15.813 218.842 15.5681 218.662 15.3873C218.482 15.2065 218.237 15.1047 217.982 15.1043L217.892 15.1041C217.766 15.1039 217.641 15.1285 217.524 15.1767C217.407 15.2249 217.301 15.2955 217.211 15.3847C217.122 15.474 217.051 15.5799 217.002 15.6966C216.954 15.8132 216.929 15.9383 216.928 16.0647L216.922 19.6365C216.922 19.8917 217.023 20.1367 217.203 20.3174C217.383 20.4982 217.628 20.6 217.883 20.6005L217.972 20.6007C218.099 20.6009 218.224 20.5762 218.341 20.5281C218.458 20.4799 218.564 20.4092 218.653 20.32C218.743 20.2308 218.814 20.1248 218.863 20.0082C218.911 19.8915 218.936 19.7664 218.936 19.6401L218.943 16.0682Z" fill="white"/>
<path d="M224.334 20.5913C224.986 20.473 225.015 19.7799 224.974 19.2661C224.969 19.2009 225 19.1683 225.068 19.1683L226.181 19.1723C226.241 19.1723 226.274 19.2009 226.279 19.258C226.401 20.6878 225.777 21.4693 224.407 21.6025C221.023 21.9328 221.83 18.1734 221.843 16.2162C221.848 14.8244 222.596 14.1068 224.085 14.0633C225.561 14.0198 226.263 14.7674 226.189 16.3059C226.187 16.3739 226.15 16.4078 226.079 16.4078H224.97C224.886 16.4078 224.85 16.3657 224.864 16.2814C224.978 15.4333 224.659 15.0365 223.906 15.0908C223.702 15.1051 223.51 15.1957 223.37 15.3445C223.229 15.4933 223.15 15.6895 223.147 15.8941C223.137 17.0249 223.13 18.2454 223.127 19.5556C223.123 20.2855 223.547 20.7299 224.334 20.5913Z" fill="white"/>
<path d="M233.858 20.9141L233.585 21.2607C233.49 21.3803 233.369 21.4578 233.222 21.4931C231.675 21.871 230.834 21.311 230.698 19.8132C230.498 17.6114 231.966 16.9142 233.813 17.0406C233.971 17.0514 234.05 16.9781 234.05 16.8204L234.046 15.9315C234.044 15.7927 234.01 15.6562 233.946 15.5333C233.881 15.4105 233.788 15.3049 233.675 15.2254C233.561 15.146 233.431 15.0949 233.294 15.0766C233.157 15.0583 233.017 15.0732 232.888 15.1201C232.412 15.2886 232.182 15.6475 232.198 16.1965C232.198 16.2672 232.163 16.3026 232.092 16.3026L230.983 16.3107C230.969 16.3107 230.954 16.3077 230.94 16.302C230.927 16.2962 230.914 16.2877 230.904 16.277C230.894 16.2664 230.886 16.2538 230.88 16.2399C230.875 16.2261 230.873 16.2113 230.873 16.1965C230.958 14.8184 231.681 14.1116 233.042 14.0763C234.619 14.0355 235.398 14.7871 235.379 16.3311C235.36 17.9349 235.36 19.5332 235.379 21.1262C235.382 21.3056 235.293 21.3966 235.114 21.3994L234.359 21.4116C234.294 21.4126 234.23 21.3941 234.176 21.3585C234.121 21.3229 234.079 21.2718 234.054 21.2118L233.939 20.9264C233.936 20.9189 233.931 20.9123 233.924 20.9074C233.918 20.9024 233.91 20.8991 233.902 20.8979C233.894 20.8967 233.886 20.8976 233.878 20.9004C233.87 20.9032 233.863 20.9079 233.858 20.9141ZM232.712 20.592C234.025 20.7225 234.152 19.1772 234.041 18.2149C234.028 18.0844 233.954 18.0178 233.821 18.0151C232.544 18.0096 231.932 18.6117 231.986 19.8214C231.994 20.0157 232.072 20.2007 232.205 20.3423C232.339 20.4839 232.519 20.5725 232.712 20.592Z" fill="white"/>
<path d="M249.122 19.47C249.121 20.0366 248.895 20.5797 248.493 20.9797C248.092 21.3796 247.548 21.6038 246.981 21.6028L246.59 21.6021C246.309 21.6016 246.032 21.5459 245.773 21.4381C245.514 21.3302 245.278 21.1724 245.08 20.9737C244.882 20.775 244.725 20.5391 244.618 20.2797C244.511 20.0203 244.457 19.7424 244.457 19.4618L244.463 16.208C244.464 15.6414 244.69 15.0983 245.091 14.6983C245.493 14.2984 246.036 14.0742 246.603 14.0752L246.994 14.0759C247.275 14.0764 247.553 14.1321 247.812 14.2399C248.071 14.3478 248.306 14.5056 248.504 14.7043C248.702 14.903 248.859 15.1389 248.966 15.3983C249.073 15.6577 249.128 15.9356 249.127 16.2162L249.122 19.47ZM247.79 16.0711C247.791 15.8149 247.689 15.5689 247.508 15.3874C247.327 15.2058 247.082 15.1036 246.826 15.1031L246.744 15.103C246.617 15.1027 246.491 15.1275 246.374 15.1759C246.257 15.2242 246.15 15.2952 246.06 15.3848C245.97 15.4744 245.899 15.5808 245.85 15.6979C245.801 15.8151 245.776 15.9407 245.776 16.0676L245.77 19.6313C245.769 19.8876 245.871 20.1336 246.052 20.3151C246.232 20.4966 246.478 20.5989 246.734 20.5993L246.816 20.5995C246.943 20.5997 247.069 20.575 247.186 20.5266C247.303 20.4782 247.41 20.4072 247.5 20.3177C247.59 20.2281 247.661 20.1217 247.71 20.0045C247.759 19.8874 247.784 19.7617 247.784 19.6348L247.79 16.0711Z" fill="white"/>
<path d="M252.316 14.5931C252.762 14.1202 253.356 13.9625 254.098 14.1202C255.072 14.3281 255.362 15.111 255.35 16.0366C255.325 17.7899 255.324 19.5377 255.346 21.2801C255.346 21.3617 255.305 21.4025 255.223 21.4025H254.114C254.046 21.4025 254.012 21.3698 254.012 21.3046V16.1466C254.012 15.4888 253.685 15.13 253.03 15.0702C252.66 15.0349 252.339 15.3407 252.067 15.9876C252.005 16.1301 251.974 16.2842 251.974 16.4402V21.3046C251.971 21.3698 251.937 21.4025 251.872 21.4025H250.75C250.682 21.4025 250.648 21.3698 250.648 21.3046V14.5564C250.648 14.4097 250.719 14.3199 250.86 14.2873C251.426 14.1541 251.828 14.2506 252.067 14.5768C252.143 14.6801 252.226 14.6856 252.316 14.5931Z" fill="white"/>
<path d="M265.016 19.47C265.015 20.0366 264.789 20.5797 264.388 20.9797C263.986 21.3796 263.442 21.6038 262.876 21.6028L262.484 21.6021C262.204 21.6016 261.926 21.5459 261.667 21.4381C261.408 21.3302 261.173 21.1724 260.975 20.9737C260.777 20.775 260.62 20.5391 260.513 20.2797C260.406 20.0203 260.351 19.7424 260.352 19.4618L260.357 16.208C260.358 15.6414 260.584 15.0983 260.986 14.6983C261.387 14.2984 261.931 14.0742 262.498 14.0752L262.889 14.0759C263.17 14.0764 263.447 14.1321 263.706 14.2399C263.965 14.3478 264.201 14.5056 264.399 14.7043C264.597 14.903 264.754 15.1389 264.861 15.3983C264.968 15.6577 265.022 15.9356 265.022 16.2162L265.016 19.47ZM263.682 16.0694C263.682 15.8142 263.58 15.5694 263.4 15.389C263.219 15.2085 262.975 15.1071 262.719 15.1071H262.63C262.374 15.1071 262.13 15.2085 261.949 15.389C261.769 15.5694 261.667 15.8142 261.667 16.0694V19.6331C261.667 19.8883 261.769 20.133 261.949 20.3135C262.13 20.494 262.374 20.5953 262.63 20.5953H262.719C262.975 20.5953 263.219 20.494 263.4 20.3135C263.58 20.133 263.682 19.8883 263.682 19.6331V16.0694Z" fill="white"/>
<path d="M289.652 20.991L289.464 21.2316C289.356 21.3729 289.214 21.464 289.04 21.5047C287.523 21.8608 286.697 21.2981 286.561 19.8167C286.361 17.5986 287.837 16.9176 289.689 17.0399C289.838 17.0508 289.916 16.9815 289.921 16.832C289.94 16.4786 289.924 16.1388 289.872 15.8126C289.851 15.6787 289.8 15.5514 289.722 15.4405C289.644 15.3297 289.541 15.2384 289.422 15.1737C289.304 15.109 289.172 15.0726 289.037 15.0674C288.902 15.0623 288.768 15.0885 288.645 15.1439C288.248 15.3206 288.053 15.6754 288.062 16.2081C288.062 16.2707 288.03 16.3019 287.968 16.3019L286.851 16.3101C286.777 16.3101 286.742 16.2747 286.745 16.2041C286.851 13.2561 291.279 13.3336 291.246 16.1837C291.224 18.0539 291.226 19.6971 291.25 21.1133C291.256 21.3009 291.163 21.396 290.973 21.3987L290.206 21.411C290.14 21.4123 290.076 21.392 290.021 21.3532C289.967 21.3143 289.926 21.2589 289.905 21.1948L289.852 21.0277C289.846 21.0076 289.834 20.9895 289.818 20.9755C289.803 20.9615 289.784 20.9521 289.763 20.9483C289.742 20.9445 289.721 20.9465 289.701 20.954C289.682 20.9616 289.665 20.9743 289.652 20.991ZM288.388 20.5506C289.831 20.8931 290.023 19.2581 289.913 18.2346C289.896 18.0878 289.814 18.0131 289.664 18.0104C288.347 18.0022 287.43 18.9604 287.984 20.2163C288.063 20.393 288.198 20.5044 288.388 20.5506Z" fill="white"/>
<path d="M298.563 18.606L298.575 19.7477C298.577 19.927 298.636 20.1014 298.744 20.2452C298.853 20.389 299.005 20.4947 299.178 20.5469C299.884 20.7589 300.691 20.4449 300.618 19.5723C300.602 19.3685 300.697 19.2665 300.903 19.2665L301.662 19.2706C301.833 19.2706 301.924 19.3549 301.935 19.5234C302.029 21.1952 300.695 21.7212 299.293 21.6192C298.029 21.5241 297.357 20.8105 297.278 19.4786C297.216 18.3777 297.215 17.3162 297.274 16.2941C297.367 14.7066 298.231 13.9713 299.868 14.0882C302.192 14.2513 301.939 16.4286 301.939 18.1208C301.938 18.1817 301.913 18.2398 301.869 18.2825C301.826 18.3252 301.767 18.3491 301.706 18.3491H298.82C298.646 18.3491 298.56 18.4347 298.563 18.606ZM298.706 17.3379L300.459 17.3542C300.499 17.3542 300.537 17.3383 300.565 17.31C300.594 17.2817 300.61 17.2434 300.61 17.2034L300.618 16.3226C300.619 16.1601 300.597 15.9989 300.552 15.8484C300.507 15.6978 300.441 15.5608 300.357 15.4453C300.273 15.3298 300.173 15.2379 300.062 15.1751C299.952 15.1122 299.833 15.0796 299.713 15.079H299.484C299.243 15.0778 299.01 15.2064 298.837 15.4364C298.664 15.6665 298.566 15.9793 298.563 16.3063L298.555 17.187C298.555 17.2271 298.571 17.2654 298.599 17.2937C298.627 17.322 298.665 17.3379 298.706 17.3379Z" fill="white"/>
<path d="M320.871 20.9096C320.863 20.8417 320.83 20.8267 320.773 20.8648C319.58 21.6803 318.635 21.6191 317.939 20.6813C317.254 19.7557 317.539 17.0931 317.539 15.8944C317.535 14.2308 319.37 13.5091 320.557 14.4958C320.638 14.5638 320.721 14.5651 320.805 14.4999C321.143 14.2389 321.557 14.171 322.049 14.296C322.169 14.3286 322.228 14.4061 322.228 14.5284C322.207 16.665 322.208 18.9987 322.233 21.5294C322.249 23.1889 321.666 24.3265 319.762 24.2572C318.389 24.2055 317.712 23.5246 317.731 22.2144C317.734 22.0214 317.832 21.9235 318.025 21.9208L318.653 21.9127C318.689 21.9117 318.725 21.9198 318.758 21.9361C318.791 21.9524 318.819 21.9765 318.841 22.0063C318.862 22.036 318.876 22.0706 318.88 22.1068C318.885 22.1431 318.881 22.18 318.869 22.2144C318.784 22.4455 318.809 22.6548 318.942 22.8423C319.32 23.3642 319.917 23.4118 320.732 22.985C320.748 22.9769 320.758 22.9633 320.761 22.9443C320.91 22.2701 320.947 21.5919 320.871 20.9096ZM320.886 16.096C320.886 15.9643 320.86 15.8338 320.81 15.7121C320.76 15.5903 320.686 15.4796 320.593 15.3863C320.5 15.293 320.39 15.2189 320.268 15.1683C320.147 15.1176 320.016 15.0915 319.885 15.0912L319.754 15.091C319.622 15.0908 319.492 15.1165 319.37 15.1667C319.248 15.2169 319.138 15.2906 319.044 15.3835C318.951 15.4765 318.877 15.587 318.826 15.7086C318.776 15.8302 318.749 15.9606 318.749 16.0923L318.743 19.395C318.743 19.5267 318.769 19.6572 318.819 19.779C318.869 19.9008 318.943 20.0115 319.036 20.1048C319.129 20.1981 319.239 20.2722 319.361 20.3228C319.483 20.3734 319.613 20.3996 319.745 20.3998L319.875 20.4001C320.007 20.4003 320.137 20.3746 320.259 20.3244C320.381 20.2742 320.492 20.2005 320.585 20.1075C320.678 20.0145 320.752 19.9041 320.803 19.7825C320.854 19.6609 320.88 19.5305 320.88 19.3988L320.886 16.096Z" fill="white"/>
<path d="M343.065 20.9458L342.845 21.2108C342.739 21.3431 342.593 21.4363 342.429 21.4759C340.82 21.8863 339.964 21.2951 339.86 19.7022C339.722 17.5126 341.226 16.954 343.004 17.0274C343.156 17.0355 343.235 16.9635 343.241 16.8113C343.261 16.0814 343.314 15.1599 342.327 15.0784C341.712 15.0294 341.357 15.6655 341.369 16.2078C341.369 16.273 341.336 16.3057 341.271 16.3057H340.166C340.101 16.3057 340.068 16.273 340.068 16.2078C340.068 13.3414 344.468 13.4066 344.521 15.8531C344.554 17.5493 344.559 19.3094 344.537 21.1334C344.535 21.3128 344.445 21.4025 344.268 21.4025L343.51 21.4065C343.368 21.4065 343.277 21.3399 343.237 21.2067C343.22 21.1551 343.213 21.1035 343.216 21.0518C343.227 20.8452 343.177 20.8099 343.065 20.9458ZM342.062 20.6033C343.232 20.6155 343.33 19.0131 343.2 18.165C343.195 18.1295 343.179 18.0968 343.153 18.0722C343.126 18.0477 343.093 18.0329 343.057 18.0304C341.875 17.957 341.236 18.4749 341.141 19.5839C341.13 19.7124 341.145 19.8418 341.186 19.9641C341.227 20.0863 341.293 20.1988 341.379 20.2945C341.466 20.3901 341.571 20.4669 341.689 20.5201C341.806 20.5732 341.933 20.6015 342.062 20.6033Z" fill="white"/>
<path d="M358.902 21.0443C358.058 21.9658 356.289 21.8109 355.893 20.4816C355.559 19.3685 355.746 17.766 356.965 17.3216C357.569 17.1041 358.214 17.0076 358.902 17.0321C359.073 17.0375 359.151 16.956 359.135 16.7875C359.116 16.5346 359.111 16.2805 359.122 16.025C359.175 14.8058 357.271 14.712 357.275 16.1269C357.275 16.2492 357.214 16.3104 357.092 16.3104H356.146C356.021 16.3104 355.96 16.2492 355.962 16.1269C355.987 13.395 360.366 13.3746 360.415 15.8863C360.45 17.5635 360.457 19.325 360.435 21.1707C360.433 21.3718 360.332 21.4561 360.134 21.4235C359.916 21.3882 359.696 21.3882 359.473 21.4235C359.31 21.4507 359.2 21.3868 359.143 21.2319C359.129 21.1911 359.118 21.1503 359.11 21.1095C359.086 20.9383 359.016 20.9165 358.902 21.0443ZM357.956 20.6039C359.126 20.6202 359.224 19.0097 359.102 18.1656C359.096 18.1288 359.078 18.0949 359.051 18.0697C359.024 18.0444 358.988 18.0294 358.951 18.027C357.777 17.9563 357.138 18.4742 357.035 19.5805C357.023 19.7089 357.038 19.8384 357.079 19.9608C357.119 20.0833 357.185 20.1961 357.271 20.2921C357.358 20.3882 357.463 20.4654 357.581 20.5191C357.699 20.5727 357.827 20.6016 357.956 20.6039Z" fill="white"/>
<path d="M363.616 14.5937C364.864 13.4969 366.646 14.0841 366.654 15.8863C366.659 17.6559 366.659 19.4581 366.654 21.293C366.654 21.3691 366.617 21.4058 366.544 21.4031H365.435C365.367 21.4031 365.333 21.3704 365.333 21.3052V16.1472C365.333 15.4921 365.008 15.1306 364.358 15.0626C363.959 15.0192 363.619 15.378 363.339 16.1391C363.309 16.2173 363.294 16.3016 363.294 16.3878V21.3052C363.294 21.3704 363.26 21.4031 363.192 21.4031H362.071C362.003 21.4031 361.969 21.3704 361.969 21.3052V14.5652C361.969 14.413 362.042 14.3192 362.189 14.2839C362.743 14.1561 363.142 14.2526 363.384 14.5734C363.452 14.6631 363.529 14.6698 363.616 14.5937Z" fill="white"/>
<path d="M386.041 14.9746C386.351 14.5369 386.764 14.2596 387.281 14.1428C387.463 14.102 387.554 14.1754 387.554 14.3629L387.558 15.1132C387.558 15.2056 387.523 15.2945 387.459 15.3613C387.395 15.4282 387.308 15.4678 387.216 15.472C386.319 15.5128 385.861 16.0157 385.841 16.9807C385.814 18.3588 385.812 19.7941 385.833 21.2864C385.833 21.3653 385.794 21.4047 385.715 21.4047H384.602C384.534 21.4047 384.5 21.3721 384.5 21.3068V14.4771C384.5 14.3412 384.568 14.2732 384.704 14.2732L385.715 14.2814C385.802 14.2841 385.839 14.3276 385.825 14.4119C385.798 14.5831 385.799 14.7544 385.829 14.9256C385.833 14.9485 385.844 14.9696 385.86 14.9864C385.876 15.0032 385.896 15.015 385.919 15.0202C385.942 15.0254 385.965 15.0239 385.987 15.0157C386.009 15.0076 386.028 14.9933 386.041 14.9746Z" fill="white"/>
<path d="M391.887 21.0564C390.803 21.9738 389.041 21.8311 388.743 20.2042C388.319 17.9127 389.632 16.9382 391.769 17.0442C391.916 17.0524 392.003 16.9844 392.03 16.8404C392.442 14.7649 390.219 14.4714 390.183 16.2002C390.18 16.2736 390.143 16.3103 390.073 16.3103L388.943 16.2981C388.9 16.2981 388.878 16.2763 388.878 16.2328C388.927 14.8764 389.619 14.1601 390.953 14.084C393.538 13.9372 393.481 15.8781 393.388 17.8964C393.339 19.0055 393.339 20.0697 393.388 21.089C393.399 21.2984 393.299 21.403 393.09 21.403L392.442 21.4071C392.327 21.4071 392.224 21.3758 392.132 21.3133C392.058 21.2644 392.027 21.2086 392.038 21.1461C392.068 20.9776 392.018 20.9477 391.887 21.0564ZM390.929 20.6079C392.062 20.4774 392.14 19.1604 392.058 18.2552C392.045 18.1112 391.966 18.035 391.822 18.0269C389.596 17.9046 389.481 20.771 390.929 20.6079Z" fill="white"/>
<path d="M396.428 14.6839C396.645 14.4094 396.913 14.2341 397.231 14.158C398.54 13.8399 399.588 14.4434 399.588 15.793C399.585 17.7665 399.582 19.5986 399.58 21.2894C399.58 21.3655 399.541 21.4036 399.465 21.4036L398.462 21.4076C398.326 21.4076 398.258 21.3397 398.258 21.2038V16.1396C398.258 15.4546 397.916 15.0944 397.231 15.0591C397.177 15.0563 397.124 15.0631 397.072 15.0795C396.825 15.1588 396.61 15.3133 396.458 15.5207C396.305 15.7281 396.224 15.9776 396.224 16.2334C396.218 17.9296 396.217 19.5891 396.22 21.2119C396.22 21.3397 396.154 21.4049 396.024 21.4076H395.098C394.962 21.4076 394.895 21.3397 394.895 21.2038V14.5616C394.895 14.4957 394.918 14.432 394.959 14.3808C395.001 14.3297 395.058 14.2942 395.123 14.2803C395.756 14.1471 396.148 14.2748 396.297 14.6636C396.33 14.7451 396.373 14.7519 396.428 14.6839Z" fill="white"/>
<path d="M402.744 15.1971C402.634 15.2693 402.545 15.3686 402.486 15.4868C402.426 15.6049 402.397 15.7383 402.401 15.8756C402.405 16.0129 402.442 16.1501 402.509 16.2754C402.576 16.4008 402.67 16.5106 402.785 16.5956C403.776 17.3255 405.59 18.3122 405.378 19.7964C405.011 22.4182 400.653 22.2062 400.914 19.511C400.927 19.3479 401.017 19.2664 401.183 19.2664L402.023 19.2704C402.202 19.2704 402.273 19.3561 402.235 19.5273C402.202 19.6714 402.216 19.8603 402.275 20.0941C402.316 20.2436 402.402 20.3578 402.532 20.4366C403.78 21.195 404.681 19.6537 403.613 18.8015C403.086 18.3802 402.55 17.9657 402.006 17.5579C400.277 16.2531 401.142 14.0065 403.291 14.0676C404.699 14.1057 405.368 14.7825 405.297 16.0982C405.289 16.2395 405.213 16.3102 405.068 16.3102H404.171C404.118 16.3102 404.067 16.2893 404.029 16.252C403.991 16.2146 403.969 16.1638 403.968 16.1104L403.955 15.5355C403.953 15.4186 403.902 15.3276 403.804 15.2623C403.421 15.0095 403.068 14.9878 402.744 15.1971Z" fill="white"/>
<path d="M408.243 21.3012L408.239 23.9556C408.239 24.0209 408.206 24.0535 408.141 24.0535L407.02 24.0576C406.952 24.0576 406.918 24.0236 406.918 23.9556V14.4756C406.918 14.3397 406.986 14.2731 407.122 14.2758H408.035C408.166 14.2758 408.234 14.341 408.239 14.4715L408.243 14.6876C408.254 14.9975 408.35 15.0274 408.533 14.7773C409.589 13.3298 411.424 14.1657 411.554 15.8578C411.646 17.0702 411.646 18.3981 411.554 19.8415C411.448 21.5336 409.772 22.1085 408.467 21.187C408.318 21.081 408.243 21.1191 408.243 21.3012ZM410.389 16.0999C410.39 15.8306 410.285 15.5719 410.095 15.3805C409.906 15.1891 409.648 15.0807 409.379 15.0793L409.281 15.0788C409.012 15.0774 408.753 15.183 408.562 15.3724C408.37 15.5618 408.262 15.8195 408.26 16.0888L408.242 19.5709C408.241 19.8401 408.346 20.0989 408.536 20.2903C408.725 20.4817 408.983 20.59 409.252 20.5915L409.35 20.5919C409.619 20.5934 409.878 20.4877 410.069 20.2983C410.261 20.1089 410.369 19.8513 410.371 19.582L410.389 16.0999Z" fill="white"/>
<path d="M417.723 19.474C417.722 20.0396 417.497 20.5816 417.096 20.9808C416.695 21.3801 416.153 21.6038 415.587 21.6028L415.187 21.6021C414.907 21.6016 414.63 21.546 414.372 21.4384C414.113 21.3307 413.878 21.1733 413.681 20.9749C413.483 20.7765 413.326 20.5412 413.22 20.2823C413.113 20.0233 413.058 19.7459 413.059 19.4659L413.064 16.204C413.065 15.6384 413.291 15.0964 413.692 14.6972C414.092 14.2979 414.635 14.0742 415.201 14.0752L415.6 14.0759C415.88 14.0764 416.157 14.132 416.416 14.2396C416.674 14.3473 416.909 14.5047 417.107 14.7031C417.305 14.9015 417.461 15.1368 417.568 15.3957C417.675 15.6547 417.729 15.9321 417.729 16.2121L417.723 19.474ZM416.39 16.0636C416.389 15.9372 416.364 15.8121 416.316 15.6954C416.267 15.5788 416.196 15.4728 416.107 15.3836C416.017 15.2944 415.911 15.2237 415.794 15.1756C415.677 15.1274 415.552 15.1027 415.426 15.103L415.336 15.1031C415.21 15.1033 415.085 15.1284 414.968 15.177C414.851 15.2256 414.745 15.2966 414.656 15.3861C414.567 15.4757 414.496 15.5819 414.448 15.6987C414.4 15.8155 414.375 15.9407 414.375 16.0671L414.382 19.6307C414.382 19.7571 414.407 19.8822 414.455 19.9989C414.504 20.1155 414.575 20.2215 414.665 20.3107C414.754 20.3999 414.86 20.4706 414.977 20.5187C415.094 20.5669 415.219 20.5916 415.346 20.5914L415.435 20.5912C415.562 20.591 415.687 20.5659 415.803 20.5173C415.92 20.4687 416.026 20.3977 416.115 20.3082C416.204 20.2187 416.275 20.1124 416.323 19.9956C416.371 19.8788 416.396 19.7536 416.396 19.6272L416.39 16.0636Z" fill="white"/>
<path d="M431.433 20.918C430.829 21.5704 430.1 21.7675 429.243 21.5092C427.767 21.0607 427.804 18.2269 428.966 17.5256C429.58 17.1586 430.335 16.9982 431.229 17.0444C431.373 17.0526 431.459 16.986 431.486 16.8446C431.624 16.0862 431.453 14.8548 430.401 15.1076C429.923 15.2218 429.661 15.5806 429.614 16.1841C429.609 16.2765 429.56 16.3214 429.468 16.3186L428.395 16.2942C428.333 16.2915 428.304 16.2588 428.31 16.1963C428.459 14.655 429.332 13.9537 430.927 14.0924C432.314 14.2106 432.852 15.0261 432.835 16.3023C432.814 18.0529 432.812 19.6812 432.831 21.1871C432.831 21.2444 432.809 21.2994 432.769 21.3399C432.73 21.3804 432.676 21.4032 432.619 21.4032L431.726 21.4073C431.577 21.41 431.502 21.3366 431.502 21.1871C431.502 21.1191 431.513 21.0512 431.535 20.9832C431.541 20.9698 431.542 20.9547 431.538 20.9407C431.533 20.9266 431.524 20.9145 431.512 20.9066C431.5 20.8987 431.485 20.8955 431.47 20.8976C431.456 20.8996 431.442 20.9069 431.433 20.918ZM430.079 20.5755C431.437 20.8364 431.612 19.181 431.498 18.2187C431.482 18.091 431.408 18.0257 431.278 18.023C429.973 18.0067 429.366 18.6238 429.455 19.8742C429.467 20.0437 429.534 20.2045 429.647 20.3315C429.76 20.4584 429.912 20.5442 430.079 20.5755Z" fill="white"/>
<path d="M446.571 19.467C446.57 20.0359 446.343 20.581 445.94 20.9825C445.537 21.384 444.991 21.609 444.422 21.608L444.047 21.6074C443.766 21.6069 443.487 21.5509 443.227 21.4427C442.967 21.3344 442.731 21.176 442.532 20.9765C442.333 20.777 442.175 20.5403 442.068 20.2799C441.961 20.0195 441.906 19.7405 441.906 19.4589L441.912 16.2132C441.913 15.6444 442.14 15.0993 442.543 14.6978C442.946 14.2963 443.492 14.0713 444.06 14.0723L444.435 14.0729C444.717 14.0734 444.996 14.1294 445.256 14.2376C445.516 14.3459 445.752 14.5042 445.951 14.7038C446.15 14.9033 446.307 15.14 446.415 15.4004C446.522 15.6608 446.577 15.9398 446.576 16.2214L446.571 19.467ZM445.243 16.0682C445.244 15.813 445.143 15.5681 444.963 15.3873C444.783 15.2065 444.538 15.1047 444.283 15.1043L444.193 15.1041C444.067 15.1039 443.942 15.1285 443.825 15.1767C443.708 15.2249 443.602 15.2955 443.512 15.3847C443.423 15.474 443.352 15.5799 443.303 15.6966C443.255 15.8132 443.229 15.9383 443.229 16.0647L443.223 19.6365C443.223 19.8917 443.323 20.1367 443.504 20.3174C443.684 20.4982 443.928 20.6 444.184 20.6005L444.273 20.6007C444.4 20.6009 444.525 20.5762 444.642 20.5281C444.758 20.4799 444.865 20.4092 444.954 20.32C445.044 20.2308 445.115 20.1248 445.163 20.0082C445.212 19.8915 445.237 19.7664 445.237 19.6401L445.243 16.0682Z" fill="white"/>
<path d="M449.708 14.6107C449.997 14.2601 450.511 14.0888 450.952 14.0766C452.191 14.0412 452.808 14.6828 452.803 16.0011C452.795 17.7599 452.792 19.4982 452.795 21.2162C452.795 21.3412 452.732 21.4037 452.607 21.4037L451.673 21.4078C451.537 21.4078 451.469 21.3398 451.469 21.2039V16.1153C451.469 15.5852 451.215 15.2468 450.707 15.1C450.595 15.0701 450.483 15.0701 450.368 15.1C449.743 15.2658 449.431 15.6722 449.431 16.3192V21.3059C449.431 21.3738 449.397 21.4065 449.329 21.4037H448.207C448.139 21.4037 448.105 21.3711 448.105 21.3059V14.5536C448.105 14.4069 448.176 14.3171 448.318 14.2845C448.872 14.1568 449.272 14.2641 449.516 14.6066C449.576 14.6909 449.64 14.6923 449.708 14.6107Z" fill="white"/>
<path d="M480.359 20.5717C480.983 20.4249 480.979 19.7236 480.938 19.2179C480.935 19.1853 480.95 19.169 480.983 19.169L482.182 19.1812C482.228 19.1812 482.252 19.2044 482.255 19.2506C482.35 20.8082 481.619 21.5978 480.061 21.6196C478.296 21.6399 477.737 20.4983 477.753 18.9529C477.782 16.9305 477.162 14.0355 480.167 14.0681C481.556 14.0817 482.216 14.798 482.145 16.217C482.139 16.3474 482.071 16.4127 481.941 16.4127H481.04C480.885 16.4127 480.814 16.3352 480.828 16.1803C480.881 15.4871 480.612 14.9244 479.8 15.0957C479.605 15.1374 479.43 15.2442 479.304 15.3985C479.178 15.5527 479.109 15.7451 479.107 15.9438C479.099 17.1235 479.095 18.3495 479.095 19.6216C479.091 20.3596 479.617 20.7429 480.359 20.5717Z" fill="white"/>
<path d="M489.838 20.9913C489.525 21.3664 489.123 21.5703 488.631 21.6029C487.37 21.6844 486.708 21.0429 486.645 19.6783C486.547 17.4969 487.991 16.9587 489.797 17.0362C489.828 17.0378 489.858 17.0333 489.887 17.0227C489.915 17.0122 489.942 16.996 489.964 16.975C489.986 16.954 490.004 16.9287 490.016 16.9007C490.028 16.8726 490.034 16.8424 490.034 16.8119C490.034 16.0984 490.132 15.2421 489.19 15.0872C488.549 14.9811 488.146 15.6131 488.17 16.1799C488.173 16.2615 488.134 16.3022 488.052 16.3022L487.065 16.3145C486.921 16.3145 486.851 16.2438 486.853 16.1024C486.894 13.4032 491.245 13.3909 491.306 15.8496C491.347 17.5431 491.353 19.3073 491.326 21.1422C491.323 21.3161 491.235 21.4031 491.061 21.4031L490.295 21.4072C490.153 21.4099 490.064 21.3433 490.026 21.2074C490.012 21.1585 490.005 21.1082 490.005 21.0565C490.011 20.8717 489.955 20.8499 489.838 20.9913ZM488.933 20.6039C490.005 20.5387 490.099 19.0545 490.005 18.2227C489.992 18.0977 489.921 18.0311 489.793 18.0229C488.7 17.9658 488.077 18.4578 487.922 19.4989C487.901 19.6408 487.912 19.7856 487.954 19.9226C487.996 20.0597 488.068 20.1857 488.165 20.2915C488.262 20.3973 488.381 20.4802 488.514 20.5343C488.646 20.5883 488.79 20.6121 488.933 20.6039Z" fill="white"/>
<path d="M497.072 15.478C496.97 15.6148 496.924 15.7852 496.943 15.9548C496.962 16.1244 497.044 16.2804 497.174 16.3914C497.663 16.8154 498.181 17.2096 498.727 17.5738C501.121 19.1763 499.889 22.0712 497.133 21.5616C495.981 21.3495 495.441 20.6523 495.514 19.4698C495.518 19.4147 495.542 19.3628 495.582 19.3249C495.622 19.287 495.675 19.2659 495.731 19.266L496.652 19.27C496.796 19.27 496.861 19.3421 496.848 19.4861C496.831 19.6737 496.836 19.8531 496.86 20.0244C496.879 20.1576 496.94 20.2663 497.043 20.3506C497.353 20.6088 497.719 20.6781 498.14 20.5585C498.293 20.5162 498.428 20.4263 498.526 20.3017C498.624 20.1771 498.681 20.0243 498.687 19.8653C498.706 19.319 498.446 18.8718 497.908 18.5239C496.831 17.8225 495.103 16.6483 495.894 15.107C496.758 13.4271 499.991 13.6758 499.914 16.0326C499.909 16.2174 499.813 16.3098 499.629 16.3098H498.764C498.736 16.31 498.708 16.3042 498.682 16.2926C498.656 16.2811 498.632 16.2642 498.613 16.2429C498.595 16.2217 498.58 16.1967 498.572 16.1696C498.563 16.1424 498.561 16.1138 498.564 16.0856C498.589 15.898 498.585 15.7145 498.552 15.5351C498.519 15.3639 498.423 15.2402 498.263 15.1641C497.787 14.9439 497.39 15.0485 497.072 15.478Z" fill="white"/>
<path d="M168.904 14.954C169.224 14.5516 169.628 14.2825 170.115 14.1466C170.335 14.0841 170.445 14.167 170.445 14.3953V15.1904C170.445 15.3753 170.352 15.4677 170.168 15.4677C169.213 15.4704 168.731 16.0073 168.72 17.0783C168.704 18.4837 168.701 19.8591 168.712 21.2047C168.715 21.3433 168.647 21.4113 168.508 21.4085L167.534 21.4004C167.436 21.4004 167.387 21.3501 167.387 21.2495V14.481C167.387 14.3451 167.453 14.2771 167.587 14.2771L168.504 14.273C168.637 14.2703 168.702 14.3369 168.7 14.4728L168.696 14.8806C168.693 15.1062 168.762 15.1306 168.904 14.954Z" fill="white"/>
<path d="M420.884 14.9587C421.232 14.5265 421.646 14.2546 422.128 14.1432C422.326 14.097 422.425 14.1758 422.425 14.3797V15.1789C422.425 15.3637 422.332 15.4575 422.144 15.4602C421.174 15.4711 420.69 16.0487 420.692 17.1931C420.692 18.593 420.691 19.9331 420.688 21.2135C420.688 21.3412 420.623 21.4051 420.493 21.4051L419.571 21.4092C419.435 21.4092 419.367 21.3412 419.367 21.2053V14.4816C419.367 14.3457 419.434 14.2777 419.567 14.2777L420.484 14.2737C420.618 14.2737 420.683 14.3403 420.68 14.4735L420.676 14.8853C420.673 15.1082 420.743 15.1326 420.884 14.9587Z" fill="white"/>
<path d="M172.745 14.2715H171.701C171.625 14.2715 171.562 14.3336 171.562 14.4101V21.2684C171.562 21.3449 171.625 21.407 171.701 21.407H172.745C172.822 21.407 172.884 21.3449 172.884 21.2684V14.4101C172.884 14.3336 172.822 14.2715 172.745 14.2715Z" fill="white"/>
<path d="M229.014 14.2759H227.971C227.894 14.2759 227.832 14.338 227.832 14.4145V21.2646C227.832 21.3412 227.894 21.4032 227.971 21.4032H229.014C229.091 21.4032 229.153 21.3412 229.153 21.2646V14.4145C229.153 14.338 229.091 14.2759 229.014 14.2759Z" fill="white"/>
<path d="M242.65 14.2715H241.655C241.565 14.2715 241.492 14.3445 241.492 14.4346V21.2439C241.492 21.334 241.565 21.407 241.655 21.407H242.65C242.74 21.407 242.813 21.334 242.813 21.2439V14.4346C242.813 14.3445 242.74 14.2715 242.65 14.2715Z" fill="white"/>
<path d="M315.854 14.2759H314.811C314.734 14.2759 314.672 14.338 314.672 14.4145V21.2646C314.672 21.3412 314.734 21.4032 314.811 21.4032H315.854C315.931 21.4032 315.993 21.3412 315.993 21.2646V14.4145C315.993 14.338 315.931 14.2759 315.854 14.2759Z" fill="white"/>
<path d="M334.236 16.2084C334.124 15.624 334.017 15.624 333.914 16.2084L333.045 21.1176C333.013 21.3079 332.898 21.4031 332.703 21.4031L331.475 21.4071C331.381 21.4079 331.29 21.3758 331.217 21.3162C331.144 21.2566 331.094 21.1734 331.076 21.0809L329.702 14.3939C329.699 14.3811 329.698 14.3678 329.701 14.3549C329.704 14.342 329.71 14.33 329.718 14.3197C329.727 14.3095 329.737 14.3013 329.749 14.2957C329.761 14.2902 329.774 14.2876 329.787 14.2879L330.892 14.2716C330.971 14.2689 331.017 14.3056 331.031 14.3817L332.018 19.8781C332.091 20.294 332.164 20.294 332.238 19.8781L333.172 14.5774C333.207 14.3736 333.329 14.2716 333.539 14.2716L334.745 14.2757C334.938 14.2757 335.053 14.3708 335.088 14.5611L336.091 19.8781C336.173 20.3103 336.253 20.3103 336.332 19.8781L337.31 14.4633C337.332 14.3437 337.404 14.2825 337.526 14.2798L338.431 14.2757C338.497 14.2757 338.523 14.307 338.509 14.3695L337.131 21.1543C337.098 21.312 337.002 21.3922 336.841 21.3949L335.471 21.4112C335.409 21.4125 335.348 21.3919 335.299 21.3531C335.251 21.3143 335.218 21.2597 335.206 21.1992L334.236 16.2084Z" fill="white"/>
<path d="M348.303 18.9566C348.409 19.4215 348.519 19.4228 348.633 18.9607L349.726 14.4592C349.756 14.3342 349.835 14.2717 349.962 14.2717L350.839 14.2757C350.959 14.2757 351.002 14.3342 350.969 14.4511L348.364 23.9515C348.348 24.0113 348.308 24.0412 348.246 24.0412L347.218 24.0575C347.142 24.0602 347.115 24.0249 347.137 23.9515C347.422 23.0545 347.96 21.9128 347.695 20.9546C347.054 18.6114 346.458 16.4164 345.909 14.3695C345.906 14.3592 345.905 14.3483 345.907 14.3377C345.909 14.3271 345.913 14.3171 345.92 14.3083C345.926 14.2996 345.934 14.2925 345.944 14.2876C345.953 14.2826 345.964 14.28 345.975 14.2798L347.133 14.2717C347.195 14.2689 347.233 14.2988 347.247 14.3614L348.303 18.9566Z" fill="white"/>
<path d="M440.099 14.2759H439.105C439.014 14.2759 438.941 14.3489 438.941 14.439V21.2401C438.941 21.3302 439.014 21.4032 439.105 21.4032H440.099C440.189 21.4032 440.262 21.3302 440.262 21.2401V14.439C440.262 14.3489 440.189 14.2759 440.099 14.2759Z" fill="white"/>
<path d="M475.974 14.2759H474.98C474.889 14.2759 474.816 14.3489 474.816 14.439V21.2401C474.816 21.3302 474.889 21.4032 474.98 21.4032H475.974C476.064 21.4032 476.137 21.3302 476.137 21.2401V14.439C476.137 14.3489 476.064 14.2759 475.974 14.2759Z" fill="white"/>
<path d="M484.849 14.2715H483.855C483.764 14.2715 483.691 14.3445 483.691 14.4346V21.2439C483.691 21.334 483.764 21.407 483.855 21.407H484.849C484.939 21.407 485.012 21.334 485.012 21.2439V14.4346C485.012 14.3445 484.939 14.2715 484.849 14.2715Z" fill="white"/>
</svg>
