<?xml version="1.0" encoding="UTF-8"?> <svg xmlns="http://www.w3.org/2000/svg" xmlns:xlink="http://www.w3.org/1999/xlink" width="257.638" height="33.444"><defs><linearGradient id="b" x1=".5" y1="1.011" x2=".5" y2="-.046" gradientUnits="objectBoundingBox"><stop offset=".005" stop-color="#d6dce2"></stop><stop offset=".519" stop-color="#e5e8ec"></stop><stop offset="1" stop-color="#eef0f2"></stop></linearGradient><linearGradient id="c" x1=".5" y1="-.011" x2=".5" y2="1.046" gradientUnits="objectBoundingBox"><stop offset="0" stop-color="#8fa0ae"></stop><stop offset=".054" stop-color="#a5b2bd"></stop><stop offset=".163" stop-color="#ccd2da"></stop><stop offset=".249" stop-color="#e5e6eb"></stop><stop offset=".302" stop-color="#eeeef2"></stop><stop offset=".459" stop-color="#d4d9df"></stop><stop offset=".675" stop-color="#b7c1cb"></stop><stop offset=".863" stop-color="#a6b3be"></stop><stop offset="1" stop-color="#a0aeba"></stop></linearGradient><linearGradient id="d" x1=".5" y1="1" x2=".5" gradientUnits="objectBoundingBox"><stop offset="0" stop-color="#40a6e0"></stop><stop offset=".279" stop-color="#2d5fa5"></stop><stop offset=".493" stop-color="#202f7d"></stop><stop offset=".6" stop-color="#1c1d6e"></stop></linearGradient><linearGradient id="e" x1=".5" y1="1" x2=".5" gradientUnits="objectBoundingBox"><stop offset="0" stop-color="#2e4c99"></stop><stop offset=".062" stop-color="#3657a0"></stop><stop offset=".378" stop-color="#608ec6"></stop><stop offset=".651" stop-color="#7eb5e1"></stop><stop offset=".867" stop-color="#91cef1"></stop><stop offset="1" stop-color="#98d7f8"></stop></linearGradient><radialGradient id="a" cx=".5" cy="1.127" r="3.425" gradientUnits="objectBoundingBox"><stop offset="0" stop-color="#347ec2"></stop><stop offset=".05" stop-color="#3175ba"></stop><stop offset=".131" stop-color="#2a5ca6"></stop><stop offset=".233" stop-color="#203585"></stop><stop offset=".25" stop-color="#1e2e7f"></stop></radialGradient><radialGradient id="f" cx=".5" cy="1.127" r="3.425" xlink:href="#a"></radialGradient><radialGradient id="g" cx=".5" cy="1.127" r="3.425" xlink:href="#a"></radialGradient></defs><g data-name="Gruppe 159"><text transform="translate(90.637 23.176)" fill="#f8f2f2" font-size="18" font-family="Helvetica" letter-spacing=".025em"><tspan x="0" y="0">Global</tspan><tspan y="0" fill="#347ec2">Trade</tspan><tspan y="0">Tracker</tspan></text><g data-name="Gruppe 157"><path data-name="Vereinigungsmenge 1" d="M56.125 27.072a16.724 16.724 0 01-26.269 0 16.722 16.722 0 110-20.7 16.724 16.724 0 0126.269 0 16.722 16.722 0 110 20.7z" fill="rgba(0,0,0,0)"></path><path data-name="Vereinigungsmenge 2" d="M54.93 23.814a15.532 15.532 0 01-26.269 0 15.528 15.528 0 110-16.573 15.532 15.532 0 0126.269 0 15.528 15.528 0 110 16.572z" transform="translate(1.195 1.194)" fill="rgba(0,0,0,0)"></path><path data-name="Vereinigungsmenge 3" d="M54.334 22.036a14.937 14.937 0 01-26.268 0 14.93 14.93 0 110-14.214 14.937 14.937 0 0126.268 0 14.929 14.929 0 110 14.213z" transform="translate(1.791 1.792)" fill="url(#d)"></path><path data-name="Pfad 8313" d="M107.42 413.656a13.985 13.985 0 11-13.985-13.986 13.985 13.985 0 0113.985 13.986z" transform="translate(-76.713 -396.935)" fill="url(#a)"></path><path data-name="Pfad 8314" d="M105.209 406.041c0 2.654-4.251 4.806-9.5 4.806s-9.5-2.152-9.5-4.806 4.252-4.8 9.5-4.8 9.5 2.148 9.5 4.8z" transform="translate(-78.989 -397.462)" fill="url(#e)"></path><path data-name="Pfad 8315" d="M21.806 17.209h-4.6v3.3a24.178 24.178 0 013.69.352 9.768 9.768 0 00.91-3.652zm-.888-4.638a24.341 24.341 0 01-3.709.354v3.3h4.6a9.8 9.8 0 00-.891-3.654zm-3.709-4.177v3.541a23.668 23.668 0 003.223-.281 9.636 9.636 0 00-3.223-3.26zm5.583 7.831h2.761a8.807 8.807 0 00-1.485-4.457 21.054 21.054 0 01-2.158.606 10.771 10.771 0 01.882 3.85zm-6.568 8.777v-3.5a23.65 23.65 0 00-3.2.277 9.617 9.617 0 003.2 3.222zm5.238-13.537a19.968 19.968 0 001.973-.514 8.825 8.825 0 00-5.053-2.929 10.6 10.6 0 013.08 3.442zm.433 9.592a20.568 20.568 0 012.174.61 8.81 8.81 0 001.485-4.458h-2.762a10.8 10.8 0 01-.898 3.847zm-9.361-.2a24.179 24.179 0 013.691-.352v-3.3h-4.6a9.793 9.793 0 00.908 3.656zm.468-9.207a23.669 23.669 0 003.223.281V8.394a9.632 9.632 0 00-3.224 3.259zm5.312 13.77a8.836 8.836 0 005.122-2.939q-.955-.3-1.994-.52a10.577 10.577 0 01-3.129 3.462zm-6.689-9.2h4.6v-3.3a24.35 24.35 0 01-3.71-.354 9.786 9.786 0 00-.891 3.658zm8.785 5.553a23.65 23.65 0 00-3.2-.277v3.5a9.627 9.627 0 003.2-3.219zm-8.418.187q-1.035.215-1.986.516a8.837 8.837 0 005.11 2.941 10.587 10.587 0 01-3.124-3.453zm-1.35-4.755h-2.75a8.8 8.8 0 001.483 4.454 20.56 20.56 0 012.163-.606 10.8 10.8 0 01-.896-3.844zm4.4-9.184a8.828 8.828 0 00-5.041 2.93 20.249 20.249 0 001.965.51 10.617 10.617 0 013.081-3.436zm-3.524 4.349a20.958 20.958 0 01-2.147-.6 8.791 8.791 0 00-1.483 4.452h2.748a10.771 10.771 0 01.886-3.848z" fill="#fff"></path><path data-name="Pfad 8316" d="M147.012 413.656a13.986 13.986 0 11-13.987-13.986 13.986 13.986 0 0113.987 13.986z" transform="translate(-90.035 -396.935)" fill="url(#f)"></path><path data-name="Pfad 8317" d="M144.8 406.041c0 2.654-4.251 4.806-9.5 4.806s-9.5-2.152-9.5-4.806 4.252-4.8 9.5-4.8 9.5 2.148 9.5 4.8z" transform="translate(-92.311 -397.462)" fill="url(#e)"></path><path data-name="Pfad 8318" d="M186.6 413.656a13.986 13.986 0 11-13.986-13.986 13.986 13.986 0 0113.986 13.986z" transform="translate(-103.357 -396.935)" fill="url(#g)"></path><path data-name="Pfad 8319" d="M184.39 406.041c0 2.654-4.252 4.806-9.5 4.806s-9.5-2.152-9.5-4.806 4.253-4.8 9.5-4.8 9.5 2.148 9.5 4.8z" transform="translate(-105.633 -397.462)" fill="url(#e)"></path><g data-name="Gruppe 156" fill="#171314" stroke="#fff" stroke-width=".727"><path data-name="Linie 23" d="M77.609 22.617h-15.65"></path><path data-name="Linie 24" d="M61.959 19.616h15.65"></path><path data-name="Linie 25" d="M61.959 16.614h15.65"></path><path data-name="Linie 26" d="M61.959 13.612h15.65"></path><path data-name="Linie 27" d="M61.959 10.611h15.65"></path></g><path data-name="Pfad 8320" d="M62.218 21.83l4.357-4.71 2.355 1.413 5.063-6.241 3.415-.236" fill="none" stroke="#fff" stroke-width="1.301"></path><path data-name="Pfad 8321" d="M62.218 18.007l6.6-6.361 8.478 3.415" fill="none" stroke="#fff" stroke-width="1.301"></path><path data-name="Pfad 8322" d="M34.947 14.298h13.688l-4.544-4.545" fill="none" stroke="#fff" stroke-width="2.245"></path><path data-name="Pfad 8323" d="M50.346 18.521H36.658l4.544 4.546" fill="none" stroke="#fff" stroke-width="2.245"></path><path data-name="Rechteck 65" fill="#fff" d="M37.406 15.618h1.604v1.604h-1.604z"></path><path data-name="Rechteck 66" fill="#fff" d="M40.4 15.618h1.604v1.604H40.4z"></path><path data-name="Rechteck 67" fill="#fff" d="M46.389 15.618h1.604v1.604h-1.604z"></path></g></g></svg> 