<svg width="140" height="56" viewBox="0 0 140 56" fill="none" xmlns="http://www.w3.org/2000/svg" aria-labelledby="logoTitleId_40b8af0e-de5b-a02c-26c6-12ddcc859afb" class="navigationLogoImage--LDEC8IDwVg shown--zOZnghu7sv"><title id="logoTitleId_40b8af0e-de5b-a02c-26c6-12ddcc859afb">Go to: Thieme</title><path fill-rule="evenodd" clip-rule="evenodd" d="M2.00912 26.6208C2.00912 36.3319 7.65121 44.2322 14.5848 44.2322C21.5184 44.2322 27.1605 36.3319 27.1605 26.6208C27.1605 24.2253 26.8212 21.9021 26.1546 19.7168C25.5111 17.6126 24.5939 15.7251 23.425 14.1058C21.0521 10.8192 17.912 9.00943 14.5848 9.00943C7.65121 9.00943 2.00912 16.9097 2.00912 26.6208ZM19.9314 9.49334C21.549 10.4404 23.0003 11.7947 24.2426 13.5146C26.7741 17.0225 28.1696 21.6766 28.1696 26.6208C28.1696 31.565 26.7741 36.2191 24.2426 39.7259C23.0003 41.4469 21.549 42.8001 19.9314 43.7483C18.2404 44.7391 16.441 45.2416 14.5848 45.2416C12.7285 45.2416 10.9292 44.7391 9.23821 43.7483C7.62056 42.8001 6.16927 41.4469 4.92702 39.7259C2.39547 36.2191 1 31.565 1 26.6208C1 21.6766 2.39547 17.0225 4.92702 13.5146C6.16927 11.7947 7.62056 10.4404 9.23821 9.49334C10.9292 8.50253 12.7285 8 14.5848 8C16.441 8 18.2404 8.50253 19.9314 9.49334ZM23.0655 26.6461C23.6959 26.6745 24.3264 26.9822 24.8298 27.361C24.89 27.4048 24.8867 27.4453 24.8572 27.4869C24.2804 28.3354 23.3162 28.5719 22.4044 28.4821C22.2478 28.4669 22.0724 28.423 21.8904 28.3775C21.392 28.253 20.8438 28.116 20.4935 28.5193C20.7257 29.0612 21.1755 29.1751 21.6362 29.2917C22.0504 29.3966 22.4733 29.5037 22.7547 29.9262C23.1104 30.4594 23.3785 31.3757 23.1936 32.3622C23.1848 32.418 23.1618 32.4344 23.1071 32.4005C22.823 32.2001 22.4833 32.0662 22.1484 31.9342C21.5245 31.6883 20.9168 31.4487 20.7146 30.7977C20.6674 30.6461 20.6285 30.4956 20.5902 30.3471C20.4089 29.6445 20.2384 28.9837 19.2447 28.446C18.9786 29.013 19.2135 29.5011 19.4556 30.004C19.7154 30.5439 19.9834 31.1008 19.6485 31.7907C19.2764 32.5581 18.7926 33.064 18.6153 33.2337C18.5672 33.2774 18.5354 33.2753 18.4993 33.2216C18.4321 33.1158 18.3585 33.0077 18.2833 32.8971C17.9015 32.3359 17.4772 31.7121 17.6281 31.0188C17.691 30.73 17.8229 30.4111 17.9605 30.0784C18.3711 29.0858 18.8326 27.97 17.6653 27.1606C16.4668 29.6284 15.6941 33.3048 16.6365 36.2006C16.8571 36.8799 17.5795 37.1459 18.1529 37.3569C18.2393 37.3887 18.3223 37.4193 18.3997 37.4498C18.6549 37.5508 18.9318 37.6273 19.2092 37.704C19.6838 37.8352 20.1597 37.9667 20.5307 38.2217C20.5307 38.4124 20.4385 38.4952 20.3333 38.5896C20.2761 38.641 20.215 38.6959 20.1629 38.7735C20.2709 38.9738 20.46 39.1377 20.6445 39.2976C20.8995 39.5185 21.1455 39.7317 21.1556 40.0227C21.0681 40.0927 20.8612 40.2066 20.8612 40.2066C20.5089 40.0639 20.1439 39.8996 19.7767 39.7343C18.727 39.262 17.6596 38.7816 16.8204 38.7735C16.5837 38.771 16.5089 38.9051 16.4302 39.0464C16.3345 39.2181 16.2329 39.4004 15.8277 39.3614C15.2169 39.3023 14.4946 39.9198 14.4311 40.2066C14.4167 40.2735 14.4554 40.3788 14.4992 40.4981C14.6088 40.7962 14.7504 41.1815 14.175 41.273C13.7852 41.3343 13.4556 41.186 13.1155 41.0329C12.8186 40.8992 12.5136 40.7619 12.1535 40.7573C12.1384 40.8393 12.1282 40.9235 12.1181 41.0067C12.0783 41.3359 12.0402 41.6498 11.7135 41.7503C11.2155 41.9025 10.8663 41.4339 10.5741 41.0157C9.90407 40.0561 10.6005 39.5021 11.3078 38.9394C11.6739 38.6483 12.0428 38.3548 12.2268 38.0016C12.8864 36.736 12.9581 35.3834 13.0285 34.0566C13.0309 34.0118 13.0332 33.967 13.0356 33.9223C13.1894 31.0438 12.389 29.4238 11.3324 27.2852C11.2763 27.1715 11.2194 27.0564 11.1619 26.9395C10.6212 27.5833 10.2151 28.9529 10.5008 29.5112L10.5048 29.5191C10.8125 30.1249 11.2974 31.0795 11.0141 31.9374C10.8871 32.3249 10.5008 32.8713 9.91414 33.4121C9.87364 33.4493 9.82439 33.4526 9.78609 33.3902C9.77446 33.3703 9.76277 33.3504 9.75104 33.3304C9.25061 32.4771 8.67385 31.4936 9.17755 30.3564C9.5847 29.439 9.69196 28.8872 9.69196 28.1153C8.62941 28.914 8.49878 29.4665 8.36568 30.0295C8.32617 30.1967 8.28645 30.3647 8.22206 30.5404C7.97785 31.2094 7.32823 31.3722 6.67788 31.5351C6.34597 31.6182 6.01387 31.7014 5.73538 31.852C5.68176 31.8728 5.64454 31.8695 5.64564 31.7896C5.62375 31.1152 5.72225 30.3258 6.16442 29.7313C6.45833 29.3382 6.85692 29.1683 7.23582 29.0068C7.5723 28.8634 7.89324 28.7266 8.11152 28.446C7.65843 28.1845 7.1898 28.2185 6.7157 28.2528C6.19115 28.2907 5.65991 28.3292 5.13561 27.9686C4.90467 27.8099 4.30708 27.2636 4.0838 27.0566C4.02579 26.9975 4.02908 26.9691 4.09694 26.9307C4.86964 26.5826 6.01667 26.2925 6.89992 26.7928C7.11337 26.9137 7.30633 27.0777 7.49515 27.2383C7.93563 27.6128 8.35354 27.9681 8.95646 27.7113C9.25964 27.5833 10.2512 26.5103 10.5008 25.6531C9.85504 25.1943 8.73757 24.6907 8.29539 24.8079C6.98697 25.1572 6.20093 24.4864 5.33349 23.7461C5.06463 23.5166 4.78796 23.2805 4.48548 23.066C4.43404 23.0321 4.43513 22.997 4.49642 22.9795C4.91999 22.8613 6.66461 22.4124 7.52378 22.8229C7.87811 22.9926 8.114 23.2782 8.34565 23.5587C8.71934 24.0111 9.08199 24.4502 9.91305 24.3677C9.36142 23.1547 8.63359 21.7697 7.3399 21.427C6.24323 21.1358 4.84119 19.9118 5.05024 18.1393C5.05899 18.067 5.09949 18.0758 5.14327 18.1086C5.46559 18.3438 5.87459 18.48 6.28192 18.6156C7.10697 18.8903 7.92513 19.1627 8.00207 20.2512C8.0349 20.7165 8.58981 20.8752 8.58981 20.8752C8.73647 19.8833 8.63578 18.9177 7.8182 18.3769C7.2425 17.9948 6.82331 17.4211 6.75216 16.7226C6.70291 16.2343 6.73575 15.0344 7.3202 14.326C7.36398 14.2734 7.39244 14.291 7.41324 14.3304C7.56187 14.6093 7.75139 14.8915 7.9407 15.1733C8.30199 15.7112 8.6625 16.2479 8.73647 16.7587C8.76497 16.9539 8.72051 17.15 8.67645 17.3444C8.59695 17.695 8.51871 18.0401 8.87219 18.3648C8.92608 18.1026 9.07137 17.6573 9.22724 17.1794C9.48921 16.3764 9.78108 15.4817 9.71932 15.2106C9.64271 14.8745 9.64818 14.1081 10.0258 13.5881C10.5113 12.9212 11.119 12.7207 11.8726 12.4722C12.0295 12.4205 12.1927 12.3666 12.3625 12.306C12.4337 12.2798 12.4534 12.306 12.4555 12.3674C12.5048 13.1184 12.3012 14.0764 11.882 14.6873C11.6311 15.0515 11.3857 15.203 11.1525 15.347C10.9596 15.4661 10.775 15.5801 10.6026 15.8051C10.3552 16.127 9.83862 17.7878 9.91305 18.7436C10.3979 18.4201 10.5998 17.9306 10.8019 17.441C11.0586 16.8186 11.3155 16.196 12.1535 15.9135C12.5814 15.7701 13.063 15.6529 13.2655 15.6059C13.3669 15.5843 13.3726 15.6127 13.3843 15.6712L13.3848 15.6737C13.503 16.289 13.3935 17.0882 12.9984 17.6411C12.6818 18.0857 12.1153 18.3434 11.5541 18.5985C10.6796 18.9962 9.81803 19.388 9.93603 20.4724C10.0311 21.3563 10.6511 22.3176 11.2649 23.2693C11.4707 23.5884 11.6758 23.9063 11.8601 24.2199C12.044 24.0327 12.1195 23.7711 12.1535 23.4481C12.1743 23.2547 12.0845 23.0672 11.985 22.8592C11.8332 22.5419 11.6586 22.177 11.8186 21.6712C11.9301 21.3178 12.1474 20.9618 12.3497 20.6304C12.4688 20.4352 12.5828 20.2485 12.6668 20.076C12.6985 20.0092 12.7357 20.0169 12.7817 20.053C13.1998 20.3837 13.5183 20.7636 13.6967 21.2431C14.0185 22.1059 13.6053 22.7965 13.1928 23.4857C12.7328 24.2545 12.2738 25.0216 12.8364 26.0242C13.0023 26.3196 13.2019 26.6943 13.4143 27.093C13.6869 27.6046 13.9805 28.1556 14.2505 28.6288C14.4311 28.9441 14.6872 28.7941 14.7988 28.6299C14.8102 28.6132 14.8278 28.5885 14.8505 28.5565C15.0981 28.2089 15.9619 26.9959 16.1713 25.7177C16.2972 24.9524 16.1877 24.163 15.5705 23.5214C15.1918 23.1284 14.8722 22.6357 15.0199 22.015C15.1305 21.5456 15.4173 21.1429 15.727 20.708C15.8955 20.4713 16.0709 20.225 16.2282 19.9534C16.26 19.9009 16.2917 19.9041 16.3257 19.9425C16.7897 20.4428 17.2056 21.3778 17.187 21.9044C17.1735 22.3093 17.0498 22.6702 16.9328 23.0116C16.747 23.5536 16.5781 24.0464 16.8937 24.5878C17.812 23.1547 18.8835 21.1479 18.5092 19.4793C18.4087 19.0297 17.9694 18.9786 17.4447 18.9176C16.9002 18.8543 16.2637 18.7803 15.8189 18.2389C15.2749 17.5776 15.0013 16.7762 15.0506 15.9912C15.0528 15.9365 15.0768 15.9299 15.1294 15.9485C15.4081 16.0772 15.7312 16.1693 16.0579 16.2624C17.0318 16.54 18.0376 16.8267 17.9958 18.1196C17.9893 18.3013 18.1786 18.3769 18.3997 18.3769C18.4851 17.5897 18.1688 16.8375 17.9586 16.3547C17.8983 16.2158 17.6604 16.0227 17.3833 15.7978C17.0619 15.5369 16.6877 15.2332 16.4767 14.9216C16.0466 14.291 16.1538 13.1567 16.4088 12.3498C16.4263 12.294 16.457 12.2951 16.5008 12.3236C16.6101 12.3877 16.7312 12.4521 16.8586 12.5199C17.4558 12.8376 18.1895 13.228 18.4763 13.9932C18.6055 14.3392 18.5989 14.7157 18.5928 15.067C18.587 15.4003 18.5816 15.7108 18.693 15.9507C18.8045 16.1895 18.9109 16.4482 19.0179 16.7083C19.1723 17.084 19.3279 17.4625 19.5019 17.7878C19.8865 17.4999 19.8347 17.1009 19.7789 16.6701C19.7279 16.2771 19.6735 15.8578 19.944 15.4723C20.3961 14.8296 21.102 14.1979 21.8101 14.0205C21.8736 14.0041 21.8867 14.0238 21.8857 14.0731C21.8717 14.3426 21.8975 14.6312 21.9237 14.9248C21.9858 15.62 22.0504 16.3431 21.5956 16.9065C21.3945 17.1561 21.1082 17.3902 20.8228 17.6236C20.3208 18.0342 19.8217 18.4424 19.7952 18.9276C19.7645 19.4903 20.0535 20.3979 20.0535 20.3979C20.616 20.1677 20.8393 19.7171 21.0879 19.2155C21.1963 18.9968 21.3095 18.7684 21.4577 18.5444C22.249 17.3488 23.6062 17.4068 23.9914 17.5984C24.0385 17.6181 24.0407 17.6587 24.009 17.6904C23.7297 17.9844 23.5942 18.3837 23.4605 18.7775C23.2532 19.3883 23.0504 19.986 22.3224 20.157C21.5573 20.3377 21.0035 20.6421 20.6379 21.0493C20.1587 21.5835 19.9216 22.2444 19.6884 22.8941C19.5115 23.387 19.337 23.8734 19.0608 24.2933C19.3858 24.3754 19.6343 24.2758 19.7733 24.0502C20.0797 23.5543 20.7102 22.8788 21.2508 22.6084C22.0684 22.2 23.2932 22.431 23.6357 22.5076C23.6981 22.5219 23.6894 22.5558 23.6609 22.5919C23.4548 22.7967 23.2868 23.065 23.1142 23.3405C22.7728 23.8857 22.4136 24.4592 21.7062 24.625C21.538 24.652 21.3619 24.6758 21.1813 24.7002C20.1383 24.8412 18.9469 25.0023 18.2892 25.9104C18.1786 26.7556 19.2468 27.3719 19.9265 27.6194C20.5626 27.8506 20.9588 27.5681 21.4069 27.2486C21.8309 26.9464 22.3014 26.6109 23.0655 26.6461Z" fill="#013476"></path><path fill-rule="evenodd" clip-rule="evenodd" d="M49.7711 21.555L48.4161 19.8459C48.1086 19.466 47.8065 19.2142 47.5088 19.0916C47.0776 18.9274 46.3848 18.8453 45.4304 18.8453H43.445V36.4118C43.445 37.4584 43.5062 38.1361 43.6299 38.4438C43.7733 38.793 44.0557 39.0601 44.476 39.2452L45.5529 39.7225V40.3838H38.1192V39.7225L39.1819 39.2452C39.6132 39.0601 39.8999 38.793 40.0433 38.4438C40.167 38.1361 40.2283 37.4584 40.2283 36.4118V18.8453H38.2735C37.3705 18.8453 36.7139 18.9121 36.3034 19.0456C35.9138 19.1792 35.5592 19.4452 35.2418 19.8459L33.9185 21.555H33.1327V17.2129H50.5252V21.555H49.7711Z" fill="#013476"></path><path fill-rule="evenodd" clip-rule="evenodd" d="M61.7448 40.3838V39.7215L62.5295 39.2748C62.9301 39.0602 63.1862 38.7832 63.299 38.4438C63.4226 38.1252 63.4839 37.4793 63.4839 36.5038V30.7921C63.4839 29.3754 63.4478 28.3856 63.3756 27.8207C63.1501 26.1073 61.9341 25.25 59.7287 25.25C58.5379 25.25 57.4303 25.4701 56.4037 25.9113V36.5038C56.4037 37.4793 56.4595 38.1252 56.5733 38.4438C56.6959 38.7832 56.9531 39.0602 57.3428 39.2748L58.1275 39.7215V40.3838H51.6328V39.7215L52.4482 39.2748C52.8378 39.07 53.0896 38.7931 53.2023 38.4438C53.315 38.1154 53.372 37.4683 53.372 36.5038V20.3233C53.372 19.4201 53.3107 18.83 53.187 18.553C53.0633 18.2344 52.8072 17.9979 52.4176 17.8446L51.6328 17.5206V16.8593L56.4037 15.5039V25.3114C57.9743 23.7819 59.6718 23.0177 61.4985 23.0177C62.7298 23.0177 63.7707 23.2947 64.6222 23.8487C65.3719 24.3413 65.8798 25.019 66.1457 25.8807C66.3931 26.6613 66.5157 28.0254 66.5157 29.9764V36.5038C66.5157 37.4683 66.5671 38.1154 66.67 38.4438C66.7827 38.7931 67.0344 39.07 67.4241 39.2748L68.2395 39.7215V40.3838H61.7448Z" fill="#013476"></path><path fill-rule="evenodd" clip-rule="evenodd" d="M70.7305 40.3837V39.7213L71.5459 39.2747C71.9366 39.0699 72.1872 38.7929 72.3011 38.4437C72.4138 38.1152 72.4696 37.4682 72.4696 36.5036V27.8359C72.4696 26.9228 72.4083 26.3272 72.2857 26.0502C72.1621 25.7317 71.9049 25.4952 71.5152 25.3419L70.7305 25.0332V24.3719L75.5013 23.0176V36.5036C75.5013 37.4791 75.5583 38.1251 75.671 38.4437C75.7947 38.7831 76.0508 39.0601 76.4404 39.2747L77.2262 39.7213V40.3837H70.7305Z" fill="#013476"></path><path fill-rule="evenodd" clip-rule="evenodd" d="M73.9796 15.9355C74.5334 15.9355 74.969 16.0943 75.2875 16.4118C75.6159 16.7304 75.7801 17.1716 75.7801 17.7365C75.7801 18.1986 75.6728 18.5785 75.4572 18.8752C75.1387 19.3175 74.6418 19.5375 73.9643 19.5375C73.4105 19.5375 72.9738 19.3788 72.6564 19.0602C72.3379 18.7427 72.1792 18.3015 72.1792 17.7365C72.1792 17.1716 72.3379 16.7304 72.6564 16.4118C72.9836 16.0943 73.4258 15.9355 73.9796 15.9355Z" fill="#013476"></path><path fill-rule="evenodd" clip-rule="evenodd" d="M87.1223 24.8492C88.4762 24.8492 89.4361 25.3309 89.9997 26.2966C90.3697 26.9535 90.5645 27.9082 90.5853 29.1606L83.1515 29.9139C83.2949 26.5374 84.6181 24.8492 87.1223 24.8492ZM93.8939 31.1456V30.7919C93.8939 28.1238 93.3915 26.1575 92.3857 24.8952C91.3908 23.6427 89.8005 23.0176 87.6148 23.0176C85.2442 23.0176 83.3824 23.8387 82.0275 25.4809C80.6736 27.1122 79.9961 29.3599 79.9961 32.224C79.9961 34.995 80.632 37.0992 81.9049 38.5356C83.1559 39.9524 85.0285 40.6607 87.5229 40.6607C88.9895 40.6607 90.2416 40.4089 91.2781 39.9064C91.9862 39.5582 92.679 39.0546 93.3554 38.3977V37.766C91.9906 38.2488 90.6159 38.4897 89.2303 38.4897C87.0348 38.4897 85.4653 37.9565 84.5207 36.889C83.5871 35.8413 83.1209 34.0403 83.1209 31.485V31.1456H93.8939Z" fill="#013476"></path><path fill-rule="evenodd" clip-rule="evenodd" d="M116.983 40.3842V39.7218L117.767 39.2752C118.168 39.0606 118.419 38.7836 118.522 38.4442C118.634 38.1157 118.691 37.4687 118.691 36.5041V30.7924C118.691 29.1907 118.661 28.201 118.599 27.8211C118.579 27.6667 118.527 27.4565 118.445 27.1894C118.035 25.8767 116.798 25.2187 114.736 25.2187C113.535 25.2187 112.365 25.3982 111.227 25.7584C111.504 26.5686 111.643 27.9755 111.643 29.9768V36.5041C111.643 37.4796 111.693 38.1256 111.796 38.4442C111.909 38.7934 112.16 39.0704 112.55 39.2752L113.365 39.7218V40.3842H106.871V39.7218L107.656 39.2752C108.056 39.0606 108.312 38.7836 108.425 38.4442C108.549 38.1256 108.61 37.4796 108.61 36.5041V30.7924C108.61 29.3757 108.574 28.386 108.502 27.8211C108.276 26.1077 107.056 25.2504 104.839 25.2504C103.557 25.2504 102.453 25.4497 101.53 25.8504V36.5041C101.53 37.4796 101.587 38.1256 101.699 38.4442C101.822 38.7836 102.079 39.0606 102.469 39.2752L103.253 39.7218V40.3842H96.7588V39.7218L97.5742 39.2752C97.9649 39.0704 98.2156 38.7934 98.3283 38.4442C98.441 38.1157 98.4979 37.4687 98.4979 36.5041V27.8364C98.4979 26.9233 98.4366 26.3277 98.313 26.0507C98.1893 25.7322 97.9332 25.4957 97.5435 25.3424L96.7588 25.0337V24.3724L101.422 23.0181V25.3117C102.079 24.6954 102.664 24.2443 103.177 23.9563C104.244 23.3301 105.409 23.0181 106.67 23.0181C108.199 23.0181 109.379 23.4232 110.211 24.2344C110.436 24.46 110.677 24.7884 110.935 25.2187C112.699 23.7308 114.577 22.9863 116.568 22.9863C119.245 22.9863 120.877 24.0593 121.461 26.204C121.656 26.9025 121.754 28.1605 121.754 29.9768V36.5041C121.754 37.4687 121.805 38.1157 121.908 38.4442C122.011 38.7836 122.263 39.0606 122.662 39.2752L123.447 39.7218V40.3842H116.983Z" fill="#013476"></path><path fill-rule="evenodd" clip-rule="evenodd" d="M132.478 24.8492C133.832 24.8492 134.792 25.3309 135.355 26.2966C135.725 26.9535 135.92 27.9082 135.941 29.1606L128.507 29.9139C128.65 26.5374 129.974 24.8492 132.478 24.8492ZM139.249 31.1456V30.7919C139.249 28.1238 138.747 26.1575 137.741 24.8952C136.746 23.6427 135.156 23.0176 132.97 23.0176C130.6 23.0176 128.738 23.8387 127.383 25.4809C126.029 27.1122 125.352 29.3599 125.352 32.224C125.352 34.995 125.987 37.0992 127.26 38.5356C128.511 39.9524 130.384 40.6607 132.878 40.6607C134.345 40.6607 135.597 40.4089 136.634 39.9064C137.342 39.5582 138.034 39.0546 138.711 38.3977V37.766C137.346 38.2488 135.971 38.4897 134.586 38.4897C132.39 38.4897 130.821 37.9565 129.877 36.889C128.943 35.8413 128.476 34.0403 128.476 31.485V31.1456H139.249Z" fill="#013476"></path></svg>