<svg width="100" height="100" id="Layer_1" data-name="Layer 1" xmlns="http://www.w3.org/2000/svg" version="1.1" viewBox="0 0 310.86 310.86">
    <defs>
      <style>
        .cls-1 {
          fill: #003767;
        }

        .cls-1, .cls-2 {
          stroke-width: 0px;
        }

        .cls-2 {
          fill: #fff;
        }
      </style>
    </defs>
    <rect class="cls-1" x="65.74" y="65.74" width="179.39" height="179.39" transform="translate(155.43 -64.38) rotate(45)"></rect>
    <g>
      <g>
        <path class="cls-2" d="M110.99,117.08h-16.39l-12.09,73.57h13.29l2.32-15.41h8.94l2.22,15.41h13.8l-12.09-73.57ZM105.42,162.7h-5.55l2.85-21.55,2.7,21.55Z"></path>
        <path class="cls-2" d="M132.09,103.89l6.81,59.3c.57,4.97.99,10.07.99,15.75v1.99c.57-10.36.85-16.88,1.28-19.72l7.66-57.32h13.19l8.23,59.3c.71,4.97.99,10.92.99,17.74.43-8.37.71-14.9,1.27-19.72l6.39-57.32h14.61l-15.61,100.16h-12.91l-8.51-58.17c-.57-3.97-.99-9.93-.99-17.74-.57,10.93-.99,17.45-1.28,19.73l-8.23,56.18h-12.91l-15.75-100.16h14.75Z"></path>
        <path class="cls-2" d="M217.75,149.65l-.68-.66c-5.76-5.56-9.92-9.59-9.92-15.27,0-3.23,1.81-5.31,4.61-5.31s4.39,1.26,4.81,7.71l.09,1.33,13.13-1.86-.08-1.15c-.83-11.4-7.75-18.77-17.64-18.77s-18.25,8.37-18.25,19.06c0,10.08,6.16,16.24,13.95,24.03l1.06,1.05c5.09,5.07,8.45,8.42,8.45,13.49,0,3.41-2.16,5.62-5.51,5.62-2.72,0-5.55-1.12-6.02-9.41l-.08-1.36-12.9,1.99.04,1.1c.52,13.04,7.76,20.82,19.36,20.82,10.58,0,18.25-7.97,18.25-18.96,0-10.35-5.01-16-12.66-23.45Z"></path>
      </g>
      <g>
        <polygon class="cls-2" points="34.89 155.43 34.89 155.43 0 155.43 0 155.43 155.43 310.86 155.43 275.97 34.89 155.43"></polygon>
        <polygon class="cls-2" points="275.97 155.43 310.86 155.43 155.43 0 155.43 34.89 275.97 155.43"></polygon>
        <polygon class="cls-2" points="155.43 34.89 155.43 0 0 155.43 34.89 155.43 155.43 34.89"></polygon>
        <polygon class="cls-2" points="275.97 155.43 275.97 155.43 155.43 275.97 155.43 310.86 310.86 155.43 310.86 155.43 275.97 155.43"></polygon>
      </g>
    </g>
    <path class="cls-2" d="M310.86,128.45c0,4.79-3.76,8.54-8.65,8.54s-8.7-3.76-8.7-8.54,3.86-8.44,8.7-8.44,8.65,3.76,8.65,8.44ZM295.68,128.45c0,3.76,2.78,6.74,6.59,6.74s6.43-2.98,6.43-6.69-2.73-6.79-6.48-6.79-6.53,3.04-6.53,6.74ZM300.88,132.87h-1.96v-8.44c.77-.15,1.85-.26,3.24-.26,1.6,0,2.32.26,2.93.62.46.36.82,1.03.82,1.85,0,.93-.72,1.65-1.75,1.96v.1c.82.31,1.29.93,1.54,2.06.26,1.29.41,1.8.62,2.11h-2.11c-.26-.31-.41-1.08-.67-2.06-.15-.93-.67-1.34-1.75-1.34h-.93v3.4ZM300.93,128.09h.93c1.08,0,1.95-.36,1.95-1.24,0-.77-.56-1.29-1.8-1.29-.52,0-.88.05-1.08.1v2.42Z"></path>
  </svg>