<svg xmlns="http://www.w3.org/2000/svg" xmlns:xlink="http://www.w3.org/1999/xlink" width="124" height="74" viewBox="0 0 124 74">
    <defs>
        <path id="a" d="M0 .358h58.368v23.278H0z"/>
        <path id="c" d="M.17 1.141h14.117V35.73H.17z"/>
        <path id="e" d="M.996.732h121.372V3.62H.996z"/>
    </defs>
    <g fill="none" fill-rule="evenodd">
        <g transform="translate(0 31.637)">
            <mask id="b" fill="#fff">
                <use xlink:href="#a"/>
            </mask>
            <path fill="#fff" d="M21.55.358C13.502.358 6.059 2.712 0 4.245c.735.488 1.47-.47 2.205.02C7.4 3.098 13.534 2.42 20.105 2.42c18.742 0 34.379 5.082 34.379 11.854 0 3.533-4.583 7.122-11.198 9.362 9.143-2.348 15.082-6.128 15.082-10.396C58.368 6.123 41.884.358 21.55.358" mask="url(#b)"/>
        </g>
        <path fill="#fff" d="M8.756 48.751h2.87l10.988-25.934 9.937 25.918c2.992-.08 3.321 1.471 4.714 1.724L24.753 18.442H13.534v.702c2.277.494 6.892.867 6.892 1.94 0 .658-.363 1.486-.682 2.228L8.756 48.752z"/>
        <path fill="#fff" d="M7.967 62.781c.09.179.18.446.196.577l.016.106-.122.145c-.261.32-.751.761-1.656.795-.327.007-.685-.05-.98-.201l-.178-.1.302-.501.121.071c.246.138.49.222.857.222.368 0 .75-.222.882-.363l.097-.104-.024-.104a1.538 1.538 0 0 0-.18-.453 3.353 3.353 0 0 0-.327-.453l-.203-.245c-.163-.2-.326-.416-.408-.577a1.713 1.713 0 0 1-.163-.438l-.025-.12.082-.089a2.523 2.523 0 0 1 1.166-.724 3.604 3.604 0 0 1 1.264-.134l.181.016-.18.515-.26-.014a2.862 2.862 0 0 0-.653.033 1.747 1.747 0 0 0-.8.356l-.107.09.026.091c.024.112.097.279.195.418.098.14.196.243.334.418l.204.252c.148.186.278.368.343.515"/>
        <path fill="#fff" d="M5.322 64.083l.127.07c.244.126.56.195.897.195l.054-.001c.671-.025 1.214-.286 1.613-.775l.105-.125-.011-.08a2.231 2.231 0 0 0-.192-.56v-.003c-.055-.123-.165-.287-.335-.502l-.204-.252a6.287 6.287 0 0 0-.144-.175c-.07-.084-.132-.158-.193-.246a1.341 1.341 0 0 1-.205-.44l-.033-.122.133-.114c.21-.178.52-.316.829-.368.311-.049.5-.043.664-.035l.217.013.142-.405-.107-.01a3.58 3.58 0 0 0-1.243.132c-.5.135-.916.454-1.14.707l-.062.069.019.09c.023.12.072.25.158.424.066.131.198.318.4.568l.204.244c.136.165.243.306.332.46.08.13.147.299.187.47l.031.134-.12.125c-.147.16-.55.381-.921.381-.339 0-.595-.066-.885-.229l-.075-.043-.242.403zm1.025.378c-.354 0-.69-.072-.951-.207l-.234-.13.363-.6.17.1c.198.11.436.214.829.214.333 0 .708-.204.839-.345l.076-.082-.017-.074a1.451 1.451 0 0 0-.174-.435 3.195 3.195 0 0 0-.321-.447l-.203-.245c-.209-.257-.345-.448-.416-.588a1.813 1.813 0 0 1-.167-.454l-.031-.147.1-.111a2.604 2.604 0 0 1 1.195-.74c.418-.12.848-.166 1.283-.136l.254.023-.218.625-.303-.017c-.165-.006-.34-.014-.64.033a1.7 1.7 0 0 0-.773.343l-.079.066.017.056c.02.097.086.256.186.4.06.083.119.155.187.238.045.052.092.11.146.178l.204.252c.179.224.29.392.35.526.09.18.183.453.201.595l.02.129-.14.165c-.42.514-.991.789-1.698.815h-.055zM12.092 63.826h1.658l-.147.476H11.34l1.2-3.835v-.349h2.286l-.147.455h-1.576l-.432 1.36h1.583l-.147.452h-1.567z"/>
        <path fill="#fff" d="M11.418 64.245h2.143l.112-.361h-1.659l.484-1.556h1.569l.11-.338h-1.583l.469-1.474h1.576l.11-.342h-2.151l-.002.31-1.178 3.76zm2.227.114h-2.382l.023-.075 1.198-3.826v-.397h2.422l-.183.568h-1.576l-.396 1.246h1.583l-.183.567h-1.568l-.414 1.327h1.658l-.182.59zM18.43 64.301h-.73l1.164-3.694h-1.211l.163-.49h2.99l-.163.49h-1.172l-1.04 3.346z"/>
        <path fill="#fff" d="M17.78 64.244h.594l.002-.309 1.052-3.385h1.174l.125-.375h-2.87l-.125.375h1.21l-.024.075-1.139 3.62zm.707.115h-.864l.024-.075 1.139-3.62h-1.213l.202-.604h3.111l-.202.605h-1.171l-1.026 3.297v.397zM23.974 64.301h-.73l1.164-3.694h-1.213l.165-.49h2.99l-.164.49h-1.171l-1.041 3.346z"/>
        <path fill="#fff" d="M23.322 64.244h.595l.002-.309 1.054-3.385h1.172l.126-.375H23.4l-.127.375h1.213l-1.165 3.694zm.708.115h-.864l1.164-3.694h-1.215l.204-.605h3.11l-.202.605h-1.17l-1.027 3.297v.397zM30.285 60.118l-1.236 3.835v.348h-.744l1.228-3.834v-.35z"/>
        <path fill="#fff" d="M28.383 64.244h.608l.002-.309 1.214-3.76h-.618l-.002.309-1.204 3.76zm.722.115h-.879l.025-.075 1.225-3.827v-.397h.889l-1.26 3.902v.397zM35.77 64.301l-.12-.14c-.187-.216-.422-.613-.607-1.08a5.761 5.761 0 0 1-.365-1.95v-.386l-.99 3.208v.348H33l1.305-4.183h.899v.28c0 .592.024 1.29.203 1.951.146.557.364.984.485 1.172l.065.097.973-3.152v-.348h.704l-1.32 4.183h-.543z"/>
        <path fill="#fff" d="M35.797 64.244h.475l1.284-4.069h-.569l-.002.309-1.008 3.267-.132-.198a4.452 4.452 0 0 1-.492-1.19c-.182-.664-.206-1.366-.206-1.965v-.223h-.8l-1.27 4.07h.554l.002-.31.99-3.207.112.016v.386c0 .615.142 1.37.361 1.93.169.425.397.832.597 1.063l.104.121zm.558.115h-.61l-.138-.16c-.209-.24-.445-.66-.617-1.097a5.864 5.864 0 0 1-.37-1.972v-.006l-.875 2.838v.397h-.823l.023-.075 1.318-4.224h.998v.338c0 .591.024 1.283.202 1.936.134.514.34.941.476 1.152l.934-3.029v-.397h.84l-1.358 4.299zM43.68 60.084l.514.034-.188.524-.462-.034c-1.285-.093-2 .452-2.26 1.393-.204.731.121 1.395.39 1.729l.114.139.105-.02c.26-.05.57-.182.894-.383.374-.237.537-.53.593-.698l.058-.153H42.42l.147-.44h1.601l-.121.419c-.146.523-.406.906-.813 1.184-.528.372-1.22.572-1.504.62l-.219.042-.161-.174c-.553-.592-.904-1.394-.733-2.229.277-1.325 1.56-2.05 3.064-1.953"/>
        <path fill="#fff" d="M43.415 60.133c-1.412 0-2.498.748-2.742 1.916-.15.735.112 1.527.718 2.179l.141.15.188-.036c.225-.038.93-.222 1.48-.611.397-.272.648-.637.792-1.153l.1-.346h-1.484l-.108.326h1.02l-.087.23c-.032.098-.173.447-.615.727-.331.205-.648.34-.914.39l-.14.026-.134-.164c-.322-.4-.597-1.079-.401-1.78.283-1.027 1.083-1.522 2.318-1.436l.42.031.148-.411-.438-.03a3.863 3.863 0 0 0-.262-.008zm-1.925 4.37l-.182-.198c-.633-.678-.905-1.508-.747-2.279.27-1.298 1.524-2.102 3.124-1.999l.587.039-.227.637-.506-.038c-1.194-.084-1.929.37-2.2 1.353-.184.66.075 1.298.38 1.676l.091.113.073-.014c.254-.048.554-.178.875-.376.408-.258.538-.576.568-.666l.029-.078H42.34l.186-.554h1.718l-.144.49c-.148.535-.421.933-.835 1.217-.508.357-1.19.572-1.527.63l-.249.048zM52.206 64.301h-.73l1.165-3.694h-1.214l.164-.49h2.992l-.164.49h-1.171l-1.042 3.346z"/>
        <path fill="#fff" d="M51.555 64.244h.595l.002-.309 1.053-3.385h1.173l.125-.375h-2.871l-.125.375h1.212l-1.164 3.694zm.708.115h-.865l1.165-3.694h-1.215l.202-.605h3.112l-.202.605h-1.17l-1.027 3.297v.397zM57.714 62.385l-.487 1.567v.349h-.707l1.194-3.834v-.35h.706l-.56 1.8h1.85l.455-1.45v-.35h.705l-1.192 3.835v.349h-.707l.6-1.916z"/>
        <path fill="#fff" d="M59.05 64.243h.571l.002-.307 1.17-3.762h-.571l-.003.31-.468 1.49h-1.968l.56-1.8h-.572l-.002.31-1.172 3.76h.572l.002-.308.5-1.608h1.979l-.6 1.915zm.684.115h-.841l.6-1.916h-1.737l-.473 1.52v.396h-.841l.024-.075 1.191-3.825v-.398h.84l-.559 1.8h1.73l.44-1.402v-.398h.84l-.023.075-1.19 3.826v.397zM64.32 63.826h1.657l-.146.476h-2.263l1.2-3.835v-.349h2.288l-.147.455h-1.577l-.432 1.36h1.583l-.147.452H64.77z"/>
        <path fill="#fff" d="M63.646 64.245h2.142l.112-.361h-1.658l.484-1.556h1.568l.11-.338h-1.582l.468-1.474h1.578l.11-.342h-2.153l-.002.31-1.177 3.76zm2.227.114h-2.382l.023-.075 1.197-3.826v-.397h2.424l-.184.568h-1.577l-.397 1.246h1.585l-.184.567H64.81l-.413 1.327h1.658l-.182.59zM74.804 62.781c.09.179.18.446.196.577l.017.106-.122.145c-.262.32-.75.761-1.656.795-.326.007-.686-.05-.979-.201l-.179-.1.301-.501.123.071c.244.138.49.222.856.222.368 0 .752-.222.881-.363l.098-.104-.025-.104a1.562 1.562 0 0 0-.178-.453 3.733 3.733 0 0 0-.327-.453l-.204-.245c-.163-.2-.327-.416-.408-.577a1.723 1.723 0 0 1-.163-.438l-.025-.12.082-.089a2.523 2.523 0 0 1 1.167-.724 3.601 3.601 0 0 1 1.264-.134l.18.016-.18.515-.261-.014a2.864 2.864 0 0 0-.653.033c-.325.056-.62.204-.8.356l-.105.09.025.091c.024.112.098.279.195.418.098.14.196.243.335.418l.203.252c.147.186.278.368.342.515"/>
        <path fill="#fff" d="M72.16 64.083l.128.07c.244.126.56.195.897.195l.053-.001c.67-.025 1.214-.286 1.612-.775l.107-.125-.013-.08a2.1 2.1 0 0 0-.191-.56l-.001-.003c-.068-.158-.223-.362-.334-.502l-.203-.252a9.866 9.866 0 0 0-.144-.175 3.338 3.338 0 0 1-.193-.246 1.323 1.323 0 0 1-.204-.44l-.034-.122.133-.114c.208-.176.525-.316.827-.368a2.87 2.87 0 0 1 .664-.035l.22.013.14-.405-.106-.01a3.63 3.63 0 0 0-1.243.132 2.46 2.46 0 0 0-1.14.707l-.063.069.018.09c.025.125.075.255.16.424.065.131.201.323.401.567l.204.245c.159.195.251.324.332.46.082.137.148.305.184.47l.031.134-.118.125c-.145.16-.547.381-.923.381-.34 0-.595-.066-.884-.229l-.074-.043-.242.403zm1.025.378c-.355 0-.69-.072-.95-.207l-.233-.13.36-.6.172.1c.27.151.51.214.827.214.338 0 .71-.204.84-.345l.076-.082-.017-.074a1.546 1.546 0 0 0-.17-.437 3.846 3.846 0 0 0-.324-.446l-.203-.244c-.21-.254-.345-.447-.416-.588a1.785 1.785 0 0 1-.168-.453l-.03-.148.101-.111c.235-.264.671-.598 1.195-.74.417-.121.85-.168 1.282-.136l.254.023-.218.625-.303-.017c-.168-.006-.34-.014-.64.033a1.695 1.695 0 0 0-.773.343l-.078.066.016.056c.02.097.085.256.186.4.06.084.12.156.188.238.044.054.092.11.145.178l.203.252c.184.233.291.394.35.526.092.184.185.456.2.595l.02.129-.139.165c-.42.514-.99.789-1.696.815h-.057zM79.409 64.301h-.73l1.164-3.694h-1.212l.163-.49h2.991l-.164.49h-1.17l-1.042 3.346z"/>
        <path fill="#fff" d="M78.757 64.244h.595l.003-.309 1.053-3.385h1.173l.125-.375h-2.871l-.124.375h1.21l-1.164 3.694zm.708.115h-.864l1.164-3.694h-1.213l.2-.605h3.113l-.203.605h-1.17l-1.027 3.297v.397zM85.82 63.225h-1.592l-.801 1.152-.595-.141 2.987-4.118h.833l-.082.337a8.137 8.137 0 0 0-.204 2.35c.04.65.138 1.063.204 1.306l.041.14-.597.126-.04-.127a4.498 4.498 0 0 1-.074-.348 7.738 7.738 0 0 1-.064-.538l-.017-.139zm.178-2.547l-1.453 2.093h1.225v-.14c0-.2 0-.294.025-.685.024-.327.08-.746.138-1.003l.065-.265z"/>
        <path fill="#fff" d="M84.655 62.714h1.058v-.084c0-.203 0-.294.025-.688.024-.328.077-.724.132-.98l-1.215 1.752zm1.172.115h-1.392l1.516-2.184.102.046-.065.264a8.001 8.001 0 0 0-.136.996c-.025.387-.025.479-.025.679v.199zm-2.899 1.37l.473.113.796-1.144h1.672l.023.188c.007.132.039.356.064.538.024.135.05.245.073.343l.023.073.487-.103-.023-.081a6.177 6.177 0 0 1-.207-1.318c-.05-.768.02-1.564.206-2.366l.065-.267h-.731l-2.92 4.024zm3.047.244l-.055-.175a4.321 4.321 0 0 1-.077-.357 7.034 7.034 0 0 1-.064-.544l-.01-.085h-1.512l-.806 1.16-.717-.17 3.056-4.212h.935l-.098.408a8.038 8.038 0 0 0-.205 2.333 6.17 6.17 0 0 0 .203 1.295l.058.199-.708.148zM92.592 64.301l-.121-.14c-.187-.216-.423-.613-.608-1.08a5.73 5.73 0 0 1-.364-1.95v-.386l-.99 3.208v.348h-.688l1.304-4.183h.899v.28c0 .592.024 1.29.202 1.951.146.557.366.984.488 1.172l.064.097.972-3.152v-.348h.706l-1.32 4.183h-.544z"/>
        <path fill="#fff" d="M92.618 64.244h.476l1.283-4.069h-.57l-.002.309-1.009 3.268-.13-.2a4.433 4.433 0 0 1-.496-1.189c-.18-.668-.203-1.368-.203-1.965v-.223h-.8l-1.269 4.07h.554l.003-.31.99-3.207.111.016v.386c0 .62.141 1.376.36 1.93.167.423.396.83.598 1.063l.104.121zm.559.115h-.61l-.14-.16c-.209-.242-.446-.662-.617-1.097a5.722 5.722 0 0 1-.368-1.972v-.006l-.875 2.838v.397h-.824l.023-.075 1.316-4.224h1v.338c0 .59.023 1.28.199 1.936.134.508.34.937.478 1.151l.934-3.028v-.397h.84l-1.356 4.299zM98.416 64.335l-1.278.022 1.199-3.89v-.349h2.573l.162.337c.324.668.324 1.56.033 2.21-.543 1.183-1.757 1.656-2.689 1.67zm.502-3.761l-1.002 3.274h.34c.727 0 1.618-.244 2.144-1.15.43-.74.316-1.575.122-1.965l-.082-.159h-1.522z"/>
        <path fill="#fff" d="M97.993 63.79h.261c.54 0 1.53-.145 2.096-1.121.424-.728.304-1.542.12-1.911l-.064-.127H98.96l-.968 3.16zm.261.115h-.416l.023-.075 1.015-3.314h1.6l.097.19c.195.393.323 1.253-.123 2.02-.596 1.026-1.631 1.18-2.196 1.18zm.14-3.73l-.002.309-1.177 3.814 1.2-.02c.877-.013 2.093-.451 2.638-1.638.292-.65.278-1.52-.032-2.16l-.147-.305h-2.48zm-1.334 4.24l.023-.076 1.197-3.882v-.397h2.665l.18.37c.323.67.336 1.577.032 2.258-.567 1.235-1.831 1.69-2.739 1.704l-1.358.023zM106.646 63.225h-1.592l-.799 1.152-.596-.141 2.987-4.118h.833l-.082.337a8.18 8.18 0 0 0-.204 2.35c.04.65.14 1.063.204 1.306l.041.14-.597.126-.04-.127a4.563 4.563 0 0 1-.073-.348 8.68 8.68 0 0 1-.066-.538l-.016-.139zm.18-2.547l-1.452 2.093h1.223v-.14a8.183 8.183 0 0 1 .164-1.688l.064-.265z"/>
        <path fill="#fff" d="M105.483 62.714h1.057v-.084c0-.203 0-.294.025-.688a8.38 8.38 0 0 1 .132-.98l-1.214 1.752zm1.171.115h-1.39l1.514-2.184.102.046-.065.264c-.054.251-.112.669-.136.996-.025.387-.025.479-.025.679v.199zm-2.898 1.37l.475.113.794-1.144h1.672l.022.19c.009.14.046.397.065.536.027.15.053.262.072.343l.024.073.486-.103-.023-.081c-.07-.26-.168-.68-.207-1.318a8.244 8.244 0 0 1 .206-2.366l.065-.267h-.731l-2.92 4.024zm3.046.244l-.055-.175a4.55 4.55 0 0 1-.076-.357 7.81 7.81 0 0 1-.066-.544l-.01-.085h-1.51l-.805 1.16-.717-.17 3.054-4.212h.935l-.099.408a8.054 8.054 0 0 0-.203 2.333c.039.62.129 1.018.202 1.295l.06.197-.71.15zM112.457 62.8l-.04-.137h-.66l-.399 1.289v.348h-.709l1.197-3.833v-.349h2.216l.106.211c.187.375.276.89.041 1.337-.244.46-.734.704-1.06.808l-.146.048.088.315c.043.146.204.473.328.627.154.202.406.48.936.431l.138-.014-.162.49-.26.011c-.49.022-.921-.257-1.205-.675a3.041 3.041 0 0 1-.409-.906zm-.04-2.227l-.522 1.637h.236c.61 0 1.019-.155 1.344-.453.31-.285.326-.738.204-1.045l-.057-.14h-1.206z"/>
        <path fill="#fff" d="M111.973 62.152h.158c.573 0 .975-.135 1.305-.438.292-.267.303-.697.19-.981l-.042-.103h-1.126l-.485 1.522zm.158.115h-.315l.558-1.752h1.284l.074.175c.126.32.113.804-.22 1.11-.35.323-.777.467-1.381.467zm-.417.339h.744l.054.18c.094.341.227.632.4.889.284.416.684.651 1.105.651l.05-.001.221-.01.123-.369-.05.006a1.394 1.394 0 0 1-.121.005c-.517 0-.759-.317-.867-.458a2.578 2.578 0 0 1-.337-.646l-.102-.368.198-.065c.22-.071.765-.29 1.026-.782.194-.365.177-.844-.042-1.284l-.09-.179h-2.124l-.002.309-1.173 3.759h.574l.003-.308.41-1.329zm2.303 1.835c-.46 0-.894-.254-1.199-.702a3.077 3.077 0 0 1-.416-.922l-.028-.096h-.576l-.382 1.24v.397h-.844l.023-.075 1.194-3.826v-.396h2.309l.12.242c.236.472.25.992.041 1.39-.282.53-.857.761-1.092.836l-.095.03.075.263c.04.142.203.463.316.607.174.226.41.454.888.409l.225-.023-.204.61-.3.015h-.055zM118.69 64.335l-1.279.022 1.198-3.89v-.349h2.574l.162.337c.324.668.324 1.56.033 2.21-.543 1.183-1.757 1.656-2.688 1.67zm.502-3.761l-1.003 3.274h.34c.728 0 1.618-.244 2.145-1.15.43-.74.315-1.575.121-1.965l-.082-.159h-1.521z"/>
        <path fill="#fff" d="M118.266 63.79h.263c.54 0 1.529-.145 2.096-1.121.422-.728.303-1.542.119-1.911l-.066-.127h-1.444l-.968 3.16zm.263.115h-.418l.024-.075 1.014-3.314h1.6l.097.19c.195.393.323 1.253-.122 2.02-.596 1.026-1.63 1.18-2.195 1.18zm.137-3.73l-.004.309-1.173 3.814 1.2-.02c.876-.013 2.094-.451 2.638-1.638.29-.65.277-1.52-.033-2.16l-.147-.305h-2.48zm-1.331 4.24l.022-.076 1.194-3.882v-.397h2.669l.178.37c.322.67.337 1.576.032 2.258-.567 1.235-1.83 1.69-2.739 1.704l-1.356.023z"/>
        <path fill="#fff" d="M60.626 3.03c-2.697 1.443-4.177 3.941-3.339 5.53.843 1.59 4.002 1.71 6.699.268 2.696-1.442 3.914-3.898 3.073-5.486-.84-1.59-3.732-1.751-6.433-.312m3.173 5.765c-2.478 1.322-5.62 1.115-6.389-.338-.77-1.456.864-3.892 3.338-5.213 2.478-1.323 5.344-1.373 6.238.312.771 1.454-.713 3.917-3.187 5.24"/>
        <path fill="#fff" d="M63.545 3.473c-8.957 3.589-13.66 13.148-11.396 21.101l.223-.193c-2.696-7.503 2.92-17.29 11.545-20.717 9.668-3.841 18.04.937 20.797 8.845l-.024-.02C82.27 3.98 72.827-.247 63.545 3.473"/>
        <path fill="#fff" d="M71.02 11.965c-4.905-6.41-10.781-9.692-12.81-8.587l-.438.244c1.954-1.067 8.444 2.615 13.166 8.814 5.6 7.359 8.283 16.073 7.476 18.857l-.331.777c.094-.128.184-.274.253-.447 1.276-3.117-1.63-12.228-7.315-19.658"/>
        <g transform="translate(58.99 -.935)">
            <mask id="d" fill="#fff">
                <use xlink:href="#c"/>
            </mask>
            <path fill="#fff" d="M14.287 35.603c-5.872.24-12.071-6.704-13.524-16.504C-.233 10.392 3.029 2.65 8.327 1.544c.276-.06.55-.093.828-.115l.064-.288c-.28.024-.557.06-.832.117C2.903 2.418-.827 9.97.407 18.96c1.31 9.51 7.506 17.08 13.726 16.61.145-.01.03.149-.118.16l.272-.127z" mask="url(#d)"/>
        </g>
        <path fill="#fff" d="M77.06 9.006C69.965 2.62 59.493 2.669 53.5 8.22l.269.113c5.792-5.33 16.38-5.146 23.183 1.02 7.352 6.958 7.61 16.813 1.47 22.53l.007-.027c6.42-5.937 5.982-16.23-1.37-22.851"/>
        <path fill="#fff" d="M84.218 11.15c.008.117.017.236.02.355.01.29.626 2.645.134 4.564-.858 3.981-3.775 7.663-8.122 10.589-5.852 3.935-12.766 5.564-17.892 3.55-1.755-.487-3.25-1.655-4.323-2.886a7.773 7.773 0 0 1-.68-.9c.302.575.663 1.166 1.13 1.672 4.311 4.658 14.167 4.124 21.983-1.136 6.719-4.52 9.76-11.092 7.75-15.808M50.869 16.398c.022.042.042.083.066.123 2.291 4.23 9.785 4.498 16.842.575 7.127-3.959 10.72-10.437 8.51-14.785l-.409-.05c2.085 4.09-1.32 10.723-8.072 14.472-6.747 3.753-14.504 3.629-16.584-.463l-.353.128z"/>
        <g transform="translate(1.204 70.24)">
            <mask id="f" fill="#fff">
                <use xlink:href="#e"/>
            </mask>
            <path fill="#fff" d="M.996.732h121.372L62.57 3.62z" mask="url(#f)"/>
        </g>
        <path fill="#fff" d="M66.46 24.085c0-3.315-3.449-3.44-7.472-4.185v-.706h12.913l9.276 13.247h.091l8.828-13.247h5.527v29.638h-3.975V21.39h-.091l-9.33 15.11-1.804 2.329-11.492-17.44h-.093v27.442h-2.377V24.085zM46.937 32.874c-2.202-1.617-3.863-3.474-3.863-6.466 0-3.432 2.25-5.629 5.56-5.629 3.218 0 6.16 1.52 7.585 2.31v-3.943c-1.334-.338-3.814-.899-6.802-.899-6.114 0-10.023 3.377-10.023 9.514 0 1.313.197 2.454.532 3.475 2.518.452 4.87 1.001 7.011 1.638M116.848 46.981h-4.825c-3.26 0-3.66 0-3.66-2.54v-9.206h7.853v-2.238h-7.854v-9.184c0-2.365.176-2.891 2.727-2.891h4.682c3.71 0 3.665 1.358 4.114 3.635h1.385l-.225-5.342H97.548v.743c3.885.527 6.926 1.36 6.926 3.855V48.69h17.328l.316-5.955s-2.233 4.247-5.27 4.247"/>
    </g>
</svg>
