<svg id="svg" version="1.1" xmlns="http://www.w3.org/2000/svg" xmlns:xlink="http://www.w3.org/1999/xlink" width="400" height="223.25581395348837" viewBox="0, 0, 400,223.25581395348837"><g id="svgg"><path id="path0" d="M235.583 59.610 C 232.754 60.471,231.234 63.561,232.173 66.545 C 232.558 67.767,241.601 85.882,245.047 92.333 C 245.415 93.021,246.579 95.271,247.634 97.333 C 248.689 99.396,250.010 101.908,250.568 102.917 C 251.127 103.925,251.734 105.041,251.917 105.396 C 253.654 108.766,257.354 109.536,261.557 107.401 C 263.494 106.417,265.489 105.337,266.969 104.471 C 267.731 104.025,268.856 103.400,269.469 103.082 C 270.082 102.764,270.921 102.304,271.333 102.061 C 271.746 101.818,272.421 101.432,272.833 101.203 C 273.555 100.803,274.834 100.083,279.333 97.543 C 280.479 96.896,282.092 96.012,282.917 95.579 C 284.947 94.513,285.517 94.028,286.160 92.820 C 287.771 89.798,285.770 86.482,282.466 86.694 C 281.121 86.781,279.312 87.666,270.667 92.470 C 268.933 93.434,262.189 97.096,261.479 97.460 C 260.382 98.023,259.610 97.667,259.135 96.381 C 258.817 95.519,258.295 94.473,250.499 79.083 C 248.271 74.683,245.438 69.058,244.205 66.583 C 240.722 59.595,239.332 58.470,235.583 59.610 M189.876 59.733 C 186.824 60.731,185.828 62.289,179.915 75.333 C 179.063 77.212,178.088 79.350,177.748 80.083 C 176.832 82.061,174.984 86.168,173.397 89.750 C 172.625 91.492,171.772 93.404,171.501 94.000 C 169.378 98.670,162.000 115.436,162.000 115.592 C 162.000 115.629,161.446 116.917,160.768 118.455 C 160.091 119.992,158.776 123.050,157.846 125.250 C 156.915 127.450,156.036 129.512,155.891 129.833 C 155.746 130.154,154.932 132.029,154.081 134.000 C 153.231 135.971,152.346 137.996,152.116 138.500 C 151.886 139.004,151.159 140.692,150.500 142.250 C 149.841 143.808,149.051 145.646,148.745 146.333 C 148.192 147.576,143.638 158.234,141.552 163.167 C 139.791 167.329,135.528 177.322,135.010 178.500 C 134.748 179.096,133.470 182.096,132.169 185.167 C 130.869 188.237,129.704 190.975,129.581 191.250 C 129.459 191.525,128.708 193.287,127.912 195.167 C 125.813 200.127,124.178 203.928,123.006 206.573 C 121.541 209.880,121.536 210.988,122.983 211.955 C 124.736 213.126,125.212 212.686,127.808 207.500 C 128.886 205.346,132.174 198.783,135.115 192.917 C 143.116 176.957,150.237 162.471,156.868 148.667 C 158.519 145.229,161.053 139.979,162.500 137.000 C 163.946 134.021,165.844 130.083,166.718 128.250 C 167.593 126.417,168.839 123.845,169.487 122.536 C 170.136 121.227,170.667 120.130,170.667 120.100 C 170.667 120.070,171.688 117.953,172.935 115.397 C 174.183 112.841,176.216 108.612,177.452 106.000 C 178.689 103.388,180.361 99.862,181.169 98.167 C 183.531 93.209,186.814 86.214,187.589 84.489 C 190.973 76.961,192.828 77.514,196.085 87.024 C 198.462 93.961,198.599 93.260,191.785 108.917 C 190.828 111.117,189.278 114.679,188.342 116.833 C 187.406 118.987,186.126 121.912,185.498 123.333 C 184.869 124.754,183.181 128.617,181.745 131.917 C 177.709 141.196,177.619 141.402,169.087 160.667 C 166.123 167.359,164.788 170.403,161.884 177.083 C 161.286 178.458,160.430 180.393,159.982 181.382 C 159.533 182.372,159.167 183.208,159.167 183.240 C 159.167 183.273,158.764 184.151,158.271 185.191 C 157.153 187.555,157.109 187.700,157.245 188.609 C 157.430 189.839,158.509 190.833,159.660 190.833 C 160.976 190.833,161.344 190.352,163.668 185.588 C 164.743 183.385,166.580 179.633,167.752 177.250 C 168.923 174.867,170.423 171.792,171.086 170.417 C 171.749 169.042,173.135 166.192,174.166 164.083 C 175.197 161.975,176.435 159.425,176.916 158.417 C 178.443 155.222,179.829 152.344,181.372 149.167 C 182.196 147.471,183.341 145.071,183.917 143.833 C 184.493 142.596,185.453 140.608,186.048 139.417 C 186.644 138.225,187.340 136.800,187.593 136.250 C 187.847 135.700,189.778 131.688,191.883 127.333 C 193.989 122.979,196.516 117.729,197.499 115.667 C 202.292 105.605,202.875 104.726,204.519 105.088 C 205.274 105.253,205.481 105.622,210.879 116.419 C 218.334 131.329,218.040 130.850,220.473 132.040 C 225.382 134.442,229.650 130.017,227.416 124.843 C 226.792 123.397,223.826 116.858,222.952 115.000 C 221.973 112.920,220.587 109.877,219.535 107.500 C 218.988 106.263,218.261 104.650,217.921 103.917 C 212.587 92.423,211.167 88.609,211.167 85.780 C 211.167 80.330,215.809 76.774,218.979 79.796 C 219.837 80.614,219.795 80.538,224.666 90.083 C 225.601 91.917,227.250 95.104,228.329 97.167 C 229.409 99.229,231.382 103.017,232.714 105.583 C 234.046 108.150,235.415 110.775,235.757 111.417 C 236.098 112.058,237.203 114.158,238.212 116.083 C 239.221 118.008,240.205 119.883,240.398 120.250 C 243.769 126.634,245.434 128.313,248.213 128.131 C 251.752 127.900,253.507 124.964,252.424 121.083 C 252.179 120.208,250.441 116.612,244.246 104.167 C 241.492 98.634,232.478 80.591,232.318 80.290 C 232.232 80.129,230.549 76.791,228.578 72.873 C 223.387 62.554,223.255 62.311,222.329 61.345 C 219.952 58.866,216.000 58.901,213.193 61.425 C 212.188 62.329,211.388 63.564,209.952 66.429 C 209.025 68.280,208.315 69.802,205.805 75.311 C 205.291 76.439,205.519 76.787,202.661 70.513 C 199.235 62.992,198.179 61.525,195.177 60.111 C 193.892 59.506,191.165 59.312,189.876 59.733 M251.000 180.664 C 245.198 181.246,241.618 184.744,241.871 189.583 C 242.103 194.023,244.169 195.577,253.083 198.016 C 259.547 199.784,261.029 200.920,260.791 203.924 C 260.558 206.856,257.657 208.714,253.333 208.700 C 248.673 208.685,245.531 206.512,244.831 202.819 C 244.621 201.713,244.799 201.791,242.980 202.004 C 240.661 202.275,240.772 202.205,240.888 203.312 C 241.354 207.769,244.718 211.180,249.656 212.203 C 258.661 214.068,266.260 208.686,264.762 201.503 C 263.881 197.279,261.291 195.600,252.167 193.338 C 247.711 192.233,246.179 191.197,246.034 189.190 C 245.799 185.948,248.044 184.256,252.583 184.254 C 256.718 184.252,258.828 185.585,259.767 188.789 C 260.082 189.866,259.954 189.811,261.750 189.648 C 264.053 189.439,264.022 189.454,263.898 188.621 C 263.103 183.272,257.774 179.985,251.000 180.664 M190.626 180.919 C 186.498 181.701,183.868 184.030,182.920 187.743 C 182.476 189.484,182.449 189.444,184.125 189.573 C 184.927 189.635,185.816 189.725,186.101 189.774 C 186.617 189.861,186.620 189.858,186.899 188.746 C 187.431 186.628,188.354 185.303,189.734 184.674 C 195.094 182.232,200.267 186.924,197.753 191.949 C 196.890 193.673,195.329 195.378,191.862 198.383 C 185.647 203.769,183.956 205.721,182.892 208.738 C 182.599 209.566,182.322 211.444,182.445 211.764 C 182.575 212.104,202.585 212.120,202.715 211.780 C 202.762 211.660,202.776 210.816,202.746 209.905 L 202.693 208.250 195.263 208.207 C 189.223 208.171,187.833 208.122,187.833 207.942 C 187.833 207.168,191.084 203.934,195.594 200.220 C 202.152 194.822,203.986 190.386,201.659 185.554 C 199.894 181.889,195.422 180.010,190.626 180.919 M224.756 180.841 C 220.443 181.517,217.391 184.242,216.671 188.061 C 216.413 189.425,216.326 189.338,218.206 189.603 C 220.562 189.936,220.425 189.976,220.641 188.904 C 222.017 182.049,232.265 182.575,232.245 189.500 C 232.236 192.509,230.505 194.645,223.333 200.497 C 218.881 204.130,216.000 208.381,216.000 211.316 L 216.000 212.000 226.333 212.000 L 236.667 212.000 236.667 210.083 L 236.667 208.167 230.875 208.139 C 221.718 208.096,221.576 208.092,221.635 207.833 C 221.787 207.165,224.608 204.352,227.917 201.568 C 234.156 196.320,235.841 194.141,236.331 190.682 C 237.216 184.444,231.698 179.753,224.756 180.841 M207.598 181.125 C 207.544 181.178,207.500 188.150,207.500 196.616 L 207.500 212.010 209.542 211.963 L 211.583 211.917 211.583 196.500 L 211.583 181.083 209.639 181.055 C 208.570 181.040,207.651 181.071,207.598 181.125 " stroke="none" fill="#317088" fill-rule="evenodd"></path><path id="path1" d="M0.000 111.583 L 0.000 223.167 200.000 223.167 L 400.000 223.167 400.000 111.583 L 400.000 0.000 200.000 0.000 L 0.000 0.000 0.000 111.583 M215.583 22.010 C 221.383 22.479,229.158 24.503,233.750 26.739 C 234.025 26.873,234.625 27.164,235.083 27.385 C 236.856 28.239,238.299 29.036,239.500 29.822 C 243.459 32.414,244.522 32.738,246.932 32.085 C 249.567 31.372,250.805 30.012,252.363 26.117 C 253.768 22.603,253.565 22.833,255.257 22.833 C 256.632 22.833,256.641 22.836,256.735 23.292 C 256.915 24.160,257.327 28.930,257.667 34.083 C 257.854 36.925,258.080 40.075,258.169 41.083 C 258.258 42.092,258.483 45.129,258.669 47.833 C 258.856 50.538,259.231 55.869,259.504 59.680 C 259.777 63.492,260.000 66.911,260.000 67.279 L 260.000 67.947 258.161 68.502 C 256.005 69.152,256.182 69.261,255.587 66.917 C 250.066 45.160,234.454 31.281,213.489 29.492 C 201.497 28.468,187.128 34.849,179.350 44.652 C 170.439 55.885,166.211 71.147,165.727 93.833 C 165.626 98.558,165.623 98.589,165.160 99.667 C 164.904 100.263,164.321 101.688,163.864 102.833 C 163.407 103.979,162.758 105.554,162.422 106.333 C 162.087 107.112,161.335 108.912,160.751 110.333 C 160.167 111.754,159.303 113.779,158.831 114.833 C 158.360 115.888,157.875 117.013,157.753 117.333 C 157.632 117.654,156.916 119.342,156.162 121.083 C 154.809 124.209,154.027 126.062,152.891 128.833 C 152.014 130.974,152.161 131.041,150.674 127.833 C 143.161 111.626,141.486 90.315,146.430 73.834 C 150.496 60.281,156.677 49.630,165.736 40.569 C 170.006 36.298,172.661 34.176,178.327 30.506 C 188.314 24.038,202.013 20.914,215.583 22.010 M239.781 59.689 C 241.173 60.403,241.738 61.345,246.857 71.500 C 249.514 76.771,253.210 84.083,255.071 87.750 C 256.932 91.417,258.736 95.073,259.080 95.875 C 259.425 96.677,259.717 97.333,259.729 97.333 C 259.742 97.333,259.992 97.402,260.285 97.486 C 260.692 97.603,260.947 97.571,261.367 97.350 C 263.503 96.226,269.281 93.100,269.417 92.996 C 269.712 92.769,276.675 88.998,279.061 87.774 C 281.772 86.383,283.135 86.137,284.443 86.804 C 288.005 88.622,287.606 93.334,283.721 95.330 C 283.279 95.557,282.054 96.225,281.000 96.814 C 277.732 98.639,271.054 102.369,268.042 104.051 C 260.667 108.167,259.364 108.721,257.083 108.708 C 254.439 108.692,252.658 107.423,251.296 104.583 C 251.165 104.308,250.673 103.396,250.203 102.556 C 249.734 101.717,248.673 99.692,247.844 98.056 C 247.016 96.421,245.881 94.221,245.322 93.167 C 244.763 92.112,242.876 88.438,241.130 85.000 C 239.383 81.563,236.944 76.764,235.710 74.338 C 231.801 66.654,231.509 65.861,231.825 63.794 C 232.371 60.223,236.584 58.049,239.781 59.689 M194.081 59.590 C 197.245 60.414,199.197 62.640,201.838 68.434 C 204.217 73.654,204.713 74.711,205.062 75.310 L 205.388 75.870 205.596 75.474 C 205.710 75.256,206.445 73.638,207.230 71.879 C 211.863 61.489,213.640 59.417,217.917 59.417 C 222.058 59.417,222.063 59.424,230.379 76.083 C 232.347 80.025,238.009 91.359,242.961 101.269 C 252.659 120.679,252.888 121.186,252.902 123.250 C 252.937 128.740,246.217 130.215,243.211 125.378 C 242.083 123.563,240.129 120.081,238.837 117.583 C 237.319 114.651,236.546 113.181,234.520 109.373 C 233.776 107.974,233.167 106.796,233.167 106.756 C 233.167 106.716,232.689 105.798,232.106 104.717 C 231.522 103.635,230.295 101.287,229.379 99.500 C 228.463 97.712,226.778 94.450,225.635 92.250 C 224.492 90.050,222.702 86.573,221.657 84.522 C 220.609 82.464,219.475 80.473,219.126 80.077 C 217.144 77.825,213.674 78.832,212.043 82.133 L 211.417 83.399 211.420 85.741 C 211.424 88.399,211.751 89.716,213.270 93.173 C 213.691 94.132,214.244 95.404,214.498 96.000 C 214.954 97.069,216.064 99.539,218.581 105.083 C 219.288 106.642,220.074 108.404,220.328 109.000 C 220.581 109.596,221.818 112.296,223.077 115.000 C 224.336 117.704,226.004 121.342,226.783 123.083 L 228.201 126.250 228.135 127.750 C 227.936 132.258,223.680 134.243,219.612 131.724 C 217.857 130.637,218.091 131.038,211.126 117.167 C 204.930 104.829,205.090 105.097,204.027 105.215 C 202.716 105.361,201.271 107.662,198.093 114.669 C 197.823 115.264,196.747 117.513,195.700 119.667 C 194.654 121.821,193.423 124.371,192.965 125.333 C 192.508 126.296,191.587 128.208,190.919 129.583 C 188.855 133.833,185.208 141.410,183.419 145.167 C 182.480 147.137,181.111 149.987,180.377 151.500 C 179.643 153.012,178.160 156.087,177.081 158.333 C 176.001 160.579,173.742 165.219,172.059 168.645 C 170.377 172.070,169.000 174.894,169.000 174.920 C 169.000 174.946,167.363 178.293,165.363 182.358 C 161.157 190.907,161.036 191.086,159.582 190.965 C 157.246 190.771,156.509 188.617,157.840 185.872 C 158.530 184.450,160.616 179.754,162.781 174.750 C 163.376 173.375,164.111 171.688,164.413 171.000 C 164.715 170.313,165.242 169.112,165.583 168.333 C 166.407 166.450,167.975 162.921,169.172 160.250 C 169.707 159.058,170.403 157.483,170.720 156.750 C 172.259 153.188,173.218 151.008,173.578 150.250 C 173.941 149.486,174.750 147.654,175.749 145.333 C 176.265 144.133,177.596 141.118,178.030 140.167 C 178.333 139.501,179.741 136.263,183.283 128.083 C 184.248 125.855,185.268 123.554,186.164 121.583 C 186.331 121.217,186.781 120.167,187.165 119.250 C 187.549 118.333,188.561 116.008,189.414 114.083 C 190.267 112.158,191.659 108.971,192.507 107.000 C 193.354 105.029,194.565 102.217,195.196 100.750 C 198.128 93.941,198.097 91.760,194.962 84.333 C 192.386 78.232,191.016 77.808,188.762 82.417 C 187.115 85.785,185.167 89.850,185.167 89.919 C 185.167 89.953,184.745 90.866,184.230 91.949 C 183.715 93.031,183.034 94.479,182.716 95.167 C 182.399 95.854,181.738 97.242,181.248 98.250 C 180.758 99.258,179.459 101.996,178.361 104.333 C 175.864 109.650,174.957 111.530,168.917 123.917 C 166.824 128.208,165.363 131.248,164.833 132.417 C 164.625 132.875,163.452 135.294,162.227 137.793 C 161.002 140.292,160.000 142.372,160.000 142.416 C 160.000 142.460,159.129 144.278,158.065 146.456 C 157.001 148.635,155.621 151.504,154.998 152.833 C 154.375 154.162,153.361 156.262,152.746 157.500 C 152.130 158.737,150.430 162.188,148.969 165.167 C 137.572 188.400,126.083 211.306,125.543 211.873 C 124.698 212.761,123.270 212.624,122.342 211.567 C 121.507 210.616,121.601 209.507,122.732 206.949 C 124.899 202.050,126.167 199.139,126.167 199.064 C 126.167 198.956,127.432 195.923,127.828 195.083 C 128.000 194.717,128.790 192.879,129.583 191.000 C 130.376 189.121,131.807 185.777,132.762 183.568 C 133.718 181.360,134.500 179.493,134.500 179.418 C 134.500 179.344,134.685 178.901,134.911 178.433 C 135.137 177.966,135.708 176.646,136.181 175.500 C 136.654 174.354,137.094 173.342,137.159 173.250 C 137.224 173.158,137.376 172.821,137.496 172.500 C 137.761 171.790,138.675 169.639,139.337 168.167 C 139.604 167.571,140.128 166.333,140.500 165.417 C 140.872 164.500,141.396 163.262,141.665 162.667 C 142.185 161.513,143.648 158.059,144.666 155.583 C 145.210 154.260,145.844 152.785,147.925 148.000 C 148.224 147.313,148.891 145.737,149.408 144.500 C 149.924 143.262,150.563 141.762,150.828 141.167 C 151.093 140.571,151.572 139.483,151.893 138.750 C 152.214 138.017,152.819 136.652,153.237 135.716 C 154.000 134.012,156.549 128.075,158.660 123.083 C 159.281 121.617,160.167 119.554,160.630 118.500 C 161.092 117.446,161.770 115.871,162.135 115.000 C 162.500 114.129,162.987 113.004,163.216 112.500 C 163.445 111.996,163.836 111.096,164.085 110.500 C 164.634 109.183,167.964 101.631,169.413 98.417 C 169.992 97.133,171.041 94.771,171.744 93.167 C 172.448 91.563,173.538 89.125,174.166 87.750 C 174.795 86.375,175.419 84.987,175.554 84.667 C 176.164 83.211,181.385 71.818,183.038 68.333 C 183.408 67.554,183.923 66.446,184.183 65.872 C 186.586 60.557,189.848 58.487,194.081 59.590 M261.581 129.208 C 263.349 130.749,263.311 130.442,262.050 132.934 C 258.820 139.316,255.237 144.286,250.343 149.171 C 246.842 152.665,245.515 153.740,241.000 156.734 C 225.777 166.831,206.949 169.234,188.667 163.414 C 185.239 162.322,180.148 160.170,179.695 159.620 C 179.464 159.339,180.172 157.421,181.339 155.167 C 182.172 153.559,184.017 149.614,184.357 148.715 C 185.015 146.977,185.007 146.978,186.917 148.344 C 187.833 149.000,188.696 149.585,188.833 149.643 C 188.971 149.702,189.866 150.194,190.824 150.736 C 208.176 160.564,227.006 159.492,242.333 147.802 C 249.235 142.538,255.698 135.406,258.954 129.462 C 259.917 127.703,259.860 127.709,261.581 129.208 M254.671 180.509 C 259.906 181.162,263.249 184.108,264.063 188.788 C 264.189 189.509,263.949 189.618,261.812 189.820 C 259.839 190.006,259.959 190.062,259.591 188.772 C 258.777 185.916,256.766 184.502,253.333 184.371 C 248.679 184.194,246.167 185.782,246.167 188.900 C 246.167 190.978,247.500 191.987,251.667 193.063 C 256.679 194.358,258.569 194.959,260.250 195.792 C 267.727 199.496,266.369 209.299,258.000 212.024 C 249.929 214.651,241.460 210.357,240.733 203.268 L 240.624 202.202 241.104 202.100 C 241.847 201.942,244.570 201.691,244.697 201.769 C 244.760 201.808,244.900 202.269,245.008 202.795 C 245.778 206.519,248.747 208.548,253.421 208.546 C 258.479 208.544,261.512 205.799,260.496 202.144 C 260.127 200.812,258.154 199.556,255.083 198.697 C 254.075 198.415,252.012 197.839,250.500 197.418 C 245.104 195.913,243.043 194.449,241.982 191.363 C 241.262 189.273,241.795 186.328,243.250 184.351 C 245.375 181.464,249.960 179.922,254.671 180.509 M196.500 181.082 C 203.474 183.289,204.871 191.222,199.305 197.006 C 198.310 198.040,196.330 199.810,194.083 201.672 C 191.475 203.835,188.315 206.995,188.135 207.619 C 188.099 207.745,190.286 207.820,195.389 207.870 C 203.872 207.953,203.018 207.685,202.959 210.250 L 202.917 212.083 192.643 212.126 C 183.463 212.165,182.359 212.142,182.270 211.909 C 182.096 211.455,182.485 209.356,182.979 208.083 C 183.863 205.807,185.995 203.295,189.847 199.992 C 196.946 193.906,198.171 192.326,198.163 189.271 C 198.154 185.850,195.255 183.656,191.578 184.285 C 189.094 184.711,187.802 185.932,187.154 188.465 C 186.739 190.090,186.876 190.010,184.833 189.820 C 182.166 189.572,182.245 189.664,182.845 187.497 C 184.349 182.073,190.499 179.183,196.500 181.082 M229.738 180.907 C 234.591 182.236,237.321 186.396,236.418 191.089 C 235.828 194.158,234.316 196.228,229.825 200.112 C 225.149 204.157,224.110 205.096,223.024 206.259 C 222.369 206.960,221.833 207.601,221.833 207.684 C 221.833 207.769,224.457 207.839,227.958 207.848 C 232.992 207.859,235.550 207.901,236.713 207.990 C 236.785 207.996,236.823 208.919,236.797 210.042 L 236.750 212.083 226.333 212.083 L 215.917 212.083 215.865 211.544 C 215.550 208.288,218.263 204.627,225.652 198.333 C 230.907 193.858,232.077 192.235,232.081 189.417 C 232.091 182.640,221.747 182.376,220.735 189.127 C 220.597 190.043,220.497 190.078,218.710 189.841 C 215.986 189.479,216.110 189.602,216.590 187.743 C 217.981 182.354,223.860 179.298,229.738 180.907 M211.751 181.208 C 211.801 181.415,211.821 188.446,211.796 196.833 L 211.750 212.083 209.583 212.083 L 207.417 212.083 207.374 196.667 C 207.350 188.188,207.366 181.156,207.410 181.042 C 207.576 180.606,211.643 180.762,211.751 181.208 " stroke="none" fill="#fbfbfb" fill-rule="evenodd"></path><path id="path2" d="M208.417 21.955 C 192.193 22.494,178.531 28.302,166.797 39.649 C 145.964 59.794,138.410 91.361,147.649 119.669 C 149.236 124.530,151.937 130.711,152.191 130.062 C 152.489 129.301,156.348 120.243,158.963 114.167 C 160.120 111.478,161.679 107.741,164.665 100.500 L 165.455 98.583 165.556 94.000 C 166.020 72.939,169.584 58.539,177.063 47.500 C 186.608 33.413,204.524 26.367,220.501 30.417 C 231.066 33.095,238.524 37.574,244.924 45.083 C 249.207 50.110,253.811 59.393,255.751 66.917 C 256.011 67.925,256.247 68.780,256.275 68.816 C 256.345 68.906,259.545 67.976,259.736 67.811 C 259.827 67.731,259.809 66.533,259.688 64.798 C 259.578 63.213,259.379 60.267,259.245 58.250 C 259.111 56.233,258.852 52.558,258.671 50.083 C 257.911 39.748,257.651 36.176,257.335 31.750 C 256.960 26.487,256.674 23.314,256.558 23.126 C 256.515 23.057,255.884 23.000,255.155 23.000 L 253.829 23.000 253.499 23.708 C 253.317 24.098,252.825 25.317,252.404 26.417 C 250.821 30.555,248.783 32.343,245.504 32.473 C 243.462 32.553,243.458 32.552,238.530 29.372 C 231.260 24.681,218.794 21.611,208.417 21.955 M259.109 129.542 C 255.051 136.656,247.443 144.632,240.000 149.577 C 229.458 156.579,218.546 159.000,207.000 156.896 C 200.304 155.676,192.617 152.467,186.832 148.478 C 185.183 147.340,185.110 147.324,184.826 148.042 C 184.574 148.678,182.659 152.833,181.465 155.333 C 179.360 159.742,179.384 159.451,181.058 160.270 C 187.543 163.446,196.884 165.871,204.083 166.248 C 205.092 166.301,206.378 166.379,206.942 166.422 C 218.956 167.333,236.448 161.252,246.352 152.723 C 253.113 146.901,257.990 140.675,261.890 132.889 L 262.989 130.694 261.572 129.430 C 259.848 127.892,260.055 127.883,259.109 129.542 " stroke="none" fill="#cb1f38" fill-rule="evenodd"></path><path id="path3" d="M236.083 59.279 C 234.058 59.724,232.092 61.680,231.923 63.417 C 231.842 64.248,231.842 64.249,231.993 63.557 C 232.670 60.454,235.786 58.695,239.007 59.599 C 240.795 60.100,241.382 60.926,244.742 67.667 C 246.273 70.737,247.599 73.325,247.689 73.417 C 247.930 73.662,247.520 72.813,244.531 66.879 C 240.819 59.506,239.685 58.486,236.083 59.279 M191.292 59.455 C 191.681 59.490,192.319 59.490,192.708 59.455 C 193.098 59.420,192.779 59.392,192.000 59.392 C 191.221 59.392,190.902 59.420,191.292 59.455 M215.914 59.623 C 214.224 60.228,212.268 61.792,211.688 63.004 L 211.490 63.417 211.777 63.000 C 215.250 57.949,221.223 58.387,224.011 63.896 C 224.481 64.824,224.942 65.658,225.036 65.750 C 225.131 65.842,224.771 65.054,224.237 64.000 C 222.252 60.083,219.168 58.461,215.914 59.623 M194.847 59.895 C 195.019 60.049,196.000 60.500,196.000 60.425 C 196.000 60.329,195.076 59.833,194.897 59.833 C 194.832 59.833,194.809 59.861,194.847 59.895 M187.900 60.645 C 187.543 60.908,187.025 61.375,186.750 61.683 C 186.395 62.080,186.492 62.025,187.083 61.496 C 187.542 61.085,188.104 60.622,188.333 60.467 C 188.563 60.311,188.705 60.180,188.650 60.175 C 188.595 60.171,188.258 60.382,187.900 60.645 M196.167 60.546 C 196.167 60.578,196.410 60.782,196.708 61.001 C 197.044 61.246,197.160 61.286,197.014 61.106 C 196.792 60.833,196.167 60.420,196.167 60.546 M198.082 62.208 C 198.530 62.735,198.926 63.167,198.962 63.167 C 199.076 63.167,198.054 61.931,197.652 61.583 C 197.440 61.400,197.634 61.681,198.082 62.208 M185.782 62.958 C 185.185 63.918,185.141 64.000,185.226 64.000 C 185.269 64.000,185.535 63.625,185.817 63.167 C 186.100 62.708,186.294 62.333,186.251 62.333 C 186.207 62.333,185.996 62.615,185.782 62.958 M199.410 63.958 C 199.667 64.348,199.909 64.667,199.948 64.667 C 200.068 64.667,199.430 63.652,199.180 63.446 C 199.050 63.338,199.154 63.569,199.410 63.958 M210.838 64.375 C 210.435 65.077,210.141 65.802,210.387 65.486 C 210.586 65.231,211.487 63.500,211.421 63.500 C 211.377 63.500,211.114 63.894,210.838 64.375 M184.575 65.017 C 184.338 65.484,184.172 65.894,184.206 65.929 C 184.241 65.963,184.470 65.580,184.716 65.079 C 184.962 64.577,185.128 64.167,185.084 64.167 C 185.041 64.167,184.812 64.549,184.575 65.017 M231.709 64.917 C 231.711 65.283,231.745 65.414,231.785 65.206 C 231.824 64.999,231.823 64.699,231.781 64.540 C 231.739 64.380,231.707 64.550,231.709 64.917 M200.451 65.745 C 200.697 66.247,200.926 66.629,200.960 66.595 C 201.035 66.520,200.195 64.833,200.082 64.833 C 200.039 64.833,200.205 65.244,200.451 65.745 M208.810 68.434 C 208.078 69.956,207.505 71.227,207.537 71.259 C 207.569 71.292,208.205 70.046,208.951 68.492 C 209.696 66.938,210.269 65.667,210.224 65.667 C 210.179 65.667,209.543 66.912,208.810 68.434 M231.895 66.094 C 231.941 66.375,232.173 67.012,232.409 67.511 C 232.880 68.504,232.836 68.312,232.218 66.667 C 231.994 66.071,231.848 65.813,231.895 66.094 M225.284 66.250 C 225.359 66.433,226.950 69.621,228.820 73.333 C 232.219 80.084,233.023 81.697,233.580 82.881 C 233.743 83.228,233.912 83.477,233.954 83.435 C 234.037 83.352,225.568 66.356,225.307 66.083 C 225.205 65.977,225.197 66.037,225.284 66.250 M183.194 67.924 C 182.914 68.537,182.968 68.667,183.270 68.110 C 183.411 67.850,183.495 67.606,183.457 67.568 C 183.419 67.530,183.300 67.690,183.194 67.924 M201.347 67.583 C 201.347 67.675,201.491 68.012,201.667 68.333 C 201.842 68.654,201.986 68.842,201.986 68.750 C 201.986 68.658,201.842 68.321,201.667 68.000 C 201.491 67.679,201.347 67.492,201.347 67.583 M233.167 69.228 C 233.167 69.408,233.995 71.000,234.089 71.000 C 234.135 71.000,233.974 70.606,233.733 70.125 C 233.268 69.199,233.167 69.039,233.167 69.228 M202.182 69.417 C 202.182 69.508,202.362 69.921,202.583 70.333 C 202.804 70.746,202.985 71.008,202.985 70.917 C 202.985 70.825,202.804 70.412,202.583 70.000 C 202.362 69.587,202.182 69.325,202.182 69.417 M207.194 71.924 C 206.914 72.537,206.968 72.667,207.270 72.110 C 207.411 71.850,207.495 71.606,207.457 71.568 C 207.419 71.530,207.300 71.690,207.194 71.924 M234.333 71.561 C 234.333 71.742,235.162 73.333,235.256 73.333 C 235.301 73.333,235.141 72.940,234.899 72.458 C 234.435 71.533,234.333 71.372,234.333 71.561 M203.847 73.083 C 203.847 73.175,203.991 73.512,204.167 73.833 C 204.342 74.154,204.486 74.342,204.486 74.250 C 204.486 74.158,204.342 73.821,204.167 73.500 C 203.991 73.179,203.847 72.992,203.847 73.083 M206.360 73.757 C 206.081 74.370,206.134 74.501,206.436 73.944 C 206.577 73.683,206.662 73.439,206.623 73.401 C 206.585 73.363,206.467 73.523,206.360 73.757 M247.833 73.727 C 247.833 73.897,248.825 75.833,248.912 75.833 C 248.994 75.833,248.082 73.860,247.930 73.707 C 247.877 73.654,247.833 73.663,247.833 73.727 M235.500 73.897 C 235.500 74.076,235.996 75.000,236.092 75.000 C 236.138 75.000,236.051 74.756,235.900 74.458 C 235.590 73.850,235.500 73.723,235.500 73.897 M180.027 74.757 C 179.748 75.370,179.801 75.501,180.103 74.944 C 180.244 74.683,180.328 74.439,180.290 74.401 C 180.252 74.363,180.134 74.523,180.027 74.757 M204.784 75.125 C 205.126 76.053,205.662 76.333,205.662 75.583 C 205.662 75.492,205.595 75.521,205.514 75.649 C 205.401 75.829,205.305 75.762,205.096 75.358 C 204.804 74.794,204.609 74.648,204.784 75.125 M238.167 79.167 C 239.084 81.000,239.872 82.500,239.918 82.500 C 239.964 82.500,239.251 81.000,238.333 79.167 C 237.416 77.333,236.628 75.833,236.582 75.833 C 236.536 75.833,237.249 77.333,238.167 79.167 M249.000 76.053 C 249.000 76.195,255.391 88.772,255.536 88.917 C 255.628 89.008,254.229 86.140,252.427 82.542 C 249.597 76.892,249.000 75.761,249.000 76.053 M179.194 76.590 C 178.914 77.203,178.968 77.334,179.270 76.777 C 179.411 76.517,179.495 76.273,179.457 76.235 C 179.419 76.196,179.300 76.357,179.194 76.590 M178.200 78.759 C 177.907 79.353,177.670 79.894,177.675 79.961 C 177.679 80.029,177.947 79.569,178.269 78.941 C 178.591 78.313,178.828 77.772,178.794 77.738 C 178.760 77.705,178.493 78.164,178.200 78.759 M215.325 78.893 C 213.998 79.367,212.647 80.566,211.992 81.849 C 211.478 82.858,211.620 82.846,212.177 81.835 C 213.099 80.162,214.552 79.101,216.262 78.851 C 217.097 78.730,217.147 78.705,216.583 78.694 C 216.217 78.687,215.651 78.776,215.325 78.893 M217.500 78.952 C 217.637 79.003,217.900 79.114,218.083 79.198 C 218.411 79.349,218.411 79.348,218.093 79.093 C 217.915 78.950,217.653 78.839,217.510 78.846 C 217.285 78.858,217.284 78.872,217.500 78.952 M192.583 80.000 C 192.941 80.367,193.272 80.667,193.318 80.667 C 193.363 80.667,193.108 80.367,192.750 80.000 C 192.392 79.633,192.062 79.333,192.016 79.333 C 191.970 79.333,192.225 79.633,192.583 80.000 M219.041 79.951 C 219.377 80.336,219.807 80.955,219.996 81.326 C 220.185 81.697,220.377 82.000,220.423 82.000 C 220.654 82.000,219.613 80.339,219.064 79.833 L 218.431 79.250 219.041 79.951 M177.360 80.590 C 177.081 81.203,177.134 81.334,177.436 80.777 C 177.577 80.517,177.662 80.273,177.623 80.235 C 177.585 80.196,177.467 80.357,177.360 80.590 M176.527 82.424 C 176.248 83.037,176.301 83.167,176.603 82.610 C 176.744 82.350,176.828 82.106,176.790 82.068 C 176.752 82.030,176.634 82.190,176.527 82.424 M188.325 82.849 C 188.134 83.225,188.005 83.561,188.040 83.596 C 188.075 83.631,188.267 83.323,188.466 82.913 C 188.921 81.978,188.798 81.923,188.325 82.849 M240.000 82.727 C 240.000 82.908,240.995 84.833,241.088 84.833 C 241.134 84.833,240.936 84.365,240.649 83.792 C 240.105 82.706,240.000 82.534,240.000 82.727 M220.833 82.958 C 220.833 83.038,220.942 83.249,221.075 83.426 C 221.308 83.739,221.313 83.737,221.222 83.372 C 221.127 82.996,220.833 82.683,220.833 82.958 M194.512 83.250 C 194.512 83.342,194.619 83.604,194.750 83.833 C 194.881 84.063,194.988 84.175,194.988 84.083 C 194.988 83.992,194.881 83.729,194.750 83.500 C 194.619 83.271,194.512 83.158,194.512 83.250 M175.694 84.257 C 175.414 84.870,175.468 85.001,175.770 84.444 C 175.911 84.183,175.995 83.939,175.957 83.901 C 175.919 83.863,175.800 84.023,175.694 84.257 M187.694 84.257 C 187.414 84.870,187.468 85.001,187.770 84.444 C 187.911 84.183,187.995 83.939,187.957 83.901 C 187.919 83.863,187.800 84.023,187.694 84.257 M234.167 84.052 C 234.167 84.233,234.990 85.833,235.083 85.833 C 235.177 85.833,234.679 84.716,234.380 84.255 C 234.263 84.074,234.167 83.983,234.167 84.052 M211.226 85.750 C 211.225 86.575,211.254 86.934,211.288 86.547 C 211.323 86.160,211.324 85.485,211.289 85.047 C 211.255 84.609,211.226 84.925,211.226 85.750 M223.166 87.466 C 224.014 89.142,224.736 90.486,224.771 90.452 C 224.847 90.375,222.026 84.818,221.791 84.583 C 221.700 84.492,222.318 85.789,223.166 87.466 M241.167 85.064 C 241.167 85.243,241.663 86.167,241.759 86.167 C 241.804 86.167,241.718 85.923,241.566 85.625 C 241.257 85.017,241.167 84.890,241.167 85.064 M186.784 86.255 C 186.538 86.756,186.372 87.167,186.416 87.167 C 186.528 87.167,187.369 85.480,187.294 85.405 C 187.259 85.371,187.030 85.753,186.784 86.255 M235.336 86.394 C 235.332 86.608,236.209 88.179,236.289 88.100 C 236.326 88.063,236.204 87.744,236.018 87.391 C 235.585 86.571,235.339 86.212,235.336 86.394 M281.250 86.760 C 280.975 86.895,280.900 86.955,281.083 86.895 C 285.790 85.338,288.881 91.343,284.931 94.371 C 283.961 95.114,283.835 95.260,284.475 94.899 C 285.850 94.121,286.892 92.298,286.894 90.667 C 286.896 87.785,283.689 85.565,281.250 86.760 M242.204 87.125 C 242.441 87.675,242.833 88.292,242.833 88.114 C 242.833 87.935,242.176 86.667,242.084 86.667 C 242.042 86.667,242.096 86.873,242.204 87.125 M279.083 87.727 C 278.350 88.124,276.250 89.257,274.417 90.247 C 270.285 92.476,267.833 93.857,267.833 93.955 C 267.833 93.997,268.340 93.750,268.958 93.408 C 269.577 93.065,270.496 92.561,271.000 92.288 C 271.504 92.014,272.554 91.434,273.333 90.999 C 274.112 90.564,275.688 89.717,276.833 89.117 C 279.682 87.625,280.781 87.006,280.583 87.006 C 280.492 87.006,279.817 87.331,279.083 87.727 M185.947 87.924 C 185.555 88.745,185.610 88.885,186.019 88.109 C 186.205 87.757,186.328 87.439,186.292 87.403 C 186.256 87.367,186.100 87.602,185.947 87.924 M239.395 94.458 C 243.952 103.587,244.163 104.000,244.252 104.000 C 244.297 104.000,242.571 100.475,240.417 96.167 C 238.262 91.858,236.463 88.333,236.418 88.333 C 236.373 88.333,237.713 91.090,239.395 94.458 M173.280 89.591 C 172.888 90.412,172.943 90.552,173.353 89.776 C 173.539 89.424,173.661 89.106,173.625 89.070 C 173.589 89.034,173.434 89.268,173.280 89.591 M211.692 89.167 C 211.692 89.304,211.793 89.679,211.917 90.000 C 212.040 90.321,212.141 90.471,212.141 90.333 C 212.141 90.196,212.040 89.821,211.917 89.500 C 211.793 89.179,211.692 89.029,211.692 89.167 M243.833 90.333 C 244.202 91.067,244.541 91.667,244.587 91.667 C 244.633 91.667,244.369 91.067,244.000 90.333 C 243.631 89.600,243.292 89.000,243.246 89.000 C 243.200 89.000,243.465 89.600,243.833 90.333 M255.861 89.630 C 256.202 90.428,257.731 93.324,257.784 93.271 C 257.871 93.184,256.032 89.500,255.901 89.500 C 255.849 89.500,255.831 89.559,255.861 89.630 M184.860 90.257 C 184.581 90.870,184.634 91.001,184.936 90.444 C 185.077 90.183,185.162 89.939,185.123 89.901 C 185.085 89.863,184.967 90.023,184.860 90.257 M225.451 91.912 C 225.697 92.414,225.926 92.796,225.960 92.762 C 226.035 92.687,225.195 91.000,225.082 91.000 C 225.039 91.000,225.205 91.410,225.451 91.912 M244.668 91.958 C 244.668 92.027,244.818 92.308,245.000 92.583 C 245.392 93.176,245.439 93.022,245.079 92.325 C 244.833 91.850,244.665 91.700,244.668 91.958 M183.698 92.758 C 183.196 93.792,183.252 93.936,183.769 92.942 C 184.000 92.498,184.161 92.106,184.126 92.071 C 184.091 92.036,183.899 92.345,183.698 92.758 M212.729 92.167 C 212.875 92.708,213.379 93.843,213.444 93.778 C 213.482 93.741,213.321 93.306,213.087 92.813 C 212.853 92.320,212.692 92.029,212.729 92.167 M171.613 93.424 C 171.222 94.245,171.277 94.385,171.686 93.609 C 171.872 93.257,171.995 92.939,171.959 92.903 C 171.923 92.867,171.767 93.102,171.613 93.424 M226.996 94.917 C 227.571 96.017,228.118 96.992,228.211 97.083 C 228.304 97.175,227.909 96.350,227.333 95.250 C 226.757 94.150,226.210 93.175,226.118 93.083 C 226.025 92.992,226.420 93.817,226.996 94.917 M245.833 94.167 C 246.111 94.717,246.371 95.167,246.411 95.167 C 246.496 95.167,246.202 94.484,245.784 93.708 C 245.269 92.755,245.310 93.129,245.833 94.167 M258.427 94.784 C 258.989 96.018,259.167 96.339,259.167 96.120 C 259.167 95.931,258.020 93.500,257.930 93.500 C 257.882 93.500,258.105 94.078,258.427 94.784 M264.917 95.432 C 263.450 96.216,261.998 97.013,261.690 97.204 C 261.382 97.394,260.895 97.543,260.607 97.536 C 260.166 97.524,260.131 97.548,260.387 97.693 C 260.729 97.885,260.651 97.921,264.958 95.598 C 267.255 94.359,267.877 93.987,267.625 94.003 C 267.602 94.004,266.383 94.647,264.917 95.432 M213.845 94.750 C 213.845 94.842,213.952 95.104,214.083 95.333 C 214.214 95.563,214.322 95.675,214.322 95.583 C 214.322 95.492,214.214 95.229,214.083 95.000 C 213.952 94.771,213.845 94.658,213.845 94.750 M182.360 95.590 C 182.081 96.203,182.134 96.334,182.436 95.777 C 182.577 95.517,182.662 95.273,182.623 95.235 C 182.585 95.196,182.467 95.357,182.360 95.590 M282.750 95.638 C 282.292 95.896,280.867 96.694,279.583 97.412 C 278.300 98.131,276.212 99.307,274.943 100.026 C 273.674 100.745,272.587 101.335,272.526 101.337 C 272.466 101.339,272.229 101.494,272.000 101.682 L 271.583 102.022 272.000 101.817 C 272.382 101.629,276.126 99.543,281.055 96.774 C 282.139 96.165,283.076 95.664,283.138 95.661 C 283.200 95.658,283.396 95.546,283.574 95.411 C 284.105 95.009,283.642 95.137,282.750 95.638 M246.827 95.989 C 246.922 96.166,247.077 96.514,247.171 96.762 C 247.265 97.010,247.383 97.172,247.433 97.123 C 247.530 97.026,246.884 95.667,246.741 95.667 C 246.694 95.667,246.733 95.812,246.827 95.989 M259.264 96.667 C 259.399 97.177,259.645 97.501,259.895 97.497 C 260.031 97.496,260.032 97.461,259.899 97.372 C 259.798 97.305,259.589 97.025,259.435 96.750 C 259.189 96.311,259.168 96.301,259.264 96.667 M215.012 97.417 C 215.012 97.508,215.119 97.771,215.250 98.000 C 215.381 98.229,215.488 98.342,215.488 98.250 C 215.488 98.158,215.381 97.896,215.250 97.667 C 215.119 97.438,215.012 97.325,215.012 97.417 M248.512 99.358 C 249.589 101.503,250.982 104.033,251.207 104.250 C 251.302 104.342,251.029 103.779,250.600 103.000 C 250.171 102.221,249.373 100.702,248.826 99.625 C 248.278 98.548,247.793 97.667,247.747 97.667 C 247.701 97.667,248.045 98.428,248.512 99.358 M228.800 98.292 C 229.122 99.056,231.679 104.000,231.752 104.000 C 231.798 104.000,231.159 102.650,230.333 101.000 C 229.507 99.350,228.797 98.000,228.754 98.000 C 228.712 98.000,228.733 98.131,228.800 98.292 M196.027 98.757 C 195.748 99.370,195.801 99.501,196.103 98.944 C 196.244 98.683,196.328 98.439,196.290 98.401 C 196.252 98.363,196.134 98.523,196.027 98.757 M215.512 98.583 C 215.512 98.675,215.619 98.938,215.750 99.167 C 215.881 99.396,215.988 99.508,215.988 99.417 C 215.988 99.325,215.881 99.063,215.750 98.833 C 215.619 98.604,215.512 98.492,215.512 98.583 M168.694 99.924 C 168.414 100.537,168.468 100.667,168.770 100.110 C 168.911 99.850,168.995 99.606,168.957 99.568 C 168.919 99.530,168.800 99.690,168.694 99.924 M216.345 100.417 C 216.345 100.508,216.452 100.771,216.583 101.000 C 216.714 101.229,216.822 101.342,216.822 101.250 C 216.822 101.158,216.714 100.896,216.583 100.667 C 216.452 100.438,216.345 100.325,216.345 100.417 M179.365 101.925 C 178.863 102.958,178.919 103.103,179.436 102.109 C 179.667 101.664,179.828 101.272,179.793 101.237 C 179.758 101.202,179.565 101.512,179.365 101.925 M217.015 101.917 C 217.015 102.008,217.196 102.421,217.417 102.833 C 217.638 103.246,217.818 103.508,217.818 103.417 C 217.818 103.325,217.638 102.912,217.417 102.500 C 217.196 102.087,217.015 101.825,217.015 101.917 M270.833 102.348 C 270.557 102.575,270.529 102.631,270.750 102.517 C 271.294 102.236,271.595 102.005,271.417 102.006 C 271.325 102.007,271.063 102.161,270.833 102.348 M269.750 102.940 C 268.386 103.649,266.000 105.029,266.000 105.109 C 266.000 105.158,266.319 105.015,266.708 104.790 C 267.098 104.566,268.073 104.028,268.875 103.594 C 269.677 103.161,270.333 102.775,270.333 102.737 C 270.333 102.640,270.314 102.647,269.750 102.940 M193.689 104.189 C 193.492 104.664,193.358 105.080,193.391 105.113 C 193.425 105.147,193.614 104.786,193.811 104.311 C 194.008 103.836,194.142 103.420,194.109 103.387 C 194.075 103.353,193.886 103.714,193.689 104.189 M232.333 105.167 C 232.611 105.717,232.876 106.167,232.921 106.167 C 232.967 106.167,232.778 105.717,232.500 105.167 C 232.222 104.617,231.958 104.167,231.912 104.167 C 231.866 104.167,232.056 104.617,232.333 105.167 M244.342 104.213 C 244.330 104.396,248.709 113.180,248.778 113.111 C 248.809 113.080,247.825 111.036,246.592 108.569 C 245.359 106.102,244.346 104.142,244.342 104.213 M177.865 105.091 C 177.363 106.125,177.419 106.270,177.936 105.275 C 178.167 104.831,178.328 104.439,178.293 104.404 C 178.258 104.369,178.065 104.679,177.865 105.091 M218.178 104.417 C 218.178 104.508,218.286 104.771,218.417 105.000 C 218.548 105.229,218.655 105.342,218.655 105.250 C 218.655 105.158,218.548 104.896,218.417 104.667 C 218.286 104.438,218.178 104.325,218.178 104.417 M251.333 104.649 C 251.333 105.360,253.658 107.941,254.588 108.262 C 254.769 108.325,254.576 108.153,254.160 107.881 C 253.244 107.280,252.368 106.285,251.857 105.261 C 251.488 104.523,251.333 104.342,251.333 104.649 M264.958 105.594 C 264.523 105.821,264.167 106.044,264.167 106.089 C 264.167 106.135,264.542 105.982,265.000 105.750 C 265.458 105.518,265.833 105.291,265.833 105.247 C 265.833 105.137,265.848 105.131,264.958 105.594 M202.573 105.875 L 202.083 106.417 202.625 105.927 C 203.130 105.471,203.243 105.333,203.115 105.333 C 203.086 105.333,202.842 105.577,202.573 105.875 M262.292 107.011 C 261.765 107.283,261.333 107.543,261.333 107.588 C 261.333 107.634,261.783 107.444,262.333 107.167 C 262.883 106.889,263.333 106.625,263.333 106.581 C 263.333 106.470,263.364 106.457,262.292 107.011 M233.167 106.730 C 233.167 106.909,233.663 107.833,233.759 107.833 C 233.804 107.833,233.718 107.590,233.566 107.292 C 233.257 106.683,233.167 106.556,233.167 106.730 M206.017 106.917 C 206.017 107.008,206.347 107.721,206.750 108.500 C 207.153 109.279,207.483 109.842,207.483 109.750 C 207.483 109.658,207.153 108.946,206.750 108.167 C 206.347 107.388,206.017 106.825,206.017 106.917 M176.366 108.259 C 176.073 108.853,175.837 109.394,175.842 109.461 C 175.846 109.529,176.113 109.069,176.436 108.441 C 176.758 107.813,176.994 107.272,176.961 107.238 C 176.927 107.205,176.660 107.664,176.366 108.259 M219.514 107.417 C 219.514 107.508,219.658 107.846,219.833 108.167 C 220.009 108.487,220.153 108.675,220.153 108.583 C 220.153 108.492,220.009 108.154,219.833 107.833 C 219.658 107.513,219.514 107.325,219.514 107.417 M260.627 107.845 C 260.468 107.938,259.793 108.157,259.127 108.331 C 258.462 108.506,258.078 108.652,258.274 108.657 C 258.684 108.668,260.626 108.083,261.000 107.837 C 261.329 107.620,261.001 107.628,260.627 107.845 M165.027 108.257 C 164.748 108.870,164.801 109.001,165.103 108.444 C 165.244 108.183,165.328 107.939,165.290 107.901 C 165.252 107.863,165.134 108.023,165.027 108.257 M234.500 109.333 C 234.869 110.067,235.208 110.667,235.254 110.667 C 235.300 110.667,235.035 110.067,234.667 109.333 C 234.298 108.600,233.959 108.000,233.913 108.000 C 233.867 108.000,234.131 108.600,234.500 109.333 M208.167 111.333 C 208.444 111.883,208.709 112.333,208.755 112.333 C 208.801 112.333,208.611 111.883,208.333 111.333 C 208.056 110.783,207.791 110.333,207.745 110.333 C 207.699 110.333,207.889 110.783,208.167 111.333 M220.845 110.417 C 220.845 110.508,220.952 110.771,221.083 111.000 C 221.214 111.229,221.322 111.342,221.322 111.250 C 221.322 111.158,221.214 110.896,221.083 110.667 C 220.952 110.438,220.845 110.325,220.845 110.417 M235.616 111.415 C 235.768 111.734,235.923 111.966,235.959 111.930 C 236.035 111.854,235.529 110.833,235.415 110.833 C 235.373 110.833,235.463 111.095,235.616 111.415 M174.449 112.258 C 173.837 113.506,173.894 113.654,174.519 112.442 C 174.796 111.905,174.994 111.439,174.960 111.405 C 174.926 111.371,174.696 111.755,174.449 112.258 M190.194 112.257 C 189.914 112.870,189.968 113.001,190.270 112.444 C 190.411 112.183,190.495 111.939,190.457 111.901 C 190.419 111.863,190.300 112.023,190.194 112.257 M236.250 112.667 C 236.392 112.942,236.546 113.167,236.592 113.167 C 236.638 113.167,236.559 112.942,236.417 112.667 C 236.274 112.392,236.121 112.167,236.075 112.167 C 236.029 112.167,236.108 112.392,236.250 112.667 M222.012 112.917 C 222.012 113.008,222.119 113.271,222.250 113.500 C 222.381 113.729,222.488 113.842,222.488 113.750 C 222.488 113.658,222.381 113.396,222.250 113.167 C 222.119 112.938,222.012 112.825,222.012 112.917 M236.697 113.417 C 236.832 113.817,238.678 117.333,238.753 117.333 C 238.847 117.333,237.116 113.885,236.828 113.500 C 236.725 113.362,236.667 113.325,236.697 113.417 M173.492 114.183 C 173.300 114.558,173.172 114.894,173.207 114.929 C 173.242 114.964,173.434 114.657,173.633 114.246 C 174.087 113.311,173.964 113.256,173.492 114.183 M249.004 113.692 C 249.002 113.752,249.722 115.214,250.603 116.942 C 251.485 118.670,252.150 119.896,252.081 119.667 C 251.869 118.961,249.013 113.418,249.004 113.692 M223.014 115.083 C 223.014 115.175,223.158 115.513,223.333 115.833 C 223.509 116.154,223.653 116.342,223.653 116.250 C 223.653 116.158,223.509 115.821,223.333 115.500 C 223.158 115.179,223.014 114.992,223.014 115.083 M197.360 115.924 C 197.081 116.537,197.134 116.667,197.436 116.110 C 197.577 115.850,197.662 115.606,197.623 115.568 C 197.585 115.530,197.467 115.690,197.360 115.924 M210.500 115.892 C 210.500 116.073,212.327 119.667,212.419 119.667 C 212.494 119.667,210.721 116.017,210.564 115.847 C 210.529 115.809,210.500 115.829,210.500 115.892 M188.194 116.757 C 187.914 117.370,187.968 117.501,188.270 116.944 C 188.411 116.683,188.495 116.439,188.457 116.401 C 188.419 116.363,188.300 116.523,188.194 116.757 M171.867 117.587 C 171.668 117.997,171.539 118.333,171.582 118.333 C 171.695 118.333,172.368 116.980,172.293 116.904 C 172.258 116.869,172.066 117.177,171.867 117.587 M224.014 117.250 C 224.014 117.342,224.158 117.679,224.333 118.000 C 224.509 118.321,224.653 118.508,224.653 118.417 C 224.653 118.325,224.509 117.987,224.333 117.667 C 224.158 117.346,224.014 117.158,224.014 117.250 M239.675 119.184 C 240.140 120.110,240.550 120.839,240.586 120.803 C 240.663 120.726,239.022 117.500,238.907 117.500 C 238.865 117.500,239.211 118.258,239.675 119.184 M195.784 119.255 C 195.538 119.756,195.372 120.167,195.416 120.167 C 195.528 120.167,196.369 118.480,196.294 118.405 C 196.259 118.371,196.030 118.753,195.784 119.255 M171.031 119.258 C 170.529 120.292,170.585 120.436,171.103 119.442 C 171.334 118.998,171.494 118.606,171.460 118.571 C 171.425 118.536,171.232 118.845,171.031 119.258 M187.194 119.090 C 186.914 119.703,186.968 119.834,187.270 119.277 C 187.411 119.017,187.495 118.773,187.457 118.735 C 187.419 118.696,187.300 118.857,187.194 119.090 M224.682 118.750 C 224.682 118.842,224.900 119.329,225.167 119.833 C 225.433 120.337,225.651 120.675,225.651 120.583 C 225.651 120.492,225.433 120.004,225.167 119.500 C 224.900 118.996,224.682 118.658,224.682 118.750 M252.172 120.178 C 252.169 120.230,252.277 120.643,252.411 121.095 C 252.775 122.322,252.843 123.722,252.587 124.710 C 252.289 125.861,252.405 125.945,252.739 124.820 C 253.063 123.727,253.065 123.045,252.745 121.689 C 252.531 120.781,252.188 119.877,252.172 120.178 M194.534 121.759 C 194.149 122.536,193.837 123.227,193.842 123.294 C 193.846 123.362,194.189 122.753,194.602 121.941 C 195.016 121.129,195.327 120.439,195.295 120.406 C 195.262 120.373,194.919 120.982,194.534 121.759 M212.833 120.564 C 212.833 120.743,213.329 121.667,213.425 121.667 C 213.471 121.667,213.385 121.423,213.233 121.125 C 212.924 120.517,212.833 120.390,212.833 120.564 M225.681 120.917 C 225.681 121.008,225.824 121.346,226.000 121.667 C 226.176 121.987,226.319 122.175,226.319 122.083 C 226.319 121.992,226.176 121.654,226.000 121.333 C 225.824 121.013,225.681 120.825,225.681 120.917 M241.078 121.750 C 241.335 122.208,241.622 122.658,241.716 122.750 C 241.811 122.842,241.678 122.542,241.422 122.083 C 241.165 121.625,240.878 121.175,240.784 121.083 C 240.689 120.992,240.822 121.292,241.078 121.750 M226.347 122.417 C 226.347 122.508,226.491 122.846,226.667 123.167 C 226.842 123.487,226.986 123.675,226.986 123.583 C 226.986 123.492,226.842 123.154,226.667 122.833 C 226.491 122.513,226.347 122.325,226.347 122.417 M214.000 122.892 C 214.000 123.073,215.661 126.333,215.753 126.333 C 215.828 126.333,214.221 123.017,214.064 122.847 C 214.029 122.809,214.000 122.829,214.000 122.892 M242.781 124.708 C 244.935 128.736,250.350 129.561,252.181 126.141 C 252.273 125.968,252.015 126.161,251.607 126.569 C 248.950 129.225,245.188 128.504,243.103 124.939 C 242.333 123.622,242.117 123.468,242.781 124.708 M227.181 124.187 C 227.173 124.244,227.329 124.657,227.528 125.104 C 227.727 125.551,227.944 126.142,228.011 126.417 C 228.121 126.868,228.133 126.876,228.141 126.500 C 228.149 126.141,227.220 123.904,227.181 124.187 M184.694 124.757 C 184.414 125.370,184.468 125.501,184.770 124.944 C 184.911 124.683,184.995 124.439,184.957 124.401 C 184.919 124.363,184.800 124.523,184.694 124.757 M168.158 125.183 C 167.967 125.558,167.839 125.894,167.874 125.929 C 167.909 125.964,168.100 125.657,168.300 125.246 C 168.754 124.311,168.631 124.256,168.158 125.183 M192.449 126.085 C 192.297 126.405,192.206 126.667,192.248 126.667 C 192.362 126.667,192.868 125.646,192.792 125.570 C 192.756 125.534,192.602 125.766,192.449 126.085 M183.694 127.090 C 183.414 127.703,183.468 127.834,183.770 127.277 C 183.911 127.017,183.995 126.773,183.957 126.735 C 183.919 126.696,183.800 126.857,183.694 127.090 M191.623 127.833 C 191.386 128.383,191.228 128.833,191.272 128.833 C 191.383 128.833,192.195 126.973,192.118 126.896 C 192.083 126.861,191.861 127.283,191.623 127.833 M216.583 128.000 C 216.816 128.458,217.043 128.833,217.089 128.833 C 217.135 128.833,216.982 128.458,216.750 128.000 C 216.518 127.542,216.290 127.167,216.244 127.167 C 216.199 127.167,216.351 127.542,216.583 128.000 M183.194 128.257 C 182.914 128.870,182.968 129.001,183.270 128.444 C 183.411 128.183,183.495 127.939,183.457 127.901 C 183.419 127.863,183.300 128.023,183.194 128.257 M228.039 128.333 C 228.039 128.654,228.073 128.785,228.115 128.625 C 228.157 128.465,228.157 128.202,228.115 128.042 C 228.073 127.881,228.039 128.012,228.039 128.333 M227.772 129.390 C 227.596 130.091,226.938 131.054,226.220 131.662 C 225.870 131.959,225.745 132.119,225.943 132.019 C 226.799 131.588,228.138 129.663,227.958 129.124 C 227.920 129.011,227.837 129.131,227.772 129.390 M155.860 129.590 C 155.581 130.203,155.634 130.334,155.936 129.777 C 156.077 129.517,156.162 129.273,156.123 129.235 C 156.085 129.196,155.967 129.357,155.860 129.590 M182.527 129.757 C 182.248 130.370,182.301 130.501,182.603 129.944 C 182.744 129.683,182.828 129.439,182.790 129.401 C 182.752 129.363,182.634 129.523,182.527 129.757 M190.284 130.588 C 190.038 131.090,189.872 131.500,189.916 131.500 C 190.028 131.500,190.869 129.813,190.794 129.738 C 190.759 129.704,190.530 130.086,190.284 130.588 M218.287 130.676 C 218.582 130.995,219.069 131.389,219.370 131.552 C 219.897 131.837,219.902 131.837,219.501 131.549 C 219.273 131.385,218.786 130.991,218.418 130.674 L 217.750 130.097 218.287 130.676 M181.527 132.090 C 181.248 132.703,181.301 132.834,181.603 132.277 C 181.744 132.017,181.828 131.773,181.790 131.735 C 181.752 131.696,181.634 131.857,181.527 132.090 M189.360 132.424 C 189.081 133.037,189.134 133.167,189.436 132.610 C 189.577 132.350,189.662 132.106,189.623 132.068 C 189.585 132.030,189.467 132.190,189.360 132.424 M164.360 133.090 C 164.081 133.703,164.134 133.834,164.436 133.277 C 164.577 133.017,164.662 132.773,164.623 132.735 C 164.585 132.696,164.467 132.857,164.360 133.090 M222.628 132.787 C 222.928 132.825,223.378 132.824,223.628 132.786 C 223.878 132.748,223.633 132.717,223.083 132.718 C 222.533 132.719,222.328 132.750,222.628 132.787 M188.450 134.425 C 188.111 135.111,187.837 135.727,187.842 135.794 C 187.846 135.862,188.151 135.328,188.519 134.608 C 188.887 133.888,189.161 133.272,189.128 133.239 C 189.094 133.206,188.790 133.740,188.450 134.425 M152.947 136.258 C 152.555 137.079,152.610 137.219,153.019 136.443 C 153.205 136.090,153.328 135.772,153.292 135.736 C 153.256 135.700,153.100 135.935,152.947 136.258 M186.860 137.757 C 186.581 138.370,186.634 138.501,186.936 137.944 C 187.077 137.683,187.162 137.439,187.123 137.401 C 187.085 137.363,186.967 137.523,186.860 137.757 M161.700 138.587 C 161.501 138.997,161.373 139.333,161.415 139.333 C 161.528 139.333,162.202 137.980,162.126 137.904 C 162.091 137.869,161.900 138.177,161.700 138.587 M185.908 139.683 C 185.671 140.151,185.506 140.561,185.540 140.595 C 185.574 140.629,185.803 140.247,186.049 139.745 C 186.295 139.244,186.461 138.833,186.418 138.833 C 186.374 138.833,186.145 139.216,185.908 139.683 M177.947 140.258 C 177.555 141.079,177.610 141.219,178.019 140.443 C 178.205 140.090,178.328 139.772,178.292 139.736 C 178.256 139.700,178.100 139.935,177.947 140.258 M184.908 141.683 C 184.671 142.151,184.506 142.561,184.540 142.595 C 184.574 142.629,184.803 142.247,185.049 141.745 C 185.295 141.244,185.461 140.833,185.418 140.833 C 185.374 140.833,185.145 141.216,184.908 141.683 M150.438 141.996 C 150.061 142.936,150.119 143.076,150.515 142.184 C 150.694 141.781,150.811 141.422,150.774 141.385 C 150.738 141.349,150.587 141.624,150.438 141.996 M159.531 143.091 C 159.029 144.125,159.085 144.270,159.603 143.275 C 159.834 142.831,159.994 142.439,159.960 142.404 C 159.925 142.369,159.732 142.679,159.531 143.091 M176.608 143.309 C 176.365 143.849,176.170 144.357,176.174 144.438 C 176.179 144.518,176.404 144.103,176.676 143.515 C 176.948 142.928,177.143 142.420,177.109 142.387 C 177.076 142.354,176.850 142.769,176.608 143.309 M158.449 145.419 C 158.297 145.738,158.206 146.000,158.248 146.000 C 158.362 146.000,158.868 144.980,158.792 144.903 C 158.756 144.867,158.602 145.099,158.449 145.419 M175.527 145.757 C 175.248 146.370,175.301 146.501,175.603 145.944 C 175.744 145.683,175.828 145.439,175.790 145.401 C 175.752 145.363,175.634 145.523,175.527 145.757 M181.868 148.092 C 181.391 149.052,181.004 149.893,181.009 149.960 C 181.013 150.028,181.430 149.269,181.936 148.274 C 182.441 147.279,182.827 146.438,182.795 146.406 C 182.762 146.374,182.345 147.132,181.868 148.092 M157.366 147.592 C 157.073 148.186,156.837 148.728,156.842 148.795 C 156.846 148.862,157.113 148.403,157.436 147.775 C 157.758 147.147,157.994 146.605,157.961 146.572 C 157.927 146.538,157.660 146.997,157.366 147.592 M173.027 151.424 C 172.748 152.037,172.801 152.167,173.103 151.610 C 173.244 151.350,173.328 151.106,173.290 151.068 C 173.252 151.030,173.134 151.190,173.027 151.424 M179.949 152.085 C 179.797 152.405,179.706 152.667,179.748 152.667 C 179.862 152.667,180.368 151.646,180.292 151.570 C 180.256 151.534,180.102 151.766,179.949 152.085 M155.113 152.258 C 154.722 153.079,154.777 153.219,155.186 152.443 C 155.372 152.090,155.495 151.772,155.459 151.736 C 155.423 151.700,155.267 151.935,155.113 152.258 M179.194 153.590 C 178.914 154.203,178.968 154.334,179.270 153.777 C 179.411 153.517,179.495 153.273,179.457 153.235 C 179.419 153.196,179.300 153.357,179.194 153.590 M153.867 154.920 C 153.668 155.331,153.539 155.667,153.582 155.667 C 153.695 155.667,154.368 154.313,154.293 154.238 C 154.258 154.203,154.066 154.510,153.867 154.920 M171.027 155.924 C 170.748 156.537,170.801 156.667,171.103 156.110 C 171.244 155.850,171.328 155.606,171.290 155.568 C 171.252 155.530,171.134 155.690,171.027 155.924 M177.782 156.592 C 177.171 157.839,177.227 157.987,177.852 156.775 C 178.129 156.239,178.328 155.772,178.294 155.738 C 178.259 155.704,178.029 156.088,177.782 156.592 M152.866 156.925 C 152.573 157.520,152.337 158.061,152.342 158.128 C 152.346 158.195,152.613 157.736,152.936 157.108 C 153.258 156.480,153.494 155.939,153.461 155.905 C 153.427 155.872,153.160 156.331,152.866 156.925 M176.909 158.349 C 176.762 158.632,176.672 158.894,176.708 158.930 C 176.744 158.966,176.898 158.734,177.051 158.415 C 177.394 157.696,177.275 157.641,176.909 158.349 M175.447 161.424 C 175.055 162.245,175.110 162.385,175.519 161.609 C 175.705 161.257,175.828 160.939,175.792 160.903 C 175.756 160.867,175.600 161.102,175.447 161.424 M168.527 161.590 C 168.248 162.203,168.301 162.334,168.603 161.777 C 168.744 161.517,168.828 161.273,168.790 161.235 C 168.752 161.196,168.634 161.357,168.527 161.590 M174.492 163.349 C 174.300 163.725,174.172 164.061,174.207 164.096 C 174.242 164.131,174.434 163.823,174.633 163.413 C 175.087 162.478,174.964 162.423,174.492 163.349 M141.360 163.257 C 141.081 163.870,141.134 164.001,141.436 163.444 C 141.577 163.183,141.662 162.939,141.623 162.901 C 141.585 162.863,141.467 163.023,141.360 163.257 M149.527 163.757 C 149.248 164.370,149.301 164.501,149.603 163.944 C 149.744 163.683,149.828 163.439,149.790 163.401 C 149.752 163.363,149.634 163.523,149.527 163.757 M172.201 168.089 C 171.909 168.682,171.705 169.167,171.749 169.167 C 171.861 169.167,172.869 167.146,172.794 167.072 C 172.760 167.038,172.494 167.496,172.201 168.089 M139.027 168.757 C 138.748 169.370,138.801 169.501,139.103 168.944 C 139.244 168.683,139.328 168.439,139.290 168.401 C 139.252 168.363,139.134 168.523,139.027 168.757 M165.360 168.757 C 165.081 169.370,165.134 169.501,165.436 168.944 C 165.577 168.683,165.662 168.439,165.623 168.401 C 165.585 168.363,165.467 168.523,165.360 168.757 M171.194 170.090 C 170.914 170.703,170.968 170.834,171.270 170.277 C 171.411 170.017,171.495 169.773,171.457 169.735 C 171.419 169.696,171.300 169.857,171.194 170.090 M162.694 174.924 C 162.414 175.537,162.468 175.667,162.770 175.110 C 162.911 174.850,162.995 174.606,162.957 174.568 C 162.919 174.530,162.800 174.690,162.694 174.924 M168.694 175.257 C 168.414 175.870,168.468 176.001,168.770 175.444 C 168.911 175.183,168.995 174.939,168.957 174.901 C 168.919 174.863,168.800 175.023,168.694 175.257 M166.742 179.182 C 166.595 179.466,166.505 179.727,166.541 179.763 C 166.577 179.800,166.732 179.568,166.884 179.248 C 167.227 178.529,167.108 178.474,166.742 179.182 M160.280 180.424 C 159.888 181.245,159.943 181.385,160.353 180.609 C 160.539 180.257,160.661 179.939,160.625 179.903 C 160.589 179.867,160.434 180.102,160.280 180.424 M250.583 180.512 C 249.406 180.672,247.580 181.136,247.691 181.246 C 247.724 181.279,248.163 181.198,248.667 181.065 C 250.854 180.490,254.515 180.465,256.547 181.013 C 256.906 181.109,257.236 181.153,257.279 181.110 C 257.677 180.712,252.509 180.250,250.583 180.512 M190.520 180.746 C 189.935 180.879,189.410 181.039,189.353 181.102 C 189.296 181.165,189.438 181.167,189.667 181.107 C 191.739 180.567,193.813 180.606,196.667 181.237 C 196.896 181.288,196.633 181.174,196.083 180.984 C 194.764 180.528,192.001 180.410,190.520 180.746 M224.417 180.740 C 221.882 181.242,220.361 182.011,218.917 183.523 C 218.096 184.382,218.100 184.380,219.217 183.379 C 224.778 178.391,234.976 180.773,236.167 187.337 C 236.640 189.940,236.658 190.007,236.558 188.750 C 236.112 183.168,230.584 179.521,224.417 180.740 M207.410 181.042 C 207.366 181.156,207.350 188.188,207.374 196.667 L 207.417 212.083 209.583 212.083 L 211.750 212.083 211.796 196.833 C 211.821 188.446,211.801 181.415,211.751 181.208 C 211.643 180.762,207.576 180.606,207.410 181.042 M211.583 196.500 L 211.583 211.917 209.542 211.963 L 207.500 212.010 207.500 196.616 C 207.500 188.150,207.544 181.178,207.598 181.125 C 207.651 181.071,208.570 181.040,209.639 181.055 L 211.583 181.083 211.583 196.500 M187.377 181.851 C 185.252 182.911,183.292 185.283,182.917 187.250 C 182.865 187.525,182.998 187.294,183.213 186.737 C 184.183 184.224,185.649 182.712,188.153 181.644 C 188.757 181.386,189.137 181.174,189.000 181.171 C 188.862 181.169,188.132 181.475,187.377 181.851 M258.805 181.821 C 260.559 182.669,262.191 184.239,262.974 185.833 C 263.267 186.429,263.461 186.729,263.404 186.500 C 262.937 184.602,260.003 181.843,257.833 181.262 C 257.604 181.201,258.041 181.452,258.805 181.821 M198.234 181.928 C 199.766 182.731,200.842 183.867,201.664 185.552 C 202.356 186.970,202.469 187.112,202.139 186.150 C 201.449 184.140,199.210 181.861,197.500 181.430 C 197.271 181.372,197.601 181.596,198.234 181.928 M246.417 181.752 C 244.738 182.571,242.328 185.017,242.335 185.894 C 242.336 185.998,242.559 185.696,242.831 185.222 C 243.543 183.980,244.822 182.799,246.298 182.021 C 247.689 181.288,247.777 181.088,246.417 181.752 M165.118 182.588 C 164.872 183.090,164.706 183.500,164.749 183.500 C 164.861 183.500,165.702 181.813,165.627 181.738 C 165.593 181.704,165.364 182.086,165.118 182.588 M164.280 184.258 C 163.888 185.079,163.943 185.219,164.353 184.443 C 164.539 184.090,164.661 183.772,164.625 183.736 C 164.589 183.700,164.434 183.935,164.280 184.258 M190.867 184.236 C 189.218 184.773,188.244 185.498,187.743 186.559 C 187.607 186.848,187.590 186.939,187.706 186.763 C 189.220 184.463,192.025 183.629,195.083 184.569 C 195.267 184.625,195.154 184.547,194.833 184.394 C 194.049 184.020,191.803 183.931,190.867 184.236 M224.837 184.267 C 222.733 184.833,220.624 187.106,220.678 188.750 C 220.684 188.933,220.784 188.783,220.900 188.417 C 221.809 185.551,223.588 184.280,226.718 184.260 C 227.617 184.255,228.180 184.201,227.968 184.142 C 227.297 183.953,225.782 184.013,224.837 184.267 M250.145 184.343 C 248.203 184.803,246.530 186.152,246.150 187.563 C 245.927 188.391,246.026 190.093,246.313 190.377 C 246.479 190.542,246.485 190.489,246.344 190.114 C 245.165 186.991,247.660 184.585,252.333 184.338 L 254.583 184.219 252.667 184.210 C 251.612 184.204,250.478 184.265,250.145 184.343 M217.874 184.708 C 217.626 185.017,216.968 186.357,217.032 186.421 C 217.063 186.452,217.321 186.032,217.606 185.488 C 218.124 184.500,218.187 184.318,217.874 184.708 M195.750 184.873 C 197.764 186.146,198.749 189.085,197.943 191.417 C 197.880 191.600,197.939 191.525,198.073 191.250 C 199.021 189.315,197.835 185.802,195.929 184.904 C 195.647 184.771,195.567 184.757,195.750 184.873 M229.660 184.955 C 230.623 185.649,231.048 186.096,231.508 186.898 C 232.019 187.789,232.190 187.850,231.741 186.982 C 231.358 186.241,230.348 185.180,229.763 184.902 L 229.250 184.659 229.660 184.955 M256.750 185.111 C 257.025 185.256,257.399 185.497,257.580 185.646 C 257.893 185.902,257.898 185.900,257.676 185.614 C 257.440 185.311,256.633 184.827,256.383 184.840 C 256.310 184.844,256.475 184.966,256.750 185.111 M258.000 185.971 C 258.000 186.047,258.201 186.290,258.446 186.513 L 258.893 186.917 258.518 186.375 C 258.141 185.828,258.000 185.719,258.000 185.971 M157.527 186.424 C 157.248 187.037,157.301 187.167,157.603 186.610 C 157.744 186.350,157.828 186.106,157.790 186.068 C 157.752 186.030,157.634 186.190,157.527 186.424 M138.116 186.919 C 137.963 187.238,137.873 187.500,137.915 187.500 C 138.029 187.500,138.535 186.480,138.459 186.403 C 138.423 186.367,138.268 186.599,138.116 186.919 M187.100 188.024 C 186.961 188.515,186.797 189.128,186.736 189.386 C 186.634 189.817,186.576 189.848,186.021 189.767 C 184.930 189.606,182.748 189.458,182.834 189.550 C 182.976 189.703,186.575 189.990,186.707 189.859 C 186.851 189.715,187.493 187.279,187.409 187.190 C 187.378 187.158,187.239 187.533,187.100 188.024 M216.516 187.997 C 216.170 189.613,216.015 189.483,218.710 189.841 C 220.368 190.061,220.676 190.001,220.644 189.464 L 220.621 189.083 220.549 189.458 C 220.464 189.900,220.351 189.907,218.206 189.603 C 216.343 189.340,216.408 189.397,216.643 188.226 C 216.748 187.705,216.803 187.248,216.766 187.211 C 216.729 187.174,216.617 187.528,216.516 187.997 M241.772 187.542 C 241.637 188.043,241.661 190.509,241.803 190.869 C 241.866 191.026,241.917 190.258,241.917 189.161 C 241.917 186.986,241.918 186.997,241.772 187.542 M182.612 188.315 C 182.550 188.623,182.508 189.034,182.518 189.229 C 182.528 189.424,182.603 189.246,182.684 188.833 C 182.765 188.421,182.807 188.010,182.778 187.919 C 182.748 187.829,182.674 188.007,182.612 188.315 M259.393 188.063 C 259.455 188.235,259.589 188.705,259.690 189.108 C 259.926 190.044,259.816 190.007,261.822 189.819 C 263.534 189.657,264.167 189.477,264.167 189.149 C 264.167 189.054,264.055 189.088,263.919 189.224 C 263.767 189.376,263.175 189.512,262.378 189.578 C 259.856 189.787,260.125 189.863,259.798 188.851 C 259.638 188.356,259.456 187.906,259.394 187.851 C 259.331 187.795,259.331 187.891,259.393 188.063 M137.113 188.924 C 136.722 189.745,136.777 189.885,137.186 189.109 C 137.372 188.757,137.495 188.439,137.459 188.403 C 137.423 188.367,137.267 188.602,137.113 188.924 M232.121 189.708 C 232.069 190.373,231.978 191.067,231.918 191.250 C 231.817 191.558,231.823 191.560,232.001 191.282 C 232.192 190.983,232.458 188.500,232.298 188.500 C 232.252 188.500,232.173 189.044,232.121 189.708 M202.709 189.250 C 202.711 189.617,202.745 189.747,202.785 189.540 C 202.824 189.332,202.823 189.032,202.781 188.873 C 202.739 188.714,202.707 188.883,202.709 189.250 M157.464 189.596 C 157.663 189.964,158.641 190.928,158.707 190.821 C 158.730 190.782,158.422 190.418,158.020 190.013 C 157.619 189.607,157.369 189.420,157.464 189.596 M202.524 190.417 C 202.508 190.692,202.457 191.104,202.410 191.333 L 202.324 191.750 202.503 191.339 C 202.602 191.113,202.653 190.701,202.618 190.422 L 202.553 189.917 202.524 190.417 M236.333 190.583 C 236.333 190.904,236.363 191.167,236.398 191.167 C 236.434 191.167,236.494 190.904,236.532 190.583 C 236.569 190.262,236.540 190.000,236.467 190.000 C 236.393 190.000,236.333 190.262,236.333 190.583 M160.951 190.454 C 160.793 190.612,160.271 190.789,159.790 190.847 L 158.917 190.953 159.699 190.977 C 160.336 190.996,161.931 190.208,161.327 190.172 C 161.278 190.169,161.109 190.296,160.951 190.454 M135.947 191.258 C 135.555 192.079,135.610 192.219,136.019 191.443 C 136.205 191.090,136.328 190.772,136.292 190.736 C 136.256 190.700,136.100 190.935,135.947 191.258 M246.834 191.057 C 247.063 191.317,247.400 191.608,247.583 191.702 C 247.934 191.883,247.924 191.872,247.001 191.082 L 246.418 190.583 246.834 191.057 M236.186 191.545 C 236.036 193.828,233.584 196.801,227.917 201.568 C 224.608 204.352,221.787 207.165,221.635 207.833 C 221.576 208.092,221.718 208.096,230.875 208.139 L 236.667 208.167 236.667 210.083 L 236.667 212.000 226.343 212.000 L 216.019 212.000 215.952 211.332 L 215.884 210.664 215.900 211.374 L 215.917 212.083 226.333 212.083 L 236.750 212.083 236.797 210.042 C 236.823 208.919,236.785 207.996,236.713 207.990 C 235.550 207.901,232.992 207.859,227.958 207.848 C 224.457 207.839,221.833 207.769,221.833 207.684 C 221.833 207.601,222.369 206.960,223.024 206.259 C 224.110 205.096,225.149 204.157,229.825 200.112 C 232.653 197.667,233.677 196.620,234.601 195.230 C 235.586 193.750,236.395 191.962,236.278 191.524 C 236.215 191.288,236.203 191.291,236.186 191.545 M231.380 192.393 C 230.799 193.589,229.141 195.346,226.163 197.920 C 224.607 199.265,223.333 200.409,223.333 200.462 C 223.333 200.515,223.502 200.406,223.708 200.221 C 223.915 200.036,225.153 198.965,226.461 197.841 C 229.660 195.092,232.221 192.165,231.798 191.742 C 231.760 191.705,231.572 191.997,231.380 192.393 M242.174 191.882 C 242.160 192.141,242.815 193.277,243.113 193.508 C 243.400 193.731,243.402 193.726,243.145 193.414 C 242.995 193.232,242.717 192.783,242.527 192.417 C 242.337 192.050,242.178 191.809,242.174 191.882 M248.000 191.922 C 248.000 192.039,249.211 192.513,249.371 192.460 C 249.451 192.433,249.175 192.285,248.758 192.130 C 248.341 191.976,248.000 191.882,248.000 191.922 M196.917 193.125 C 196.570 193.652,195.379 194.979,194.268 196.073 C 192.629 197.689,192.513 197.830,193.654 196.823 C 195.096 195.549,196.851 193.603,197.384 192.685 C 197.884 191.825,197.590 192.102,196.917 193.125 M201.377 193.820 C 200.987 194.616,200.277 195.704,199.794 196.246 C 199.312 196.787,199.041 197.159,199.191 197.073 C 199.935 196.649,202.454 192.706,202.152 192.438 C 202.114 192.404,201.765 193.026,201.377 193.820 M250.250 192.833 C 250.433 192.912,250.696 192.977,250.833 192.977 C 250.991 192.977,250.960 192.924,250.750 192.833 C 250.567 192.755,250.304 192.690,250.167 192.690 C 250.009 192.690,250.040 192.743,250.250 192.833 M251.917 193.262 C 252.375 193.389,252.825 193.487,252.917 193.479 C 253.199 193.455,251.771 193.025,251.417 193.028 C 251.233 193.029,251.458 193.134,251.917 193.262 M244.000 194.487 C 244.683 195.106,246.763 196.340,247.108 196.329 C 247.186 196.327,246.707 196.037,246.044 195.685 C 245.381 195.332,244.481 194.766,244.044 194.425 L 243.250 193.806 244.000 194.487 M255.583 194.257 C 256.317 194.478,256.992 194.653,257.083 194.646 C 257.341 194.627,254.783 193.834,254.500 193.846 C 254.362 193.851,254.850 194.037,255.583 194.257 M127.565 195.601 C 127.427 195.932,127.344 196.233,127.381 196.270 C 127.418 196.307,127.566 196.036,127.711 195.668 C 128.037 194.837,127.909 194.778,127.565 195.601 M259.151 195.428 C 259.646 195.653,260.080 195.809,260.114 195.775 C 260.187 195.702,258.589 194.995,258.386 195.010 C 258.311 195.015,258.655 195.203,259.151 195.428 M133.449 196.252 C 133.297 196.572,133.206 196.833,133.248 196.833 C 133.362 196.833,133.868 195.813,133.792 195.737 C 133.756 195.700,133.602 195.932,133.449 196.252 M260.897 196.202 C 262.847 197.534,263.779 198.544,264.350 199.943 C 264.554 200.441,264.641 200.558,264.579 200.250 C 264.325 198.999,262.737 197.115,261.306 196.366 C 260.909 196.158,260.725 196.084,260.897 196.202 M247.768 196.576 C 248.054 196.708,248.504 196.858,248.768 196.910 C 249.181 196.991,249.166 196.972,248.667 196.776 C 247.767 196.423,247.130 196.282,247.768 196.576 M250.083 197.333 C 250.267 197.412,250.529 197.477,250.667 197.477 C 250.824 197.477,250.793 197.424,250.583 197.333 C 250.400 197.255,250.137 197.190,250.000 197.190 C 249.842 197.190,249.873 197.243,250.083 197.333 M197.740 198.372 L 196.750 199.403 197.667 198.590 C 198.171 198.144,198.653 197.717,198.739 197.642 C 198.824 197.567,198.858 197.469,198.813 197.424 C 198.768 197.379,198.285 197.806,197.740 198.372 M251.250 197.667 C 251.433 197.745,251.696 197.810,251.833 197.810 C 251.991 197.810,251.960 197.757,251.750 197.667 C 251.567 197.588,251.304 197.523,251.167 197.523 C 251.009 197.523,251.040 197.576,251.250 197.667 M132.284 198.588 C 132.038 199.090,131.872 199.500,131.916 199.500 C 132.028 199.500,132.869 197.813,132.794 197.738 C 132.759 197.704,132.530 198.086,132.284 198.588 M189.664 200.141 C 185.719 203.607,183.859 205.817,182.979 208.083 C 182.485 209.356,182.096 211.455,182.270 211.909 C 182.359 212.142,183.463 212.165,192.643 212.126 L 202.917 212.083 202.959 210.250 C 203.018 207.685,203.872 207.953,195.389 207.870 C 190.286 207.820,188.099 207.745,188.135 207.619 C 188.326 206.955,191.510 203.805,194.534 201.288 C 195.604 200.397,196.530 199.586,196.592 199.487 C 197.131 198.614,189.271 205.714,188.489 206.805 C 187.440 208.270,186.897 208.158,195.263 208.207 L 202.693 208.250 202.746 209.905 C 202.776 210.816,202.762 211.660,202.715 211.780 C 202.585 212.120,182.575 212.104,182.445 211.764 C 182.322 211.444,182.599 209.566,182.892 208.738 C 183.855 206.007,185.651 203.793,189.875 200.131 C 191.776 198.483,192.111 198.167,191.956 198.167 C 191.932 198.167,190.900 199.055,189.664 200.141 M255.583 198.833 C 255.767 198.912,256.029 198.977,256.167 198.977 C 256.324 198.977,256.293 198.924,256.083 198.833 C 255.900 198.755,255.637 198.690,255.500 198.690 C 255.342 198.690,255.373 198.743,255.583 198.833 M258.167 199.844 C 262.108 202.014,261.402 206.412,256.842 208.092 C 256.517 208.212,256.362 208.315,256.500 208.321 C 256.991 208.344,258.762 207.371,259.450 206.700 C 261.129 205.062,261.339 202.415,259.907 200.940 C 259.332 200.348,257.757 199.335,257.417 199.338 C 257.325 199.339,257.662 199.566,258.167 199.844 M131.167 200.833 C 130.889 201.383,130.699 201.833,130.745 201.833 C 130.791 201.833,131.056 201.383,131.333 200.833 C 131.611 200.283,131.801 199.833,131.755 199.833 C 131.709 199.833,131.444 200.283,131.167 200.833 M221.321 202.125 C 219.139 204.196,216.530 207.500,217.077 207.500 C 217.122 207.500,217.305 207.215,217.483 206.867 C 218.011 205.832,219.849 203.670,221.593 202.033 C 222.492 201.190,223.183 200.500,223.130 200.500 C 223.076 200.500,222.262 201.231,221.321 202.125 M244.358 201.768 C 244.638 201.853,244.827 202.314,244.831 202.921 C 244.846 205.146,248.644 208.588,250.973 208.488 C 251.125 208.482,250.800 208.347,250.250 208.190 C 247.322 207.351,245.720 205.712,245.015 202.835 C 244.805 201.979,244.681 201.746,244.417 201.720 C 244.190 201.697,244.172 201.712,244.358 201.768 M242.167 201.925 C 242.029 201.954,241.635 202.024,241.292 202.080 C 240.679 202.180,240.667 202.195,240.695 202.883 L 240.723 203.583 240.788 202.959 C 240.862 202.257,240.874 202.251,242.750 202.019 C 243.642 201.909,243.740 201.875,243.167 201.874 C 242.754 201.873,242.304 201.896,242.167 201.925 M264.803 204.333 C 264.484 207.148,262.806 209.513,260.043 211.039 C 258.664 211.801,258.809 211.873,260.227 211.130 C 262.873 209.742,265.303 206.005,264.970 203.833 C 264.932 203.582,264.866 203.780,264.803 204.333 M129.075 204.850 C 128.747 205.501,128.506 206.061,128.539 206.095 C 128.572 206.128,128.876 205.595,129.215 204.911 C 129.554 204.227,129.795 203.667,129.751 203.667 C 129.707 203.667,129.403 204.199,129.075 204.850 M240.843 203.943 C 240.813 205.117,242.346 208.166,243.512 209.250 C 243.928 209.637,243.881 209.540,243.303 208.820 C 242.207 207.454,241.533 206.186,241.172 204.806 C 240.996 204.134,240.848 203.745,240.843 203.943 M216.505 208.609 C 216.306 209.140,216.106 209.802,216.060 210.079 C 216.015 210.356,216.200 209.946,216.473 209.167 C 217.033 207.565,217.058 207.131,216.505 208.609 M251.625 208.618 C 251.831 208.657,252.169 208.657,252.375 208.618 C 252.581 208.578,252.412 208.545,252.000 208.545 C 251.588 208.545,251.419 208.578,251.625 208.618 M253.250 208.667 L 252.750 208.794 253.292 208.814 C 253.590 208.824,253.833 208.758,253.833 208.667 C 253.833 208.575,253.815 208.509,253.792 208.520 C 253.769 208.531,253.525 208.597,253.250 208.667 M254.377 208.620 C 254.631 208.658,255.006 208.657,255.211 208.617 C 255.416 208.578,255.208 208.546,254.750 208.548 C 254.292 208.549,254.124 208.581,254.377 208.620 M126.616 209.919 C 126.463 210.238,126.373 210.500,126.415 210.500 C 126.529 210.500,127.035 209.480,126.959 209.403 C 126.923 209.367,126.768 209.599,126.616 209.919 M244.476 210.052 C 244.899 210.509,247.603 211.952,247.754 211.801 C 247.804 211.751,247.430 211.542,246.923 211.336 C 246.415 211.130,245.569 210.661,245.042 210.294 C 244.359 209.819,244.196 209.749,244.476 210.052 M121.834 210.728 C 121.833 211.077,123.011 212.333,123.338 212.333 C 123.454 212.333,123.294 212.163,122.983 211.955 C 122.672 211.747,122.286 211.316,122.125 210.997 C 121.936 210.621,121.834 210.526,121.834 210.728 M248.172 211.980 C 249.275 212.683,255.422 212.880,257.167 212.268 C 257.586 212.121,257.696 212.047,257.417 212.101 C 254.289 212.697,250.914 212.627,248.266 211.912 C 247.993 211.838,247.973 211.853,248.172 211.980 M123.875 212.448 C 124.035 212.490,124.298 212.490,124.458 212.448 C 124.619 212.406,124.487 212.372,124.167 212.372 C 123.846 212.372,123.715 212.406,123.875 212.448 " stroke="none" fill="#9bbebf" fill-rule="evenodd"></path><path id="path4" d="M204.833 21.945 C 203.385 22.048,200.818 22.374,200.890 22.445 C 200.930 22.485,201.740 22.435,202.690 22.333 C 203.639 22.232,205.579 22.089,207.000 22.016 L 209.583 21.883 207.583 21.887 C 206.483 21.890,205.246 21.916,204.833 21.945 M213.083 21.997 C 214.550 22.073,216.386 22.218,217.162 22.318 C 219.091 22.567,219.582 22.508,217.833 22.237 C 217.054 22.117,215.067 21.982,213.417 21.938 L 210.417 21.858 213.083 21.997 M199.875 22.615 C 200.035 22.657,200.298 22.657,200.458 22.615 C 200.619 22.573,200.487 22.539,200.167 22.539 C 199.846 22.539,199.715 22.573,199.875 22.615 M221.083 22.926 C 222.906 23.315,223.454 23.398,223.318 23.262 C 223.214 23.159,219.846 22.497,219.524 22.517 C 219.373 22.526,220.075 22.710,221.083 22.926 M197.087 23.047 C 196.172 23.236,195.499 23.416,195.590 23.447 C 195.682 23.477,196.618 23.322,197.670 23.101 C 198.722 22.880,199.396 22.701,199.167 22.701 C 198.938 22.702,198.002 22.858,197.087 23.047 M253.498 23.375 C 253.317 23.673,253.171 23.992,253.175 24.083 C 253.178 24.175,253.333 23.963,253.517 23.613 L 253.854 22.976 255.261 23.030 C 256.034 23.059,256.667 23.027,256.667 22.958 C 256.667 22.890,256.028 22.833,255.248 22.833 L 253.828 22.833 253.498 23.375 M256.705 23.833 C 256.705 24.154,256.740 24.285,256.782 24.125 C 256.823 23.965,256.823 23.702,256.782 23.542 C 256.740 23.381,256.705 23.512,256.705 23.833 M192.617 24.120 C 192.086 24.259,191.684 24.406,191.724 24.446 C 191.799 24.521,193.862 24.025,193.986 23.902 C 194.109 23.780,193.607 23.860,192.617 24.120 M226.917 24.333 C 227.375 24.502,227.862 24.641,228.000 24.641 C 228.137 24.641,227.875 24.502,227.417 24.333 C 226.958 24.164,226.471 24.026,226.333 24.026 C 226.196 24.026,226.458 24.164,226.917 24.333 M252.529 25.696 C 252.243 26.449,252.036 27.092,252.070 27.125 C 252.103 27.158,252.365 26.571,252.652 25.819 C 252.939 25.067,253.146 24.424,253.112 24.389 C 253.077 24.355,252.815 24.943,252.529 25.696 M256.881 25.417 C 256.882 25.875,256.915 26.043,256.953 25.789 C 256.991 25.536,256.990 25.161,256.951 24.956 C 256.911 24.751,256.880 24.958,256.881 25.417 M229.347 25.069 C 229.481 25.201,231.231 25.825,231.293 25.762 C 231.328 25.728,230.936 25.542,230.422 25.350 C 229.511 25.009,229.206 24.929,229.347 25.069 M188.583 25.491 C 188.217 25.664,187.992 25.807,188.083 25.807 C 188.311 25.809,189.626 25.193,189.417 25.183 C 189.325 25.179,188.950 25.317,188.583 25.491 M232.818 26.497 C 233.405 26.775,233.922 26.967,233.966 26.922 C 234.054 26.835,232.848 26.286,232.167 26.103 C 231.938 26.041,232.231 26.218,232.818 26.497 M185.801 26.575 C 184.227 27.229,179.274 29.817,178.745 30.262 C 178.457 30.504,178.738 30.387,179.417 29.982 C 180.636 29.254,185.265 26.930,186.417 26.467 C 186.783 26.320,187.008 26.195,186.917 26.190 C 186.825 26.185,186.323 26.358,185.801 26.575 M257.113 28.167 C 257.253 30.981,257.621 35.368,257.645 34.516 C 257.669 33.689,257.196 26.886,257.088 26.500 C 257.049 26.363,257.060 27.113,257.113 28.167 M234.181 27.064 C 234.365 27.233,236.728 28.345,236.583 28.195 C 236.400 28.004,234.424 27.000,234.232 27.000 C 234.165 27.000,234.142 27.029,234.181 27.064 M251.533 28.163 C 251.342 28.623,251.223 29.000,251.269 29.000 C 251.392 29.000,252.041 27.485,251.954 27.399 C 251.914 27.359,251.724 27.702,251.533 28.163 M236.847 28.387 C 237.219 28.674,238.517 29.329,238.428 29.184 C 238.311 28.996,237.119 28.333,236.896 28.333 C 236.831 28.333,236.809 28.357,236.847 28.387 M210.375 29.288 C 210.719 29.324,211.281 29.324,211.625 29.288 C 211.969 29.252,211.688 29.223,211.000 29.223 C 210.313 29.223,210.031 29.252,210.375 29.288 M250.472 29.844 C 249.132 31.511,246.810 32.465,244.557 32.274 C 243.319 32.170,242.852 31.988,241.375 31.037 C 241.169 30.904,241.000 30.838,241.000 30.890 C 241.000 30.942,241.542 31.307,242.204 31.701 L 243.409 32.417 245.165 32.417 C 247.540 32.417,249.582 31.424,250.839 29.658 C 251.356 28.932,251.100 29.061,250.472 29.844 M207.961 29.454 C 208.261 29.491,208.711 29.490,208.961 29.452 C 209.212 29.414,208.967 29.384,208.417 29.385 C 207.867 29.386,207.662 29.417,207.961 29.454 M212.875 29.453 C 213.127 29.491,213.540 29.491,213.792 29.453 C 214.044 29.415,213.838 29.383,213.333 29.383 C 212.829 29.383,212.623 29.415,212.875 29.453 M238.756 29.477 C 238.851 29.579,239.376 29.926,239.923 30.248 C 240.469 30.570,240.711 30.664,240.461 30.458 C 239.937 30.028,238.496 29.198,238.756 29.477 M214.960 29.618 C 215.168 29.658,215.468 29.656,215.627 29.615 C 215.786 29.573,215.617 29.540,215.250 29.542 C 214.883 29.544,214.753 29.578,214.960 29.618 M204.500 29.844 C 202.732 30.176,201.830 30.385,201.894 30.449 C 201.955 30.511,203.203 30.296,205.333 29.857 C 206.271 29.664,205.522 29.652,204.500 29.844 M216.208 29.782 C 216.369 29.823,216.631 29.823,216.792 29.782 C 216.952 29.740,216.821 29.705,216.500 29.705 C 216.179 29.705,216.048 29.740,216.208 29.782 M218.583 30.171 C 219.408 30.341,220.196 30.476,220.333 30.471 C 220.829 30.453,218.236 29.861,217.667 29.861 C 217.327 29.862,217.710 29.991,218.583 30.171 M199.333 31.101 C 195.058 32.409,190.408 34.755,186.864 37.394 C 186.022 38.021,185.333 38.572,185.333 38.620 C 185.333 38.667,185.577 38.522,185.875 38.298 C 190.289 34.968,194.509 32.766,199.250 31.319 C 201.767 30.551,201.831 30.528,201.500 30.521 C 201.362 30.518,200.387 30.779,199.333 31.101 M176.750 31.546 C 167.269 37.800,159.481 46.192,153.747 56.333 C 152.779 58.046,150.166 63.330,150.167 63.575 C 150.168 63.671,150.869 62.325,151.725 60.583 C 157.516 48.811,165.235 39.667,175.173 32.808 C 176.414 31.951,177.614 31.123,177.840 30.967 C 178.065 30.811,178.212 30.680,178.166 30.675 C 178.121 30.671,177.483 31.062,176.750 31.546 M221.583 30.833 C 221.767 30.912,222.029 30.977,222.167 30.977 C 222.324 30.977,222.293 30.924,222.083 30.833 C 221.900 30.755,221.637 30.690,221.500 30.690 C 221.342 30.690,221.373 30.743,221.583 30.833 M223.000 31.250 C 223.321 31.374,223.696 31.475,223.833 31.475 C 223.971 31.475,223.821 31.374,223.500 31.250 C 223.179 31.126,222.804 31.025,222.667 31.025 C 222.529 31.025,222.679 31.126,223.000 31.250 M226.161 32.258 C 228.243 33.002,228.632 33.115,228.167 32.844 C 227.801 32.631,224.501 31.499,224.276 31.508 C 224.170 31.513,225.018 31.851,226.161 32.258 M229.043 33.348 C 229.507 33.618,230.500 34.012,230.500 33.927 C 230.500 33.842,229.022 33.164,228.854 33.172 C 228.797 33.175,228.882 33.254,229.043 33.348 M231.092 34.325 C 231.288 34.521,232.500 35.035,232.500 34.922 C 232.500 34.827,231.239 34.167,231.057 34.167 C 230.989 34.167,231.005 34.238,231.092 34.325 M233.057 35.291 C 233.121 35.395,233.585 35.715,234.088 36.003 C 238.952 38.786,244.451 44.048,247.588 48.920 C 248.611 50.510,249.148 51.196,248.497 50.083 C 246.426 46.541,242.986 42.556,239.583 39.759 C 237.406 37.969,232.737 34.773,233.057 35.291 M257.723 36.500 C 257.723 37.188,257.752 37.469,257.788 37.125 C 257.824 36.781,257.824 36.219,257.788 35.875 C 257.752 35.531,257.723 35.813,257.723 36.500 M257.883 38.833 C 257.883 39.337,257.915 39.544,257.953 39.292 C 257.991 39.040,257.991 38.627,257.953 38.375 C 257.915 38.123,257.883 38.329,257.883 38.833 M183.899 39.706 C 179.909 43.314,176.536 47.689,174.169 52.329 C 173.497 53.645,173.975 52.970,174.962 51.208 C 177.286 47.058,179.538 44.127,182.859 40.927 C 185.333 38.544,185.830 37.960,183.899 39.706 M258.052 40.917 C 258.053 41.467,258.084 41.672,258.121 41.372 C 258.158 41.072,258.157 40.622,258.119 40.372 C 258.081 40.122,258.051 40.367,258.052 40.917 M258.260 43.750 C 258.376 46.577,258.887 53.423,258.964 53.191 C 259.035 52.978,258.377 42.851,258.253 42.250 C 258.216 42.067,258.219 42.742,258.260 43.750 M249.167 51.500 C 249.354 51.867,249.544 52.167,249.590 52.167 C 249.636 52.167,249.520 51.867,249.333 51.500 C 249.146 51.133,248.956 50.833,248.910 50.833 C 248.864 50.833,248.980 51.133,249.167 51.500 M250.333 53.667 C 250.611 54.217,250.876 54.667,250.921 54.667 C 250.967 54.667,250.778 54.217,250.500 53.667 C 250.222 53.117,249.958 52.667,249.912 52.667 C 249.866 52.667,250.056 53.117,250.333 53.667 M172.996 54.611 C 172.446 55.789,170.793 59.933,170.580 60.667 C 170.299 61.632,170.691 60.756,171.586 58.417 C 172.113 57.042,172.801 55.403,173.116 54.775 C 173.431 54.146,173.652 53.596,173.607 53.552 C 173.563 53.508,173.288 53.984,172.996 54.611 M259.052 54.917 C 259.053 55.467,259.084 55.672,259.121 55.372 C 259.158 55.072,259.157 54.622,259.119 54.372 C 259.081 54.122,259.051 54.367,259.052 54.917 M251.451 55.745 C 251.697 56.247,251.926 56.629,251.960 56.595 C 252.035 56.520,251.195 54.833,251.082 54.833 C 251.039 54.833,251.205 55.244,251.451 55.745 M259.220 57.167 C 259.220 57.762,259.250 58.006,259.287 57.708 C 259.324 57.410,259.324 56.923,259.287 56.625 C 259.250 56.327,259.220 56.571,259.220 57.167 M252.404 57.750 C 253.017 59.393,253.208 59.847,253.265 59.790 C 253.343 59.712,252.556 57.661,252.393 57.516 C 252.331 57.462,252.336 57.567,252.404 57.750 M259.431 60.500 C 259.475 61.646,259.592 63.582,259.690 64.803 C 259.788 66.023,259.836 67.242,259.796 67.511 C 259.757 67.780,259.786 68.000,259.862 68.000 C 260.063 68.000,260.013 66.562,259.663 62.250 C 259.448 59.612,259.376 59.066,259.431 60.500 M253.708 61.042 C 253.750 61.156,253.916 61.649,254.076 62.136 C 254.236 62.623,254.397 62.992,254.432 62.956 C 254.517 62.872,253.830 60.833,253.717 60.833 C 253.670 60.833,253.666 60.927,253.708 61.042 M169.953 62.500 C 169.503 64.057,169.477 64.484,169.913 63.167 C 170.140 62.479,170.302 61.842,170.273 61.750 C 170.243 61.658,170.099 61.996,169.953 62.500 M254.503 63.208 C 254.522 63.437,255.479 66.199,255.488 66.050 C 255.504 65.788,254.675 63.167,254.576 63.167 C 254.534 63.167,254.502 63.185,254.503 63.208 M149.356 65.439 C 149.069 66.145,148.861 66.750,148.894 66.783 C 148.927 66.816,149.190 66.266,149.477 65.561 C 149.765 64.855,149.973 64.250,149.939 64.217 C 149.906 64.184,149.643 64.734,149.356 65.439 M168.866 66.284 C 168.446 67.886,168.266 68.777,168.384 68.666 C 168.518 68.541,169.361 65.138,169.278 65.056 C 169.239 65.017,169.054 65.570,168.866 66.284 M255.500 66.424 C 255.500 66.711,256.068 68.775,256.182 68.901 C 256.261 68.989,256.980 68.856,257.909 68.581 C 258.784 68.323,259.469 68.080,259.430 68.041 C 259.392 68.003,258.725 68.165,257.948 68.402 C 257.171 68.639,256.466 68.833,256.381 68.833 C 256.297 68.833,256.095 68.271,255.933 67.583 C 255.686 66.535,255.500 66.038,255.500 66.424 M148.272 68.170 C 148.031 68.820,147.837 69.442,147.841 69.551 C 147.846 69.661,148.070 69.156,148.340 68.429 C 148.610 67.703,148.804 67.081,148.770 67.048 C 148.737 67.015,148.513 67.520,148.272 68.170 M167.612 71.784 C 167.377 73.049,167.146 74.458,167.099 74.917 L 167.015 75.750 167.187 74.917 C 167.643 72.708,168.176 69.621,168.112 69.556 C 168.072 69.517,167.847 70.519,167.612 71.784 M146.914 72.247 C 146.580 73.318,146.337 74.226,146.375 74.264 C 146.413 74.302,146.716 73.455,147.048 72.382 C 147.381 71.309,147.624 70.401,147.588 70.365 C 147.551 70.329,147.248 71.176,146.914 72.247 M146.000 75.333 C 145.888 75.802,145.829 76.218,145.869 76.258 C 145.910 76.299,146.032 75.946,146.141 75.474 C 146.250 75.003,146.309 74.586,146.272 74.549 C 146.235 74.512,146.112 74.865,146.000 75.333 M166.760 76.703 C 166.405 79.364,166.179 81.659,166.114 83.270 C 166.033 85.267,166.053 85.132,166.423 81.250 C 166.563 79.783,166.759 77.999,166.859 77.284 C 166.959 76.570,167.004 75.948,166.959 75.904 C 166.914 75.859,166.825 76.218,166.760 76.703 M144.940 80.616 C 144.642 82.265,144.459 83.669,144.574 83.417 C 144.707 83.125,145.347 79.292,145.274 79.219 C 145.236 79.180,145.085 79.809,144.940 80.616 M144.078 85.911 C 144.013 86.518,143.996 87.051,144.040 87.095 C 144.084 87.139,144.171 86.676,144.233 86.067 C 144.296 85.457,144.313 84.924,144.271 84.883 C 144.230 84.841,144.143 85.304,144.078 85.911 M165.890 86.750 C 165.891 87.483,165.920 87.763,165.956 87.371 C 165.991 86.979,165.990 86.379,165.954 86.037 C 165.919 85.696,165.890 86.017,165.890 86.750 M143.885 88.417 C 143.886 88.967,143.917 89.172,143.954 88.872 C 143.991 88.572,143.990 88.122,143.952 87.872 C 143.914 87.622,143.884 87.867,143.885 88.417 M165.666 88.542 C 165.652 94.010,165.427 98.660,165.145 99.317 C 164.971 99.721,164.857 100.080,164.892 100.114 C 164.926 100.149,165.105 99.818,165.290 99.380 C 165.610 98.617,166.042 88.333,165.753 88.333 C 165.706 88.333,165.666 88.427,165.666 88.542 M143.587 92.458 C 143.479 95.161,143.732 101.945,143.948 102.167 C 143.993 102.212,143.967 101.200,143.890 99.917 C 143.813 98.633,143.768 95.765,143.790 93.542 C 143.838 88.775,143.752 88.319,143.587 92.458 M163.679 102.871 C 162.461 105.869,162.387 106.076,162.767 105.417 C 163.123 104.799,164.850 100.461,164.771 100.382 C 164.739 100.351,164.248 101.470,163.679 102.871 M144.010 103.097 C 144.015 103.456,144.084 104.050,144.164 104.417 C 144.272 104.911,144.285 104.760,144.216 103.833 C 144.115 102.478,143.994 102.046,144.010 103.097 M144.372 105.833 C 144.372 106.154,144.406 106.285,144.448 106.125 C 144.490 105.965,144.490 105.702,144.448 105.542 C 144.406 105.381,144.372 105.513,144.372 105.833 M162.022 106.856 C 161.825 107.330,161.691 107.747,161.726 107.781 C 161.760 107.815,161.953 107.459,162.156 106.989 C 162.358 106.519,162.491 106.102,162.452 106.063 C 162.413 106.024,162.220 106.381,162.022 106.856 M144.539 107.000 C 144.539 107.321,144.573 107.452,144.615 107.292 C 144.657 107.131,144.657 106.869,144.615 106.708 C 144.573 106.548,144.539 106.679,144.539 107.000 M144.685 107.833 C 144.656 108.211,145.211 111.108,145.275 110.917 C 145.305 110.825,145.189 110.037,145.017 109.167 C 144.844 108.296,144.695 107.696,144.685 107.833 M161.360 108.424 C 161.081 109.037,161.134 109.167,161.436 108.610 C 161.577 108.350,161.662 108.106,161.623 108.068 C 161.585 108.030,161.467 108.190,161.360 108.424 M160.614 110.281 C 160.371 110.893,160.199 111.421,160.232 111.454 C 160.265 111.487,160.492 111.014,160.737 110.404 C 160.981 109.793,161.153 109.264,161.119 109.230 C 161.084 109.195,160.857 109.668,160.614 110.281 M159.602 112.685 C 159.357 113.250,159.186 113.741,159.221 113.777 C 159.257 113.813,159.487 113.380,159.731 112.815 C 159.976 112.250,160.148 111.759,160.112 111.723 C 160.076 111.687,159.847 112.120,159.602 112.685 M145.596 112.583 C 145.699 113.377,146.300 115.692,146.311 115.333 C 146.315 115.196,146.136 114.371,145.914 113.500 C 145.692 112.629,145.549 112.217,145.596 112.583 M158.444 115.361 C 158.200 115.927,158.027 116.416,158.060 116.449 C 158.093 116.482,158.320 116.046,158.565 115.481 C 158.810 114.917,158.983 114.427,158.949 114.394 C 158.916 114.360,158.689 114.795,158.444 115.361 M146.674 116.974 C 146.664 117.268,148.510 122.879,148.590 122.799 C 148.624 122.765,148.208 121.390,147.666 119.744 C 147.124 118.097,146.678 116.851,146.674 116.974 M156.615 119.615 C 156.002 121.049,155.526 122.248,155.557 122.279 C 155.588 122.310,156.119 121.166,156.737 119.737 C 157.355 118.308,157.831 117.109,157.795 117.073 C 157.759 117.037,157.228 118.181,156.615 119.615 M155.011 123.344 C 154.809 123.814,154.675 124.231,154.715 124.270 C 154.754 124.309,154.947 123.953,155.144 123.478 C 155.342 123.003,155.475 122.586,155.441 122.552 C 155.407 122.518,155.213 122.874,155.011 123.344 M149.101 124.167 C 149.253 124.783,151.671 130.045,151.927 130.318 C 152.115 130.518,153.000 129.062,153.000 128.553 C 153.000 128.514,153.344 127.692,153.764 126.727 C 154.184 125.762,154.496 124.941,154.457 124.902 C 154.387 124.832,152.486 129.211,152.248 129.992 C 152.100 130.475,151.923 130.167,150.337 126.667 C 149.818 125.521,149.304 124.396,149.196 124.167 L 148.998 123.750 149.101 124.167 M259.376 128.708 C 259.180 129.098,258.784 129.819,258.496 130.310 C 258.208 130.801,258.047 131.157,258.138 131.101 C 258.229 131.045,258.661 130.362,259.098 129.583 C 260.055 127.877,259.845 127.890,261.572 129.430 L 262.988 130.694 261.845 132.972 C 261.215 134.225,260.097 136.246,259.359 137.463 C 258.621 138.680,258.085 139.634,258.168 139.582 C 258.718 139.243,263.220 130.963,263.053 130.601 C 262.901 130.273,260.201 128.000,259.964 128.000 C 259.837 128.000,259.573 128.319,259.376 128.708 M256.724 132.958 C 252.983 138.359,248.132 143.363,242.333 147.803 C 241.663 148.316,237.988 150.732,237.125 151.227 C 236.231 151.740,236.047 151.988,236.875 151.566 C 242.946 148.468,252.293 139.772,256.965 132.875 C 257.540 132.027,257.974 131.333,257.930 131.333 C 257.886 131.333,257.343 132.065,256.724 132.958 M257.143 140.875 C 254.385 144.965,250.836 148.862,246.352 152.723 C 244.577 154.252,239.675 157.544,237.108 158.931 C 236.132 159.458,235.363 159.918,235.398 159.954 C 235.587 160.142,240.794 156.972,243.862 154.801 C 248.197 151.734,253.988 145.812,257.032 141.333 C 257.955 139.974,258.040 139.833,257.933 139.833 C 257.885 139.833,257.530 140.302,257.143 140.875 M184.933 147.536 C 184.597 148.050,184.130 149.186,184.218 149.274 C 184.258 149.313,184.458 148.930,184.664 148.423 C 185.125 147.288,185.123 147.288,186.754 148.429 C 188.037 149.326,188.928 149.873,188.583 149.552 C 188.397 149.379,185.697 147.456,185.382 147.273 C 185.265 147.205,185.078 147.315,184.933 147.536 M183.533 150.592 C 183.240 151.186,183.004 151.728,183.008 151.795 C 183.013 151.862,183.280 151.403,183.602 150.775 C 183.925 150.147,184.161 149.605,184.127 149.572 C 184.094 149.538,183.826 149.997,183.533 150.592 M188.833 149.741 C 188.833 149.969,196.336 153.842,196.750 153.827 C 196.842 153.824,195.792 153.273,194.417 152.603 C 193.042 151.933,191.250 150.998,190.434 150.526 C 188.937 149.658,188.833 149.607,188.833 149.741 M233.917 152.915 C 232.725 153.502,231.825 153.986,231.917 153.990 C 232.138 154.001,236.167 152.043,236.167 151.925 C 236.167 151.799,236.320 151.732,233.917 152.915 M182.334 153.110 C 182.057 153.720,181.866 154.255,181.911 154.299 C 181.955 154.343,182.061 154.200,182.146 153.981 C 182.231 153.762,182.456 153.227,182.645 152.792 C 182.834 152.356,182.954 152.000,182.912 152.000 C 182.871 152.000,182.610 152.499,182.334 153.110 M231.300 154.088 C 231.252 154.137,229.946 154.621,228.398 155.163 C 226.850 155.706,225.671 156.153,225.778 156.158 C 225.884 156.163,227.084 155.783,228.444 155.315 C 230.816 154.497,231.954 154.021,231.569 154.007 C 231.470 154.003,231.349 154.040,231.300 154.088 M197.848 154.224 C 197.984 154.378,200.375 155.181,200.455 155.100 C 200.492 155.064,200.010 154.866,199.386 154.659 C 198.761 154.453,198.137 154.246,198.000 154.199 C 197.862 154.152,197.794 154.163,197.848 154.224 M181.280 155.275 C 180.153 157.499,179.471 159.348,179.684 159.604 C 179.900 159.864,180.828 160.379,181.627 160.683 C 182.322 160.948,181.999 160.724,180.821 160.127 C 179.500 159.457,179.500 159.497,180.836 156.703 C 181.788 154.714,182.142 153.573,181.280 155.275 M202.333 155.755 C 203.021 155.980,203.658 156.160,203.750 156.154 C 204.012 156.136,202.282 155.549,201.651 155.441 C 201.339 155.388,201.646 155.529,202.333 155.755 M204.250 156.333 C 204.433 156.412,204.733 156.474,204.917 156.472 C 205.185 156.468,205.168 156.441,204.833 156.333 C 204.263 156.151,203.825 156.151,204.250 156.333 M224.323 156.406 C 223.905 156.522,222.945 156.712,222.191 156.829 C 221.437 156.947,220.856 157.079,220.900 157.123 C 221.010 157.233,223.912 156.726,224.833 156.436 C 225.763 156.143,225.361 156.120,224.323 156.406 M206.750 156.845 C 207.575 157.013,208.700 157.192,209.250 157.242 C 209.800 157.293,209.237 157.149,208.000 156.924 C 205.394 156.449,204.544 156.395,206.750 156.845 M219.875 157.282 C 220.035 157.323,220.298 157.323,220.458 157.282 C 220.619 157.240,220.487 157.205,220.167 157.205 C 219.846 157.205,219.715 157.240,219.875 157.282 M210.877 157.453 C 211.131 157.491,211.506 157.490,211.711 157.451 C 211.916 157.411,211.708 157.380,211.250 157.381 C 210.792 157.382,210.624 157.415,210.877 157.453 M218.458 157.451 C 218.665 157.491,219.002 157.491,219.208 157.451 C 219.415 157.411,219.246 157.379,218.833 157.379 C 218.421 157.379,218.252 157.411,218.458 157.451 M213.717 157.624 C 214.523 157.655,215.798 157.655,216.550 157.624 C 217.302 157.593,216.642 157.568,215.083 157.568 C 213.525 157.568,212.910 157.594,213.717 157.624 M234.333 160.417 C 233.921 160.638,233.643 160.822,233.715 160.826 C 233.892 160.836,235.167 160.181,235.167 160.080 C 235.167 159.970,235.174 159.967,234.333 160.417 M182.516 161.059 C 182.661 161.223,184.712 162.010,184.790 161.932 C 184.847 161.875,184.393 161.684,182.750 161.071 C 182.567 161.003,182.462 160.997,182.516 161.059 M232.083 161.425 C 231.625 161.648,231.438 161.783,231.667 161.727 C 232.144 161.609,233.335 161.013,233.083 161.018 C 232.992 161.019,232.542 161.203,232.083 161.425 M229.583 162.447 C 228.518 162.892,228.146 163.124,228.833 162.914 C 229.419 162.736,230.952 162.027,230.750 162.028 C 230.658 162.029,230.133 162.217,229.583 162.447 M186.000 162.471 C 186.336 162.690,188.372 163.351,188.454 163.268 C 188.511 163.211,188.055 163.048,186.083 162.415 C 185.826 162.333,185.807 162.345,186.000 162.471 M226.750 163.514 C 226.292 163.691,226.133 163.794,226.398 163.742 C 226.922 163.640,228.021 163.194,227.750 163.193 C 227.658 163.193,227.208 163.337,226.750 163.514 M189.673 163.741 C 189.997 163.860,190.522 164.003,190.839 164.058 C 191.157 164.113,190.967 164.011,190.417 163.831 C 189.305 163.468,188.749 163.400,189.673 163.741 M225.083 164.000 C 224.873 164.090,224.842 164.143,225.000 164.143 C 225.137 164.143,225.400 164.079,225.583 164.000 C 225.793 163.910,225.824 163.857,225.667 163.857 C 225.529 163.857,225.267 163.921,225.083 164.000 M192.686 164.575 C 192.800 164.688,195.788 165.335,196.123 165.319 C 196.285 165.311,195.629 165.127,194.667 164.909 C 192.848 164.498,192.560 164.449,192.686 164.575 M222.000 164.846 C 221.404 165.019,221.185 165.124,221.512 165.078 C 222.203 164.983,223.704 164.533,223.333 164.533 C 223.196 164.532,222.596 164.674,222.000 164.846 M199.542 165.948 C 199.702 165.990,199.965 165.990,200.125 165.948 C 200.285 165.906,200.154 165.872,199.833 165.872 C 199.512 165.872,199.381 165.906,199.542 165.948 M215.667 166.000 C 214.979 166.107,214.965 166.118,215.500 166.132 C 215.821 166.141,216.383 166.085,216.750 166.010 C 217.611 165.832,216.796 165.824,215.667 166.000 M200.792 166.118 C 200.998 166.157,201.335 166.157,201.542 166.118 C 201.748 166.078,201.579 166.045,201.167 166.045 C 200.754 166.045,200.585 166.078,200.792 166.118 M202.375 166.286 C 202.627 166.324,203.040 166.324,203.292 166.286 C 203.544 166.248,203.338 166.217,202.833 166.217 C 202.329 166.217,202.123 166.248,202.375 166.286 M213.461 166.287 C 213.761 166.325,214.211 166.324,214.461 166.286 C 214.712 166.248,214.467 166.217,213.917 166.218 C 213.367 166.219,213.162 166.250,213.461 166.287 M204.880 166.456 C 205.318 166.490,205.993 166.490,206.380 166.455 C 206.767 166.420,206.408 166.392,205.583 166.392 C 204.758 166.393,204.442 166.422,204.880 166.456 M210.214 166.457 C 210.745 166.490,211.570 166.490,212.048 166.456 C 212.526 166.422,212.092 166.395,211.083 166.396 C 210.075 166.396,209.684 166.424,210.214 166.457 " stroke="none" fill="#dd9ba3" fill-rule="evenodd"></path></g></svg>