<svg width="64" height="64" viewBox="0 0 64 64" fill="none" xmlns="http://www.w3.org/2000/svg" >
    <title>IEC</title>
    <path d="M0 0H64V64H0V0Z" fill="#0067B6"/>
    <path d="M7.07324 15.4948H12.2943V39.0737H7.07324V15.4948Z" fill="white"/>
    <path d="M34.9552 14.9895H25.557C25.557 14.9895 23.4669 14.9895 22.2416 14.9895C21.0164 14.9895 19.2002 16.2499 19.2002 18.0288C19.2002 19.8078 19.2002 33.8953 19.2002 35.307C19.2002 36.7186 20.5984 39.0737 22.9912 39.0737C25.384 39.0737 35.2002 39.0737 35.2002 39.0737V37.0859C35.2002 37.0859 28.0723 37.0859 26.5371 37.0859C25.002 37.0859 24.2669 36.4161 24.2669 35.5518C24.2669 34.6948 24.2669 29.7829 24.2669 29.113C24.2669 28.436 24.2452 27.3341 24.8723 27.3341C25.7948 27.3341 32.4903 27.3341 32.4903 27.3341V25.5552C32.4903 25.5552 26.0398 25.5552 25.0597 25.5552C24.0795 25.5552 24.2669 24.9142 24.2669 24.3596C24.2669 23.805 24.2669 19.5413 24.2669 18.9291C24.2669 18.3169 24.2452 17.251 25.5353 17.251C26.8254 17.251 34.9479 17.251 34.9479 17.251V14.9895" fill="white"/>
    <path d="M57.411 18.9055C57.411 18.9055 54.5695 14.4843 48.1472 14.4843C42.892 14.4843 36.042 18.9631 36.042 27.244C36.042 36.2666 43.827 39.579 48.5169 39.579C55.6858 39.579 58.2736 33.5015 58.2736 33.5015L57.0413 32.4574C57.0413 32.4574 53.7504 37.822 48.8431 37.822C45.8132 37.822 40.9783 35.0929 40.9783 27.2368C40.9783 18.5239 45.0666 16.3133 48.8431 16.3133C53.475 16.3133 56.1135 20.1153 56.1135 20.1153L57.411 18.9055Z" fill="white"/>
    <path fill-rule="evenodd" clip-rule="evenodd" d="M7.07324 45.979H50.574C50.7906 45.551 51.0504 45.1455 51.368 44.8H7.07324V45.979Z" fill="white"/>
    <path fill-rule="evenodd" clip-rule="evenodd" d="M7.07324 48.6737H50.0206C49.999 48.5064 49.9629 48.3455 49.9629 48.1717C49.9629 47.9979 49.999 47.8306 50.0206 47.6632H7.07324V48.6737Z" fill="white"/>
    <path fill-rule="evenodd" clip-rule="evenodd" d="M7.07324 51.5369H51.368C51.0504 51.1914 50.7905 50.7859 50.5739 50.3579H7.07324V51.5369Z" fill="white"/>
    <path d="M54.9055 51.5369C56.7712 51.5369 58.274 50.0269 58.274 48.1685C58.274 46.31 56.764 44.8 54.9055 44.8C53.0471 44.8 51.5371 46.31 51.5371 48.1685C51.5371 50.0269 53.0471 51.5369 54.9055 51.5369Z" fill="white"/>
</svg>
