<?xml version="1.0" encoding="UTF-8"?> <!-- Generator: Adobe Illustrator 18.0.0, SVG Export Plug-In . SVG Version: 6.00 Build 0) --> <svg xmlns="http://www.w3.org/2000/svg" xmlns:xlink="http://www.w3.org/1999/xlink" id="Layer_1" x="0px" y="0px" width="333px" height="31px" viewBox="47 46 333 31" xml:space="preserve"> <rect x="47" y="46" fill="#FFFFFF" width="333" height="31"></rect> <g> <path fill="#565554" d="M57.2,65.7h-3.5v10.1H48V48.2h11.6c5.3,0,8.9,2.5,8.9,8.1C68.6,62.5,62.8,65.7,57.2,65.7z M57.3,52.3 c-1.2,0-2.5,0.1-3.6,0.2v9.3c1.2,0,2.3,0.2,3.6,0.2c3,0.1,5.6-2.2,5.6-5.3C62.8,52.9,60.5,52.3,57.3,52.3z"></path> <path fill="#565554" d="M87.6,75.8l-8.4-11.9h-1.3v11.9h-5.7V48.2h12.1c4.3,0,8.4,2.5,8.4,7.1s-2.8,7.5-7.3,8l9.3,12.5H87.6z M82,52.1c-1.4,0-2.8,0.2-4.2,0.2v8.4c1.1,0.1,2.2,0.2,3.3,0.2c2.9,0,5.6-1.7,5.6-4.8C86.7,53.2,84.7,52.1,82,52.1z"></path> <path fill="#565554" d="M97.9,75.8V48.2h5.7v27.6H97.9z"></path> <path fill="#565554" d="M132.9,75.8l-0.1-23.2c-2.5,7.2-5.2,14.4-7.6,21.7H121l-7.2-19.9v21.4H109V48.2h8l6.6,19.1l6.7-19.1h7.3 v27.6H132.9z"></path> <path fill="#565554" d="M160.8,75.8l-2.6-7.5H148l-2.7,7.5h-4.6L151,48h5.8l10.4,27.8H160.8z M153.1,54.2l-3.7,10.2h7.3L153.1,54.2 z"></path> <path fill="#565554" d="M170.2,75.8V48.2h5.7v23.5h11.8v4.1C187.7,75.8,170.2,75.8,170.2,75.8z"></path> <path fill="#565554" d="M208.5,65.7h-3.4v10.1h-5.7V48.2H211c5.3,0,8.9,2.5,8.9,8.1C219.9,62.5,214.1,65.7,208.5,65.7z M208.6,52.3 c-1.2,0-2.5,0.1-3.6,0.2v9.3c1.1,0.1,2.3,0.2,3.5,0.2c3,0.1,5.6-2.2,5.6-5.3C214.1,52.9,211.8,52.3,208.6,52.3z"></path> <path fill="#565554" d="M223.4,75.8V48.2h5.7v27.6H223.4z"></path> <path fill="#565554" d="M246.3,76.5c-8.2,0-13.6-6.7-13.6-14.6c0-8,5.4-14.4,13.6-14.4c2.9,0,6,1.1,8.5,2.5v3.3 c-2.3-1.1-4.3-1.5-6.6-1.5c-5.7,0-9.8,5-9.8,10.5c0,5.6,2.8,10.3,8.9,10.3c2.7,0,6.1-0.7,8.6-1.6v3.5 C253.2,75.9,249.3,76.5,246.3,76.5z"></path> <path fill="#565554" d="M272.7,52.3v23.6H267l-0.1-23.6h-9v-4.1h23.9v4.1C281.8,52.3,272.7,52.3,272.7,52.3z"></path> <path fill="#565554" d="M295.8,76.5c-7.7,0-11.4-3.8-11.4-11.4V48.2h5.7v16.2c0,4.4,0.5,8.3,6,8.3s5.8-3.9,5.8-8.3V48.2h5v16.6 C307,72.5,303.8,76.5,295.8,76.5z"></path> <path fill="#565554" d="M328,75.8l-8.4-11.9h-1.4v11.9h-5.7V48.2h12c4.3,0,8.4,2.5,8.4,7.1s-2.8,7.5-7.3,8l9.4,12.5H328z M322.3,52.1c-1.4,0-2.8,0.2-4.2,0.2v8.4c1.1,0.1,2.2,0.2,3.3,0.2c2.9,0,5.6-1.7,5.6-4.8C327.1,53.2,324.9,52.1,322.3,52.1z"></path> <path fill="#565554" d="M338.2,75.8V48.2H357v4.1h-13v7.5l11.6,0.1v3.9H344v8l13.2,0.1V76L338.2,75.8L338.2,75.8z"></path> <path fill="#565554" d="M369,76.5c-2.6,0-6.6-0.7-8.9-2.1v-4.2c2,1.3,6.1,2.4,8.4,2.4c2.2,0,5.2-0.9,5.2-3.6 c0-5.7-13.4-3.9-13.4-13.4c0-5,4.8-8,9.3-8c2.5,0,5.4,0.7,7.6,2v3.1c-1.2-0.7-4.3-1.1-5.7-1.1c-2.3-0.1-5.9,0.7-5.9,3.6 c0,4.3,13.4,4.5,13.4,12.8C379.2,73.5,374.2,76.5,369,76.5z"></path> </g> </svg> 