<?xml version="1.0" encoding="UTF-8"?> <!-- Generator: Adobe Illustrator 18.0.0, SVG Export Plug-In . SVG Version: 6.00 Build 0) --> <svg xmlns="http://www.w3.org/2000/svg" xmlns:xlink="http://www.w3.org/1999/xlink" id="Layer_1" x="0px" y="0px" width="211px" height="15px" viewBox="0 0 211 15" xml:space="preserve"> <switch> <g> <rect fill="#FFFFFF" width="211" height="15"></rect> <g> <g> <g> <path fill="#E84E0F" d="M104.8,10.6l-1.1,3.7h-2.5l4.2-13.1h3l4.2,13.1h-2.6l-1.2-3.7H104.8z M108.5,8.8l-1-3.2 c-0.3-0.8-0.5-1.7-0.7-2.4h0c-0.2,0.8-0.4,1.7-0.6,2.4l-1,3.2H108.5z"></path> <path fill="#E84E0F" d="M114,14.3V1.2h2.7l3.4,5.6c0.9,1.5,1.6,3,2.2,4.4l0,0c-0.2-1.7-0.2-3.4-0.2-5.4V1.2h2.2v13.1h-2.5 l-3.4-5.8c-0.8-1.4-1.7-3-2.3-4.5l-0.1,0c0.1,1.7,0.1,3.4,0.1,5.6v4.7H114z"></path> <path fill="#E84E0F" d="M129.2,10.6l-1.1,3.7h-2.5l4.2-13.1h3l4.2,13.1h-2.6l-1.2-3.7H129.2z M133,8.8l-1-3.2 c-0.3-0.8-0.5-1.7-0.7-2.4h0c-0.2,0.8-0.4,1.7-0.6,2.4l-1,3.2H133z"></path> <path fill="#E84E0F" d="M139.7,3.2H136v-2h9.9v2h-3.8v11.1h-2.4V3.2z"></path> <path fill="#E84E0F" d="M152,14.5c-3.7,0-6-2.8-6-6.6c0-4,2.5-6.8,6.2-6.8c3.8,0,6,2.9,6,6.6C158.2,12,155.5,14.5,152,14.5 L152,14.5z M152.1,12.6c2.3,0,3.6-2.1,3.6-4.9c0-2.5-1.2-4.8-3.6-4.8c-2.4,0-3.6,2.3-3.6,4.9C148.5,10.4,149.8,12.6,152.1,12.6 L152.1,12.6z"></path> <path fill="#E84E0F" d="M171.1,9c-0.1-1.7-0.2-3.7-0.2-5.5h-0.1c-0.4,1.6-1,3.4-1.5,5l-1.9,5.7h-1.8l-1.7-5.6 c-0.5-1.7-1-3.4-1.3-5.1h0c-0.1,1.7-0.1,3.8-0.2,5.6l-0.3,5.3h-2.2l0.9-13.1h3.1l1.7,5.3c0.5,1.5,0.9,3.1,1.2,4.5h0.1 c0.3-1.4,0.8-3,1.3-4.6l1.8-5.2h3.1l0.8,13.1h-2.3L171.1,9z"></path> <path fill="#E84E0F" d="M178.9,14.3V8.9l-4.1-7.6h2.7l1.6,3.4c0.4,1,0.8,1.7,1.1,2.6h0c0.3-0.8,0.7-1.6,1.1-2.6l1.6-3.4h2.7 l-4.3,7.6v5.5H178.9z"></path> <path fill="#E84E0F" d="M185.8,14.5c-0.9,0-1.5-0.7-1.5-1.5c0-0.9,0.6-1.5,1.5-1.5c0.9,0,1.5,0.6,1.5,1.5 C187.3,13.9,186.7,14.5,185.8,14.5L185.8,14.5z"></path> <path fill="#E84E0F" d="M191.6,3.2h-3.7v-2h9.9v2H194v11.1h-2.4V3.2z"></path> <path fill="#E84E0F" d="M202.8,14.3l-4.2-13.1h2.6l1.8,5.9c0.5,1.6,0.9,3.2,1.3,4.7h0c0.3-1.6,0.8-3.1,1.3-4.7l1.9-6h2.5 l-4.5,13.1H202.8z"></path> </g> </g> <g> <path fill="#A8A8A9" d="M9.5,5.1c0,1.3-0.5,2.4-1.4,3.1c-0.9,0.7-2.2,1.1-4,1.1H2.6v5.2H1V1.2h3.5C7.8,1.2,9.5,2.5,9.5,5.1z M2.6,8h1.4c1.4,0,2.4-0.2,3-0.7c0.6-0.4,0.9-1.2,0.9-2.1c0-0.9-0.3-1.5-0.9-2S5.5,2.6,4.3,2.6H2.6V8z"></path> <path fill="#A8A8A9" d="M23.8,7.9c0,2.1-0.5,3.8-1.6,5c-1.1,1.2-2.6,1.8-4.5,1.8c-2,0-3.5-0.6-4.5-1.8c-1.1-1.2-1.6-2.9-1.6-5.1 c0-2.2,0.5-3.9,1.6-5C14.2,1.6,15.7,1,17.7,1c1.9,0,3.4,0.6,4.5,1.8S23.8,5.7,23.8,7.9z M13.2,7.9c0,1.8,0.4,3.2,1.2,4.1 c0.8,0.9,1.9,1.4,3.4,1.4c1.5,0,2.6-0.5,3.3-1.4c0.8-0.9,1.1-2.3,1.1-4.1c0-1.8-0.4-3.2-1.1-4.1c-0.8-0.9-1.9-1.4-3.3-1.4 c-1.5,0-2.6,0.5-3.4,1.4C13.6,4.7,13.2,6.1,13.2,7.9z"></path> <path fill="#A8A8A9" d="M38.4,14.5h-1.5l-2.7-8.9c-0.1-0.4-0.3-0.9-0.4-1.5c-0.2-0.6-0.2-1-0.2-1.1c-0.1,0.8-0.3,1.7-0.6,2.6 l-2.6,8.9h-1.5L25.2,1.2h1.6L29,9.4c0.3,1.2,0.5,2.2,0.6,3.1c0.2-1.1,0.4-2.2,0.7-3.3l2.4-8.1h1.6l2.5,8.2 c0.3,0.9,0.5,2,0.7,3.2c0.1-0.9,0.3-1.9,0.7-3.2l2.1-8.2H42L38.4,14.5z"></path> <path fill="#A8A8A9" d="M51.5,14.5h-7.4V1.2h7.4v1.4h-5.9v4.3h5.5v1.4h-5.5v4.9h5.9V14.5z"></path> <path fill="#A8A8A9" d="M56,9v5.5h-1.6V1.2h3.7c1.6,0,2.8,0.3,3.6,0.9c0.8,0.6,1.2,1.6,1.2,2.8c0,1.8-0.9,3-2.7,3.6l3.6,6H62 L58.8,9H56z M56,7.7h2.1c1.1,0,1.9-0.2,2.4-0.7c0.5-0.4,0.8-1.1,0.8-2c0-0.9-0.3-1.5-0.8-1.9C60,2.8,59.2,2.6,58,2.6h-2V7.7z"></path> <path fill="#A8A8A9" d="M66,14.5V1.2h1.6v13.3H66z"></path> <path fill="#A8A8A9" d="M81.6,14.5h-1.8L72.6,3.4h-0.1c0.1,1.3,0.1,2.5,0.1,3.6v7.6h-1.4V1.2H73l7.3,11.1h0.1 c0-0.2,0-0.7-0.1-1.6c0-0.9-0.1-1.5,0-1.9V1.2h1.4V14.5z"></path> <path fill="#A8A8A9" d="M91.2,7.6h4.5V14c-0.7,0.2-1.4,0.4-2.2,0.5c-0.7,0.1-1.6,0.2-2.5,0.2c-2,0-3.6-0.6-4.7-1.8 c-1.1-1.2-1.7-2.9-1.7-5c0-1.4,0.3-2.6,0.8-3.6c0.6-1,1.4-1.8,2.4-2.4c1-0.6,2.3-0.8,3.7-0.8c1.4,0,2.7,0.3,4,0.8l-0.6,1.4 c-1.2-0.5-2.4-0.8-3.5-0.8c-1.6,0-2.9,0.5-3.8,1.5c-0.9,1-1.4,2.3-1.4,4c0,1.8,0.4,3.2,1.3,4.1c0.9,0.9,2.2,1.4,3.9,1.4 c0.9,0,1.8-0.1,2.7-0.3V8.9h-3V7.6z"></path> </g> </g> </g> </switch> </svg> 